<svg width="560" height="435" viewBox="0 0 560 435" fill="none" xmlns="http://www.w3.org/2000/svg">
<path d="M101.48 87.3574C132.123 25.0168 208.497 -7.52929 277.315 2.19824C346.127 11.925 406.402 57.9614 445.233 115.73C464.35 147.384 466.735 186.18 456.664 222.32C446.59 258.467 424.066 291.911 393.441 312.835V312.836C332.354 354.606 246.331 350.345 182.946 312.073L182.941 312.07L181.159 311.014C143.878 288.651 114.762 254.912 98.1313 214.754C82.2233 174.361 82.1518 127.338 101.031 88.2783L101.48 87.3574Z" fill="#E5FBDD" stroke="#A6EC90"/>
<path d="M13.7352 347.863C13.7352 347.863 11.1266 353.98 25.4287 358.252C39.7308 362.525 47.7094 363.649 47.7094 363.649C47.7094 363.649 50.7677 364.909 49.3195 367.112C47.8713 369.316 43.2658 372.824 44.768 375.856C46.2702 378.887 50.219 379.454 55.562 377.789C60.905 376.125 72.6525 373.031 73.7319 372.752C74.8114 372.473 76.4305 372.797 75.7108 374.461C74.9912 376.125 67.0576 386.344 72.1128 389.807C77.168 393.27 91.2722 386.308 92.8014 385.57C94.3305 384.833 95.1131 385.03 95.6618 385.741C96.2105 386.452 93.2242 389.627 91.0923 392.622C88.9605 395.618 87.0176 399.467 90.1119 401.221C93.2062 402.976 104.504 401.653 120.65 387.729L127.72 380.794L125.399 371.115C119.157 350.723 110.324 343.581 106.771 343.41C103.218 343.24 102.813 347.539 103.011 351.209C103.209 354.879 104.027 359.17 103.191 359.467C102.354 359.763 101.617 359.53 100.69 358.081C99.7635 356.633 91.5871 343.231 85.4435 343.446C79.2999 343.662 80.5322 356.525 80.2803 358.324C80.0285 360.123 78.4273 359.512 77.6898 358.72C76.9522 357.928 68.6408 348.969 65.0158 344.751C61.3908 340.532 57.8647 338.805 54.8694 340.64C51.8741 342.475 54.0149 347.836 54.0598 350.454C54.1048 353.071 50.8396 352.522 50.8396 352.522C50.8396 352.522 43.4727 349.23 29.1167 345.209C14.7606 341.189 13.7082 347.908 13.7082 347.908" fill="#EBEBEB"/>
<path d="M129.753 382.071C119.22 379.085 100.591 373.454 84.5713 368.714C68.5512 363.973 54.0602 359.719 43.5451 356.633L31.087 353.035L27.6959 352.064L26.7963 351.803L26.4995 351.695L26.7963 351.767L27.6959 352.001L31.096 352.9C34.0553 353.701 38.292 354.897 43.581 356.39C54.1142 359.386 68.6322 363.631 84.6433 368.381C100.654 373.13 119.31 378.842 129.816 381.864" fill="#E0E0E0"/>
<path d="M51.3794 371.241C51.5721 371.096 51.7802 370.972 52 370.872C52.4048 370.657 52.9985 370.351 53.7361 369.973C55.2113 369.244 57.2801 368.3 59.5738 367.274L65.4656 364.711L67.2646 363.928C67.4758 363.816 67.6992 363.729 67.9302 363.667C67.7391 363.81 67.5342 363.934 67.3186 364.036C66.9138 364.252 66.3201 364.558 65.5735 364.936C64.0893 365.646 61.9755 366.573 59.7178 367.58L53.844 370.18L52.045 370.971C51.835 371.088 51.6114 371.179 51.3794 371.241Z" fill="#E0E0E0"/>
<path d="M67.9212 362.777C67.8493 362.777 65.6994 358.639 63.1269 353.458C60.5543 348.277 58.5394 344.04 58.6294 343.995C58.7193 343.95 60.8511 348.133 63.4237 353.314C65.9963 358.495 68.0381 362.732 67.9212 362.777Z" fill="#E0E0E0"/>
<path d="M92.19 371.169C92.1146 370.938 92.0604 370.7 92.0281 370.459C91.9381 369.937 91.8122 369.28 91.6773 368.507C91.3804 366.852 90.9577 364.576 90.4 362.075C89.8423 359.575 89.2756 357.335 88.8439 355.716C88.637 354.951 88.4661 354.304 88.3311 353.791C88.2557 353.557 88.2045 353.316 88.1782 353.071C88.2896 353.29 88.38 353.519 88.4481 353.755C88.601 354.205 88.8079 354.843 89.0507 355.653C89.5365 357.263 90.1481 359.503 90.7058 362.012C91.2635 364.522 91.6503 366.807 91.8932 368.471C92.0101 369.298 92.1001 369.973 92.145 370.441C92.1939 370.68 92.209 370.925 92.19 371.169Z" fill="#E0E0E0"/>
<path d="M78.9131 382.125C79.0514 381.947 79.2116 381.787 79.3898 381.648C79.7586 381.307 80.2174 380.902 80.7571 380.416C81.9264 379.4 83.5455 377.996 85.3535 376.467C87.1615 374.938 88.8076 373.571 90.0129 372.59L91.4432 371.439C91.6137 371.287 91.8007 371.154 92.0008 371.043C91.8587 371.221 91.699 371.384 91.5241 371.529L90.1569 372.752C88.9875 373.778 87.3594 375.172 85.5514 376.701C83.7434 378.23 82.1063 379.606 80.901 380.587L79.4618 381.738C79.2949 381.889 79.1107 382.018 78.9131 382.125Z" fill="#E0E0E0"/>
<path d="M99.395 392.263C99.578 392.039 99.7829 391.834 100.007 391.651L101.806 390.077C103.29 388.754 105.359 386.946 107.652 384.968C109.946 382.989 112.042 381.199 113.571 379.921L115.37 378.419C115.585 378.228 115.817 378.056 116.063 377.906C115.878 378.126 115.673 378.328 115.451 378.509L113.697 380.092C112.213 381.406 110.144 383.214 107.85 385.201C105.557 387.189 103.461 388.961 101.941 390.239L100.142 391.741C99.9121 391.941 99.6618 392.116 99.395 392.263Z" fill="#E0E0E0"/>
<path d="M115.532 378.131C115.432 377.838 115.357 377.537 115.307 377.232C115.163 376.593 114.992 375.766 114.768 374.767C114.318 372.68 113.679 369.811 112.888 366.672C112.096 363.532 111.313 360.69 110.729 358.639C110.45 357.659 110.216 356.84 110.045 356.211C109.946 355.917 109.871 355.616 109.82 355.311C109.953 355.602 110.064 355.903 110.153 356.211C110.351 356.768 110.621 357.587 110.945 358.603C111.574 360.636 112.402 363.47 113.193 366.627C113.985 369.784 114.588 372.662 114.992 374.722C115.19 375.766 115.343 376.62 115.433 377.205C115.497 377.51 115.53 377.82 115.532 378.131Z" fill="#E0E0E0"/>
<path d="M419.743 190.055C407.15 181.608 404.092 165.579 404.326 151.106C404.326 148.696 404.056 146.15 405.162 144.018C406.269 141.886 408.931 140.42 411.108 141.365C412.907 142.174 413.735 144.243 414.769 145.952C416.146 148.231 418.143 150.071 420.526 151.259C422.073 152.033 423.98 152.482 425.482 151.619C427.551 150.432 427.74 147.553 427.686 145.151L427.362 131.731C427.178 129.333 427.381 126.922 427.965 124.589C428.666 122.295 430.277 120.154 432.552 119.471C434.828 118.787 437.67 120.055 438.192 122.403C438.298 123.395 438.34 124.392 438.318 125.389C438.31 125.887 438.45 126.377 438.721 126.795C438.991 127.213 439.38 127.541 439.838 127.737C440.801 128.007 441.745 127.305 442.456 126.595C444.884 124.121 446.513 120.973 448.033 117.843C449.553 114.712 451.01 111.546 453.214 108.848C455.418 106.149 458.485 104.008 461.921 103.756C465.357 103.505 469.054 105.555 470.017 108.92C470.979 112.284 469.027 115.756 466.931 118.526C463.819 122.65 460.125 126.3 455.966 129.365C455.169 129.839 454.54 130.549 454.167 131.398C453.673 133.008 455.22 134.573 456.812 135.068C458.611 135.635 460.545 135.419 462.425 135.599C464.305 135.779 466.338 136.579 467.084 138.297C468.11 140.735 466.104 143.343 464.107 145.062C460.127 148.514 455.581 151.253 450.668 153.157C448.856 153.692 447.158 154.554 445.658 155.703C444.255 156.962 443.436 159.139 444.327 160.812C445.217 162.485 447.439 162.989 449.283 162.611C451.127 162.233 452.764 161.199 454.509 160.506C457.792 159.202 462.056 159.355 464.215 162.161C464.872 163.134 465.296 164.247 465.452 165.411C465.608 166.575 465.492 167.759 465.114 168.871C464.351 171.086 463.149 173.123 461.579 174.862C456.449 181.237 449.715 186.132 442.069 189.047C434.459 191.836 427.38 192.645 419.725 190.028" fill="#EBEBEB"/>
<path d="M423.341 180.952C425.594 173.035 428.297 165.254 431.437 157.645C432.264 155.622 433.074 153.616 433.883 151.646C434.693 149.676 435.485 147.724 436.384 145.871C438.122 142.301 440.056 138.83 442.177 135.473C444.174 132.262 446.189 129.275 448.096 126.478C450.003 123.68 451.838 121.162 453.61 118.913C456.379 115.344 459.429 112.003 462.73 108.919C463.891 107.831 464.826 107.013 465.429 106.473L466.158 105.852C466.239 105.779 466.326 105.712 466.418 105.654C466.349 105.741 466.271 105.819 466.185 105.888L465.483 106.536C464.862 107.102 463.954 107.939 462.784 109.045C459.536 112.169 456.53 115.534 453.789 119.111C452.044 121.369 450.191 123.914 448.329 126.694C446.468 129.473 444.444 132.45 442.456 135.689C440.355 139.035 438.439 142.495 436.717 146.051C435.817 147.904 435.035 149.838 434.225 151.808L431.779 157.807C428.633 165.4 425.916 173.163 423.638 181.06" fill="#E0E0E0"/>
<path d="M436.501 145.817C436.381 145.488 436.296 145.148 436.249 144.801C436.114 144.135 435.943 143.173 435.754 141.985C435.377 139.602 434.963 136.291 434.513 132.639C434.063 128.987 433.614 125.686 433.2 123.321C432.993 122.133 432.813 121.171 432.687 120.514C432.6 120.173 432.549 119.823 432.534 119.471C432.677 119.794 432.782 120.132 432.849 120.478C433.038 121.126 433.254 122.079 433.506 123.258C434 125.623 434.513 128.924 434.954 132.585C435.395 136.246 435.772 139.449 436.069 141.94C436.204 143.065 436.33 144.009 436.42 144.774C436.489 145.117 436.516 145.467 436.501 145.817Z" fill="#E0E0E0"/>
<path d="M467.264 139.502C466.863 139.601 466.453 139.658 466.041 139.673C465.249 139.763 464.098 139.88 462.694 140.069C459.87 140.42 455.993 141.05 451.739 141.922C447.484 142.795 443.643 143.775 440.945 144.558C439.568 144.935 438.471 145.277 437.706 145.502C437.318 145.652 436.913 145.758 436.501 145.817C436.87 145.625 437.255 145.465 437.652 145.34C438.399 145.061 439.451 144.675 440.855 144.252C443.553 143.397 447.385 142.381 451.649 141.49C455.286 140.721 458.961 140.142 462.659 139.754C464.08 139.601 465.231 139.529 466.023 139.502C466.436 139.467 466.851 139.467 467.264 139.502Z" fill="#E0E0E0"/>
<path d="M423.665 180.358C423.584 180.237 423.512 180.111 423.449 179.98C423.305 179.683 423.125 179.315 422.9 178.874C422.433 177.911 421.785 176.499 421.012 174.745C419.464 171.237 417.467 166.317 415.345 160.866C413.222 155.415 411.279 150.486 409.804 146.95C409.084 145.232 408.481 143.811 408.005 142.768L407.537 141.625C407.472 141.494 407.424 141.355 407.393 141.212C407.393 141.212 407.483 141.338 407.618 141.589L408.167 142.696C408.634 143.658 409.282 145.071 410.056 146.825C411.603 150.333 413.6 155.244 415.722 160.704C417.845 166.164 419.824 171.057 421.299 174.655C422.019 176.373 422.613 177.785 423.098 178.838L423.566 179.98C423.62 180.1 423.653 180.227 423.665 180.358Z" fill="#E0E0E0"/>
<path d="M464.449 166.407C464.324 166.487 464.187 166.548 464.044 166.587L462.857 167.009L458.494 168.503C454.806 169.771 449.733 171.588 444.102 173.594C438.471 175.6 433.407 177.363 429.71 178.559C427.857 179.153 426.346 179.62 425.302 179.926L424.088 180.268C423.948 180.313 423.803 180.343 423.656 180.358C423.781 180.278 423.918 180.217 424.061 180.178L425.248 179.755C426.346 179.387 427.821 178.856 429.611 178.253C433.299 176.994 438.372 175.177 444.003 173.171C449.634 171.165 454.698 169.402 458.395 168.206C460.248 167.612 461.759 167.144 462.803 166.838L464.017 166.497C464.157 166.451 464.302 166.421 464.449 166.407Z" fill="#E0E0E0"/>
<path d="M557.286 250.42C557.178 251.641 556.825 252.828 556.248 253.909C555.672 254.991 554.884 255.946 553.931 256.717C552.006 258.248 549.757 259.318 547.356 259.847C542.759 260.998 537.362 260.162 532.829 258.777C534.682 253.856 540.025 250.879 542.813 249.548C547.239 247.434 556.53 246.3 557.286 250.447" fill="#EBEBEB"/>
<path d="M527.171 265.828C528.337 265.106 529.672 264.703 531.043 264.662C532.414 264.621 533.772 264.943 534.979 265.595C536.174 266.266 537.223 267.169 538.066 268.25C538.909 269.331 539.529 270.569 539.89 271.891C540.12 272.482 540.218 273.115 540.177 273.747C540.137 274.38 539.959 274.996 539.656 275.552C539.288 276.019 538.802 276.379 538.249 276.595C537.696 276.812 537.095 276.877 536.508 276.784C535.338 276.579 534.244 276.07 533.333 275.309C530.103 272.845 527.441 269.867 527.171 265.82" fill="#EBEBEB"/>
<path d="M515.325 265.253C516.327 264.955 517.358 264.762 518.401 264.677C519.539 264.541 520.69 264.541 521.828 264.677C523.217 264.798 524.596 265.012 525.957 265.316C528.456 265.877 530.779 267.045 532.721 268.716C533.291 269.238 533.806 269.817 534.259 270.443C534.443 270.662 534.586 270.912 534.682 271.181C534.601 271.235 533.944 270.218 532.478 269.004C530.524 267.468 528.254 266.383 525.831 265.829C524.491 265.536 523.137 265.314 521.774 265.163C520.668 265.015 519.55 264.978 518.437 265.055C517.406 265.2 516.366 265.266 515.325 265.253Z" fill="#E0E0E0"/>
<path d="M550.297 251.904C549.841 252.178 549.362 252.412 548.867 252.606C547.967 253.02 546.591 253.613 544.909 254.324C541.563 255.745 536.904 257.661 531.713 259.658C526.523 261.655 521.765 263.31 518.302 264.443C516.566 265.01 515.163 265.451 514.182 265.739C513.682 265.917 513.168 266.049 512.644 266.134C513.118 265.894 513.611 265.696 514.119 265.541L518.176 264.093C521.603 262.869 526.334 261.142 531.525 259.154L544.774 253.973L548.795 252.417C549.28 252.202 549.782 252.031 550.297 251.904Z" fill="#E0E0E0"/>
<path d="M523.375 260.863C525.658 259.085 527.484 256.788 528.703 254.164C529.922 251.539 530.497 248.661 530.382 245.77C530.31 244.295 529.851 242.577 528.466 242.091C527.081 241.605 525.633 242.658 524.688 243.782C522.74 246.158 521.539 249.058 521.238 252.116C520.937 255.174 521.549 258.252 522.997 260.962" fill="#EBEBEB"/>
<path d="M527.126 248.585C527.173 248.862 527.173 249.145 527.126 249.421C527.126 249.961 527.036 250.726 526.919 251.679C526.62 254.178 525.867 256.602 524.697 258.83C524.011 260.048 523.133 261.147 522.098 262.086C520.667 263.348 518.97 264.271 517.133 264.785C516.87 264.882 516.594 264.937 516.314 264.947C516.314 264.839 517.429 264.524 519.093 263.652C520.068 263.13 520.975 262.489 521.792 261.745C522.771 260.828 523.602 259.766 524.257 258.596C525.394 256.417 526.175 254.07 526.568 251.643C526.699 250.614 526.885 249.594 527.126 248.585Z" fill="#E0E0E0"/>
<path d="M46.693 95.8048C48.1441 95.721 49.5972 95.9312 50.9651 96.4227C52.3331 96.9143 53.5876 97.677 54.6536 98.6652C56.7781 100.666 58.4152 103.128 59.4389 105.861C61.5707 111.042 61.5078 117.501 60.6622 123.042C54.5816 121.719 50.192 115.981 48.1502 112.922C44.921 108.101 42.0156 97.4239 46.693 95.8318" fill="#EBEBEB"/>
<path d="M69.8375 128.448C68.7916 127.204 68.0921 125.708 67.8094 124.108C67.5267 122.508 67.6709 120.862 68.2274 119.336C68.8121 117.822 69.6921 116.439 70.8164 115.268C71.9406 114.098 73.2866 113.163 74.7758 112.517C76.143 111.897 77.7621 111.501 79.1024 112.167C79.7132 112.515 80.2191 113.021 80.5673 113.632C80.9154 114.243 81.093 114.936 81.0813 115.639C81.0435 117.046 80.6338 118.417 79.894 119.614C77.5642 123.806 74.497 127.44 69.8375 128.448Z" fill="#EBEBEB"/>
<path d="M71.2226 142.417C70.705 141.291 70.3012 140.115 70.0172 138.909C69.6617 137.6 69.4624 136.253 69.4236 134.897C69.3316 133.252 69.3466 131.602 69.4685 129.959C69.6994 126.936 70.6727 124.016 72.302 121.459C72.8135 120.702 73.398 119.997 74.047 119.354C74.5327 118.922 74.8116 118.715 74.8476 118.742C74.8835 118.769 73.8491 119.768 72.6798 121.692C71.2087 124.239 70.3237 127.081 70.0892 130.013C69.9739 131.632 69.9468 133.257 70.0082 134.879C70.0166 136.198 70.1643 137.513 70.449 138.801C70.7938 139.986 71.0523 141.195 71.2226 142.417Z" fill="#E0E0E0"/>
<path d="M49.6255 103.747C50.0264 104.226 50.3818 104.741 50.6869 105.285C51.3435 106.302 52.261 107.786 53.3854 109.63C55.6252 113.318 58.6655 118.436 61.8767 124.184C65.0879 129.932 67.8584 135.203 69.7743 139.071C70.7368 140.996 71.4924 142.57 71.9961 143.667C72.2904 144.219 72.5314 144.797 72.7157 145.394C72.3577 144.881 72.0418 144.339 71.7712 143.775L69.3786 139.278C67.3637 135.473 64.5392 130.229 61.328 124.499L52.9986 109.891C51.9732 108.092 51.1277 106.599 50.48 105.447C50.1478 104.906 49.8619 104.337 49.6255 103.747Z" fill="#E0E0E0"/>
<path d="M64.7011 133.737C62.2281 131.363 59.2237 129.614 55.9379 128.636C52.6522 127.658 49.1804 127.479 45.8116 128.115C44.1026 128.448 42.2136 129.275 41.8358 130.984C41.458 132.693 42.9782 134.196 44.4534 135.122C47.5714 137.003 51.1773 137.917 54.815 137.749C58.4526 137.581 61.9588 136.338 64.89 134.178" fill="#EBEBEB"/>
<path d="M49.6973 131.479C50.0093 131.37 50.338 131.315 50.6687 131.317C51.2984 131.245 52.2159 131.2 53.3672 131.182C56.3443 131.1 59.3111 131.567 62.1194 132.558C63.6626 133.149 65.0973 133.991 66.365 135.05C67.3973 135.92 68.3053 136.928 69.0635 138.045C69.5684 138.789 70.002 139.578 70.3588 140.402C70.515 140.683 70.6273 140.987 70.6916 141.302C70.5747 141.356 70.017 140.06 68.7037 138.261C67.9212 137.22 67.0151 136.278 66.0052 135.455C64.7644 134.47 63.3815 133.678 61.9035 133.107C59.1572 132.149 56.2755 131.636 53.3672 131.587C52.1429 131.619 50.9176 131.583 49.6973 131.479Z" fill="#E0E0E0"/>
<path d="M260.091 427.037C259.591 425.842 259.337 424.559 259.345 423.264C259.353 421.968 259.622 420.688 260.136 419.499C261.177 417.119 262.753 415.011 264.741 413.338C268.465 410.01 273.907 408.148 278.828 407.203C279.511 412.717 275.994 418.114 274.033 420.696C270.939 424.851 262.826 430.464 260.091 426.992" fill="#EBEBEB"/>
<path d="M280.653 397.848C279.921 399.102 278.869 400.138 277.605 400.851C276.34 401.564 274.909 401.928 273.457 401.905C272.01 401.865 270.585 401.536 269.266 400.938C267.947 400.34 266.76 399.486 265.776 398.424C265.271 397.985 264.869 397.442 264.597 396.831C264.325 396.22 264.19 395.557 264.201 394.889C264.313 394.272 264.588 393.696 264.998 393.222C265.408 392.747 265.937 392.391 266.531 392.19C267.723 391.807 268.995 391.745 270.219 392.011C274.447 392.721 278.396 394.187 280.635 397.839" fill="#EBEBEB"/>
<path d="M292.014 392.568C291.226 393.342 290.358 394.03 289.424 394.619C288.43 395.308 287.358 395.875 286.231 396.31C284.875 396.876 283.484 397.354 282.066 397.74C279.453 398.446 276.706 398.495 274.069 397.884C273.282 397.678 272.517 397.395 271.785 397.039C271.281 396.76 271.02 396.589 271.038 396.553C271.056 396.517 272.189 397.084 274.159 397.498C276.74 397.979 279.395 397.878 281.931 397.201C283.323 396.814 284.695 396.358 286.042 395.834C287.149 395.432 288.211 394.914 289.208 394.286C290.105 393.653 291.042 393.079 292.014 392.568Z" fill="#E0E0E0"/>
<path d="M265.929 422.216C266.22 421.736 266.551 421.282 266.918 420.858C267.575 420.012 268.555 418.798 269.77 417.314C272.198 414.336 275.607 410.261 279.484 405.845C283.361 401.428 286.977 397.552 289.658 394.79C290.989 393.405 292.086 392.298 292.86 391.552C293.241 391.143 293.657 390.767 294.101 390.427C293.78 390.885 293.419 391.312 293.022 391.705C292.221 392.604 291.223 393.702 289.945 395.06C287.337 397.884 283.775 401.815 279.898 406.223L270.075 417.565L267.08 421.002C266.731 421.438 266.346 421.844 265.929 422.216Z" fill="#E0E0E0"/>
<path d="M286.617 400.628C285.364 403.411 284.792 406.453 284.949 409.502C285.105 412.551 285.985 415.518 287.516 418.159C288.299 419.499 289.576 420.857 291.114 420.651C292.653 420.444 293.48 418.735 293.813 417.215C294.462 414.038 294.156 410.741 292.935 407.738C291.714 404.736 289.631 402.161 286.95 400.34" fill="#EBEBEB"/>
<path d="M289.163 413.922C289.163 413.922 288.974 413.662 288.731 413.149C288.488 412.636 288.182 411.89 287.831 410.945C286.883 408.464 286.395 405.83 286.392 403.173C286.434 401.699 286.714 400.241 287.22 398.856C287.649 397.735 288.23 396.679 288.947 395.717C289.42 395.066 289.957 394.464 290.548 393.918C290.962 393.531 291.204 393.333 291.231 393.36C291.258 393.387 290.395 394.259 289.271 395.932C288.627 396.898 288.102 397.937 287.705 399.027C287.248 400.363 286.993 401.761 286.95 403.173C286.962 405.77 287.387 408.347 288.209 410.81C288.587 411.828 288.905 412.868 289.163 413.922Z" fill="#E0E0E0"/>
<path d="M552.402 121.584C550.866 119.937 548.838 118.832 546.621 118.435C544.404 118.037 542.118 118.369 540.106 119.381H540.151C537.869 119.734 535.763 120.816 534.148 122.467C532.532 124.117 531.495 126.246 531.192 128.535C530.888 130.824 531.333 133.15 532.462 135.164C533.591 137.178 535.341 138.773 537.452 139.709C540.142 140.829 543.139 140.975 545.925 140.123C548.661 139.361 551.075 137.733 552.807 135.482C554.289 133.448 555.054 130.979 554.981 128.464C554.907 125.948 554 123.528 552.402 121.584Z" fill="#E0E0E0"/>
<path d="M259.542 412.915C258.208 411.052 256.226 409.754 253.986 409.275C251.745 408.796 249.406 409.17 247.426 410.324H247.471C242.974 411.134 239.232 415.667 238.638 420.93C238.044 426.192 240.68 431.724 244.809 433.882C246.095 434.527 247.5 434.902 248.937 434.985C250.373 435.069 251.812 434.859 253.165 434.368C255.974 433.393 258.366 431.489 259.947 428.971C262.898 424.348 262.817 417.26 259.542 412.915Z" fill="#E0E0E0"/>
<path d="M200.85 60.2294C200.002 59.0516 198.745 58.2333 197.326 57.9354C195.906 57.6375 194.426 57.8814 193.177 58.6193C190.352 59.132 187.96 62.0104 187.582 65.3385C187.204 68.6667 188.877 72.1747 191.486 73.542C192.301 73.9462 193.19 74.1817 194.099 74.2343C195.008 74.2868 195.918 74.1554 196.775 73.8478C198.553 73.2316 200.069 72.0295 201.074 70.4387C202.01 68.8911 202.485 67.1092 202.446 65.3014C202.406 63.4935 201.852 61.7343 200.85 60.2294Z" fill="#E0E0E0"/>
<path d="M501.085 100.509C496.984 88.2039 482.942 78.921 470.188 76.6003C459.762 74.9992 448.024 76.0876 438.255 81.3047C428.487 86.5218 420.076 94.9051 416.532 105.393C412.988 115.882 414.958 128.484 422.829 136.291C430.699 144.099 444.507 145.682 453.043 138.612C458.323 134.24 461.408 127.17 467.669 124.373C476.574 120.406 488.07 126.837 496.3 121.611C502.857 117.447 503.55 107.894 501.085 100.509Z" fill="#E0E0E0"/>
<path d="M365.359 388.233C367.824 377.727 361.932 365.026 353.909 357.803C347.225 352.109 338.437 347.755 329.235 347.179C320.034 346.604 310.418 348.879 303.321 354.771C296.224 360.663 292.113 370.441 294.272 379.409C296.431 388.377 305.534 395.528 314.663 394.25C320.312 393.459 325.583 389.753 331.25 390.544C339.283 391.624 344.626 401.203 352.73 401.096C359.216 401.015 363.884 394.547 365.359 388.233Z" fill="#E0E0E0"/>
<path d="M63.5407 114.541C69.7563 111.564 75.684 107.552 79.6778 101.265C82.0065 97.5746 83.2423 93.3004 83.2423 88.937C83.2423 84.5736 82.0065 80.2994 79.6778 76.6094C79.3 76.0157 78.8952 75.44 78.4544 74.8733C75.3692 70.9605 70.3589 68.199 65.4656 69.0625C59.8438 70.043 55.9129 75.2601 50.5699 77.275C44.5432 79.5507 37.4821 77.4909 31.5544 79.9735C25.6267 82.4561 22.2086 89.5622 22.8742 96.0116C23.5399 102.461 27.6866 108.218 32.9576 111.969C37.3899 115.024 42.5431 116.868 47.9073 117.319C53.2714 117.771 58.6604 116.813 63.5407 114.541Z" fill="#E0E0E0"/>
<path d="M545.053 185.449C542.741 170.337 528.169 156.755 512.959 158.212C498.756 160.272 484.823 167.351 476.871 179.297C468.919 191.242 468.173 208.305 477.051 219.576C482.637 226.673 491.443 230.928 500.438 231.585C509.534 232.087 518.545 229.604 526.101 224.514C538.919 216.149 547.365 200.579 545.053 185.449Z" fill="#A6EC90"/>
<path d="M545.053 185.449C542.741 170.337 528.169 156.755 512.959 158.212C498.756 160.272 484.823 167.351 476.871 179.297C468.919 191.242 468.173 208.305 477.051 219.576C482.637 226.673 491.443 230.928 500.438 231.585C509.534 232.087 518.545 229.604 526.101 224.514C538.919 216.149 547.365 200.579 545.053 185.449Z" fill="white"/>
<path d="M524.427 358.603C524.367 358.283 524.425 357.951 524.591 357.67C524.756 357.389 525.018 357.177 525.327 357.074C525.648 357.001 525.986 357.054 526.27 357.221C526.554 357.388 526.764 357.657 526.856 357.973C526.925 358.316 526.863 358.671 526.683 358.971C526.504 359.27 526.219 359.492 525.885 359.593C525.542 359.634 525.197 359.541 524.922 359.333C524.647 359.125 524.463 358.818 524.409 358.477" fill="white"/>
<path d="M351.112 278.098C350.482 277.821 349.88 277.487 349.313 277.099C347.954 276.23 346.514 275.495 345.013 274.905C343.517 274.336 341.914 274.102 340.318 274.221C339.094 274.329 338.375 274.644 338.348 274.572C338.93 274.198 339.593 273.97 340.282 273.906C341.933 273.693 343.611 273.894 345.166 274.491C346.699 275.086 348.15 275.875 349.483 276.839C350.078 277.186 350.626 277.61 351.112 278.098Z" fill="#FAFAFA"/>
<path d="M400.278 269.849C400.145 269.951 400.003 270.041 399.855 270.119L398.614 270.848C398.074 271.163 397.4 271.531 396.599 271.918C395.799 272.305 394.908 272.818 393.901 273.214C392.893 273.609 391.76 274.158 390.519 274.608C389.277 275.057 387.955 275.507 386.552 275.975C383.479 276.906 380.348 277.63 377.179 278.143C374.004 278.617 370.8 278.882 367.59 278.934C366.106 278.934 364.703 278.934 363.39 278.835C362.076 278.736 360.853 278.655 359.738 278.539C358.622 278.422 357.633 278.26 356.751 278.125C355.87 277.99 355.123 277.855 354.512 277.72L353.108 277.405C352.941 277.382 352.778 277.337 352.623 277.27C352.792 277.263 352.961 277.278 353.126 277.315L354.547 277.549C355.159 277.657 355.906 277.783 356.787 277.882C357.669 277.981 358.658 278.152 359.774 278.224C360.889 278.296 362.094 278.431 363.372 278.467C364.649 278.503 366.07 278.521 367.545 278.521C373.947 278.414 380.303 277.428 386.435 275.588C387.838 275.138 389.178 274.743 390.393 274.266C391.607 273.789 392.758 273.366 393.784 272.926C394.809 272.485 395.718 272.026 396.482 271.693C397.247 271.361 397.966 270.983 398.524 270.695L399.801 270.047C399.95 269.959 400.111 269.892 400.278 269.849Z" fill="#FAFAFA"/>
<path d="M423.944 256.825C423.989 256.888 423.225 257.391 422.145 258.354C420.701 259.595 419.414 261.009 418.313 262.563C417.217 264.129 416.311 265.82 415.615 267.601C415.093 268.968 414.868 269.858 414.796 269.84C414.786 269.625 414.81 269.409 414.868 269.202C414.982 268.623 415.133 268.052 415.318 267.493C416.544 263.782 418.842 260.518 421.92 258.111C422.377 257.742 422.861 257.408 423.369 257.113C423.728 256.897 423.926 256.798 423.944 256.825Z" fill="#FAFAFA"/>
<path d="M428.505 258.228C428.505 258.3 427.605 258.714 426.283 259.586C422.771 261.881 420.083 265.237 418.61 269.166C418.044 270.668 417.846 271.648 417.774 271.63C417.702 271.612 417.774 271.378 417.837 270.929C417.949 270.297 418.108 269.675 418.313 269.067C419.659 264.986 422.427 261.526 426.112 259.316C426.662 258.975 427.236 258.674 427.83 258.417C428.044 258.318 428.271 258.255 428.505 258.228Z" fill="#FAFAFA"/>
<path d="M400.602 266.152C400.459 266.243 400.305 266.316 400.143 266.368L398.821 266.908C398.245 267.142 397.535 267.421 396.698 267.699C395.862 267.978 394.899 268.347 393.847 268.662C391.724 269.346 389.16 270.038 386.291 270.695C383.422 271.351 380.219 271.891 376.846 272.296C373.473 272.701 370.226 272.854 367.284 272.908C364.343 272.962 361.681 272.836 359.459 272.656C358.352 272.593 357.354 272.467 356.472 272.377C355.591 272.287 354.835 272.188 354.224 272.089L352.802 271.873C352.626 271.875 352.45 271.851 352.281 271.801C352.448 271.779 352.617 271.779 352.784 271.801L354.206 271.936C354.826 272.008 355.582 272.089 356.463 272.152C357.345 272.215 358.334 272.323 359.45 272.359C361.663 272.503 364.307 272.557 367.239 272.512C370.172 272.467 373.392 272.251 376.756 271.873C380.12 271.495 383.296 270.92 386.165 270.317C389.034 269.714 391.562 269.022 393.721 268.383C394.791 268.086 395.736 267.753 396.581 267.484C397.427 267.214 398.137 266.971 398.722 266.764L400.08 266.305C400.246 266.231 400.422 266.179 400.602 266.152Z" fill="#FAFAFA"/>
<path d="M351.561 271.253C350.039 270.253 348.435 269.383 346.767 268.653C345.047 268.058 343.281 267.607 341.487 267.304C342.025 267.206 342.577 267.206 343.115 267.304C344.423 267.435 345.708 267.737 346.938 268.203C348.164 268.682 349.319 269.323 350.374 270.11C350.84 270.411 351.243 270.799 351.561 271.253Z" fill="#FAFAFA"/>
<path d="M503.064 345.893C501.267 345.898 499.479 345.641 497.757 345.128C480.666 340.01 481.566 327.678 482.259 317.766C482.924 308.528 482.951 302.717 475.332 299.857C465.249 296.079 461.102 299.749 454.815 305.308C447.331 311.928 438.03 320.167 415.453 316.821C403.759 315.085 384.87 308.906 361.743 289.314C353.496 282.378 345.873 274.733 338.959 266.467L342.449 263.661C342.8 264.092 377.332 306.648 416.109 312.387C436.618 315.427 444.704 308.267 451.846 301.952C458.251 296.286 464.296 290.934 476.907 295.656C488.042 299.839 487.35 309.526 486.729 318.08C486.009 328.092 485.389 336.736 499.043 340.829C514.425 345.434 534.655 321.04 546.717 306.504C551.034 301.314 554.03 297.554 556.423 295.602L559.805 298.3C558.311 300.099 554.156 304.597 550.162 309.373C537.875 324.206 519.867 345.893 503.064 345.893Z" fill="#A6EC90"/>
<path d="M439.658 310.48C439.658 310.48 439.478 310.651 439.119 310.875C438.614 311.21 438.088 311.51 437.545 311.775C435.746 312.655 433.846 313.307 431.887 313.718C429.929 314.121 427.928 314.275 425.932 314.177C425.329 314.145 424.729 314.082 424.133 313.988C423.911 313.969 423.693 313.917 423.485 313.835C423.485 313.763 424.439 313.835 425.95 313.835C429.897 313.855 433.804 313.046 437.419 311.46C438.795 310.83 439.622 310.372 439.658 310.48Z" fill="white"/>
<path d="M465.96 296.906C465.47 296.924 464.98 296.906 464.494 296.852C462.144 296.819 459.856 297.608 458.026 299.083C457.675 299.425 457.299 299.741 456.902 300.028C457.108 299.572 457.416 299.169 457.801 298.849C458.689 298.012 459.745 297.374 460.899 296.977C462.053 296.58 463.279 296.433 464.494 296.547C465.004 296.55 465.506 296.674 465.96 296.906Z" fill="white"/>
<path d="M494.609 339.39C493.903 339.306 493.217 339.096 492.585 338.769C491.023 338.051 489.618 337.031 488.451 335.768C487.285 334.505 486.378 333.025 485.785 331.411C485.511 330.757 485.356 330.06 485.326 329.351C485.398 329.351 485.578 330.116 486.082 331.294C486.74 332.827 487.652 334.238 488.78 335.468C489.914 336.691 491.25 337.71 492.729 338.481C493.862 339.075 494.636 339.318 494.609 339.39Z" fill="white"/>
<path d="M557.241 297.23C555.099 299.798 552.727 302.164 550.153 304.3C552.308 301.744 554.68 299.378 557.241 297.23Z" fill="white"/>
<path d="M342.926 267.457C342.004 268.471 340.716 269.078 339.347 269.144C337.977 269.21 336.637 268.729 335.622 267.807L327.725 260.611L334.687 252.957L342.575 260.153C343.59 261.075 344.197 262.362 344.263 263.732C344.329 265.102 343.848 266.441 342.926 267.457Z" fill="#A6EC90"/>
<path d="M342.926 267.457C343.191 267.069 343.434 266.666 343.655 266.251C344.21 265.078 344.297 263.736 343.898 262.5C343.627 261.646 343.133 260.879 342.467 260.279L340.084 258.147C338.402 256.618 336.531 254.936 334.543 253.146H334.849L331.368 256.978L327.886 260.8V260.495L333.391 265.505L335.748 267.673C336.407 268.277 337.214 268.696 338.087 268.887C339.357 269.165 340.685 268.95 341.802 268.284C342.196 268.025 342.574 267.742 342.935 267.439C342.647 267.825 342.29 268.154 341.883 268.41C340.748 269.158 339.364 269.426 338.033 269.157C337.1 268.975 336.234 268.546 335.523 267.915C334.777 267.25 333.985 266.53 333.14 265.784L327.59 260.773L327.428 260.629L327.581 260.468L331.053 256.636L334.534 252.822L334.678 252.66L334.84 252.804L340.345 257.85L342.701 260.018C343.4 260.664 343.91 261.488 344.176 262.402C344.567 263.699 344.432 265.098 343.799 266.296C343.586 266.736 343.29 267.13 342.926 267.457Z" fill="#263238"/>
<path d="M303.024 224.244L289.406 212.983C289.152 212.772 288.941 212.514 288.787 212.223C288.633 211.931 288.538 211.612 288.507 211.284C288.476 210.956 288.51 210.625 288.607 210.31C288.704 209.994 288.862 209.702 289.073 209.448C289.283 209.194 289.541 208.983 289.833 208.829C290.124 208.675 290.443 208.58 290.771 208.549C291.1 208.518 291.431 208.552 291.746 208.649C292.061 208.746 292.354 208.904 292.608 209.115L306.217 220.377L303.024 224.244Z" fill="#A6EC90"/>
<path d="M290.215 240.696L276.615 229.435C276.36 229.225 276.149 228.967 275.994 228.676C275.839 228.385 275.743 228.066 275.711 227.738C275.679 227.41 275.712 227.078 275.809 226.763C275.905 226.447 276.063 226.154 276.273 225.9C276.482 225.644 276.74 225.433 277.032 225.278C277.323 225.123 277.642 225.028 277.971 224.997C278.3 224.966 278.631 225 278.946 225.098C279.262 225.196 279.554 225.355 279.808 225.567L293.426 236.82L290.215 240.696Z" fill="#A6EC90"/>
<path d="M303.024 224.244L289.406 212.983C289.152 212.772 288.941 212.514 288.787 212.223C288.633 211.931 288.538 211.612 288.507 211.284C288.476 210.956 288.51 210.625 288.607 210.31C288.704 209.994 288.862 209.702 289.073 209.448C289.283 209.194 289.541 208.983 289.833 208.829C290.124 208.675 290.443 208.58 290.771 208.549C291.1 208.518 291.431 208.552 291.746 208.649C292.061 208.746 292.354 208.904 292.608 209.115L306.217 220.377L303.024 224.244Z" fill="white"/>
<path d="M290.215 240.696L276.615 229.435C276.36 229.225 276.149 228.967 275.994 228.676C275.839 228.385 275.743 228.066 275.711 227.738C275.679 227.41 275.712 227.078 275.809 226.763C275.905 226.447 276.063 226.154 276.273 225.9C276.482 225.644 276.74 225.433 277.032 225.278C277.323 225.123 277.642 225.028 277.971 224.997C278.3 224.966 278.631 225 278.946 225.098C279.262 225.196 279.554 225.355 279.808 225.567L293.426 236.82L290.215 240.696Z" fill="white"/>
<path d="M303.024 224.245C303.086 224.141 303.155 224.042 303.231 223.948L303.843 223.156L306.118 220.287V220.476L299.723 215.277L295.72 211.984L293.57 210.185L292.464 209.286C292.127 208.996 291.71 208.814 291.268 208.764C290.894 208.716 290.514 208.762 290.163 208.897C289.811 209.032 289.498 209.252 289.253 209.538C289.015 209.817 288.847 210.148 288.763 210.505C288.678 210.861 288.68 211.233 288.767 211.589C288.853 211.924 289.02 212.232 289.253 212.488C289.507 212.754 289.78 213.001 290.071 213.226L291.762 214.629L297.591 219.531L301.54 222.895L302.619 223.795C302.757 223.905 302.886 224.026 303.006 224.155C302.872 224.077 302.745 223.987 302.628 223.885L301.549 222.985C300.551 222.185 299.183 221.096 297.528 219.756L291.537 214.89L289.81 213.478C289.495 213.235 289.195 212.974 288.911 212.695C288.53 212.283 288.287 211.763 288.216 211.207C288.144 210.651 288.248 210.087 288.512 209.592C288.776 209.097 289.188 208.697 289.69 208.447C290.192 208.198 290.759 208.11 291.313 208.197C291.838 208.265 292.334 208.48 292.743 208.818L293.84 209.718L295.981 211.517L299.966 214.836L306.262 220.134L306.37 220.224L306.28 220.323L303.843 223.165L303.195 223.885C303.153 224.011 303.096 224.132 303.024 224.245Z" fill="#263238"/>
<path d="M290.215 240.696C290.276 240.59 290.349 240.49 290.431 240.4C290.593 240.184 290.791 239.923 291.043 239.608L293.318 236.739V236.927L286.923 231.719L282.92 228.436L280.77 226.637L279.664 225.738C279.32 225.453 278.902 225.272 278.459 225.216C278.084 225.172 277.705 225.22 277.354 225.356C277.002 225.493 276.69 225.713 276.444 225.999C276.205 226.277 276.037 226.608 275.954 226.965C275.871 227.323 275.875 227.694 275.967 228.049C276.052 228.383 276.215 228.691 276.444 228.949C276.701 229.212 276.978 229.456 277.271 229.677L278.953 231.09L284.791 235.992L288.74 239.356L289.819 240.256C289.958 240.361 290.085 240.482 290.197 240.615C290.197 240.615 290.071 240.534 289.828 240.346L288.74 239.491L284.719 236.262L278.737 231.396L277.01 229.974C276.691 229.737 276.39 229.475 276.111 229.192C275.831 228.873 275.633 228.49 275.535 228.076C275.426 227.654 275.42 227.212 275.519 226.788C275.618 226.363 275.818 225.969 276.102 225.639C276.399 225.305 276.773 225.049 277.192 224.892C277.61 224.735 278.06 224.683 278.504 224.739C279.029 224.807 279.525 225.022 279.934 225.36C280.303 225.675 280.671 225.972 281.04 226.259L283.181 228.058L287.166 231.369L293.462 236.676L293.561 236.766L293.48 236.864C292.455 238.043 291.636 238.996 291.034 239.698L290.395 240.427C290.305 240.624 290.215 240.705 290.215 240.696Z" fill="#263238"/>
<path d="M333.967 238.52L334.327 238.088C335.087 237.172 335.481 236.008 335.433 234.818C335.385 233.629 334.898 232.5 334.066 231.649C333.234 230.798 332.116 230.286 330.928 230.21C329.74 230.135 328.567 230.503 327.634 231.243L307.701 214.638L284.899 241.92L305.3 258.111C304.667 259.099 304.418 260.285 304.598 261.445C304.779 262.604 305.377 263.658 306.28 264.407C307.247 265.207 308.489 265.597 309.74 265.492C310.991 265.388 312.151 264.799 312.972 263.85C315.852 266.022 319.465 266.986 323.044 266.538C326.623 266.09 329.886 264.264 332.141 261.448L335.415 257.364C337.6 254.622 338.666 251.154 338.397 247.657C338.129 244.161 336.546 240.896 333.967 238.52Z" fill="#A6EC90"/>
<path d="M333.967 238.52L334.138 238.673L334.615 239.131C334.879 239.375 335.122 239.64 335.343 239.923L335.784 240.463L336.234 241.119C337.029 242.266 337.636 243.532 338.033 244.87C338.632 246.89 338.762 249.019 338.415 251.097C338.067 253.175 337.25 255.146 336.027 256.86C335.298 257.895 334.453 258.875 333.625 259.946C332.791 261.076 331.868 262.138 330.864 263.121C328.583 265.255 325.647 266.554 322.534 266.809C319.088 267.108 315.653 266.129 312.883 264.056H313.162C312.32 265.016 311.148 265.623 309.878 265.756C309.219 265.826 308.552 265.763 307.918 265.571C307.283 265.38 306.693 265.064 306.182 264.641C305.238 263.857 304.613 262.755 304.424 261.543C304.236 260.33 304.496 259.091 305.156 258.057L305.201 258.336L289.379 245.716L284.764 242.046L284.584 241.911L284.728 241.731C293.04 231.836 300.802 222.535 307.558 214.476L307.684 214.323L307.828 214.449L327.716 231.099H327.563C328.29 230.527 329.164 230.172 330.084 230.075C331.004 229.979 331.933 230.145 332.763 230.554C333.593 230.964 334.29 231.599 334.773 232.388C335.257 233.177 335.508 234.086 335.496 235.012C335.479 235.982 335.165 236.924 334.597 237.71C334.453 237.908 334.296 238.098 334.129 238.277L333.958 238.466C333.958 238.466 334.174 238.196 334.543 237.674C335.073 236.874 335.354 235.935 335.352 234.976C335.349 234.219 335.166 233.474 334.817 232.803C334.468 232.132 333.964 231.554 333.346 231.117C332.564 230.54 331.62 230.225 330.648 230.217C329.568 230.204 328.517 230.563 327.671 231.234L327.59 231.297L327.509 231.234L307.54 214.683H307.81L285.07 242.028V241.713L289.676 245.383L305.462 257.976L305.615 258.093L305.507 258.255C304.896 259.198 304.651 260.331 304.817 261.442C304.982 262.554 305.547 263.566 306.406 264.29C307.333 265.057 308.523 265.43 309.721 265.331C310.92 265.232 312.032 264.668 312.82 263.76L312.946 263.625L313.09 263.733C315.657 265.649 318.815 266.606 322.014 266.436C325.213 266.267 328.252 264.983 330.603 262.806C331.582 261.834 332.484 260.787 333.301 259.676C334.138 258.614 335.002 257.625 335.721 256.618C337.329 254.369 338.225 251.69 338.292 248.926C338.36 246.163 337.596 243.443 336.099 241.119C335.946 240.885 335.802 240.66 335.658 240.454L335.226 239.914C335.011 239.623 334.777 239.346 334.525 239.086L334.066 238.61C333.994 238.55 333.961 238.52 333.967 238.52Z" fill="#263238"/>
<path d="M311.147 239.043L297.083 227.412L294.807 230.164L308.871 241.795L311.147 239.043Z" fill="#E0E0E0"/>
<path d="M333.967 238.52C333.745 238.894 333.493 239.249 333.211 239.581C332.707 240.256 331.961 241.209 331.025 242.378C329.163 244.726 326.528 247.919 323.587 251.418C320.645 254.917 318.028 258.021 316.04 260.368L313.755 263.067C313.485 263.411 313.184 263.731 312.855 264.02C313.077 263.646 313.33 263.291 313.611 262.959C314.115 262.284 314.861 261.331 315.797 260.162C317.659 257.814 320.294 254.621 323.236 251.167L330.783 242.172L333.076 239.473C333.342 239.128 333.64 238.809 333.967 238.52Z" fill="#263238"/>
<path d="M327.635 231.207C327.399 231.602 327.128 231.976 326.825 232.322C326.276 233.024 325.467 234.031 324.468 235.264C322.454 237.728 319.629 241.092 316.481 244.78C313.333 248.468 310.508 251.742 308.385 254.216C307.378 255.367 306.586 256.33 305.921 257.058C305.631 257.42 305.312 257.757 304.967 258.066C305.212 257.674 305.486 257.302 305.786 256.951C306.335 256.249 307.135 255.241 308.143 254.009C310.157 251.545 312.982 248.18 316.13 244.492L324.226 235.066L326.69 232.214C326.979 231.855 327.295 231.518 327.635 231.207Z" fill="#263238"/>
<path d="M197.018 186.394C197.018 186.769 196.907 187.137 196.698 187.449C196.489 187.761 196.192 188.005 195.844 188.148C195.497 188.291 195.115 188.328 194.747 188.254C194.378 188.18 194.04 187.999 193.775 187.732C193.51 187.466 193.33 187.127 193.258 186.758C193.185 186.39 193.224 186.008 193.369 185.661C193.514 185.314 193.759 185.019 194.072 184.811C194.386 184.604 194.753 184.494 195.129 184.496C195.378 184.496 195.624 184.545 195.854 184.64C196.084 184.736 196.292 184.876 196.468 185.052C196.644 185.228 196.782 185.438 196.877 185.668C196.971 185.898 197.019 186.145 197.018 186.394Z" fill="#263238"/>
<path d="M206.094 178.946C207.142 178.946 207.992 178.096 207.992 177.048C207.992 176 207.142 175.15 206.094 175.15C205.046 175.15 204.196 176 204.196 177.048C204.196 178.096 205.046 178.946 206.094 178.946Z" fill="#263238"/>
<path d="M173.604 199.032C173.606 199.407 173.496 199.775 173.289 200.088C173.081 200.402 172.785 200.646 172.439 200.791C172.092 200.936 171.71 200.975 171.341 200.903C170.973 200.831 170.634 200.651 170.367 200.386C170.101 200.121 169.919 199.783 169.845 199.414C169.771 199.046 169.808 198.664 169.952 198.316C170.095 197.969 170.338 197.672 170.651 197.463C170.963 197.254 171.33 197.143 171.706 197.143C171.955 197.141 172.201 197.189 172.432 197.284C172.662 197.378 172.871 197.517 173.048 197.693C173.224 197.868 173.364 198.077 173.459 198.307C173.555 198.536 173.604 198.783 173.604 199.032Z" fill="#263238"/>
<path d="M180.476 209.79C180.478 210.165 180.368 210.533 180.161 210.846C179.953 211.16 179.657 211.404 179.311 211.549C178.964 211.695 178.582 211.733 178.213 211.661C177.845 211.589 177.506 211.409 177.239 211.144C176.973 210.879 176.791 210.541 176.717 210.172C176.643 209.804 176.68 209.422 176.824 209.074C176.967 208.727 177.21 208.43 177.523 208.221C177.835 208.012 178.202 207.901 178.578 207.901C178.827 207.899 179.074 207.947 179.304 208.042C179.534 208.136 179.743 208.275 179.92 208.451C180.096 208.626 180.236 208.835 180.331 209.065C180.427 209.294 180.476 209.541 180.476 209.79Z" fill="#263238"/>
<path d="M113.715 300.522C109.804 300.522 105.905 300.099 102.084 299.263C94.1508 297.518 87.9353 294.955 83.1949 291.446C77.2751 293.512 71.0683 294.638 64.8001 294.784C44.3994 295.332 25.9326 288.955 3.29218 270.632C2.15281 268.197 1.05542 265.622 0 262.905C21.7949 280.544 45.3889 290.79 64.6832 290.304C69.6119 290.174 74.5021 289.397 79.2281 287.992C73.966 282.505 71.3125 275.336 71.3485 266.629C71.3485 257.086 75.4502 252.759 78.8503 250.816C83.6627 248.055 90.247 248.432 96.0218 251.796C102.39 255.511 106.177 261.79 106.15 268.599C106.106 271.392 105.43 274.138 104.171 276.631C102.912 279.124 101.104 281.298 98.8822 282.991C95.5713 285.532 91.9834 287.689 88.1871 289.423C99.046 295.381 111.643 297.365 123.807 295.035C142.976 291.231 158.987 284.43 171.391 274.824C181.1 267.362 188.897 257.7 194.139 246.634C199.382 235.568 201.919 223.414 201.542 211.175V211.094C200.436 188.921 187.492 167.261 168.549 155.91C152.124 146.06 131.075 143.362 109.289 148.309C95.752 151.385 77.3302 158.68 66.4732 175.977C54.7796 194.615 57.9459 217.741 67.5975 228.49C74.4787 236.163 87.6654 233.393 98.2706 231.189L101.761 230.469C113.157 228.203 159.401 206.516 159.581 206.453L160.561 210.141C159.814 210.401 114.345 232.538 102.633 234.868C101.518 235.084 100.366 235.327 99.1881 235.578C87.4945 238.034 72.8686 241.092 64.2604 231.504C58.0359 224.56 54.5728 214.539 54.5098 203.286C54.4409 192.828 57.2677 182.554 62.6773 173.603C74.3708 155.01 93.935 147.211 108.3 143.919C131.21 138.72 153.428 141.599 170.851 152.015C191 164.158 204.763 187.248 205.986 210.833C206.085 212.038 207.29 229.237 198.088 248.702C192.566 260.361 184.345 270.536 174.108 278.386C161.146 288.424 144.514 295.476 124.635 299.452C121.039 300.167 117.381 300.525 113.715 300.522ZM86.0913 253.47C84.3379 253.442 82.6077 253.873 81.0721 254.72C77.663 256.672 75.855 260.8 75.828 266.665C75.828 275.058 78.4276 281.543 83.9235 286.364C88.2886 284.628 92.3931 282.297 96.1208 279.438C97.8002 278.165 99.1702 276.529 100.128 274.652C101.086 272.775 101.607 270.706 101.653 268.599C101.653 263.409 98.7203 258.588 93.7461 255.691C91.4335 254.292 88.7936 253.526 86.0913 253.47Z" fill="#A6EC90"/>
<path d="M86.7751 293.767C86.1696 293.598 85.5998 293.321 85.093 292.949C83.8136 292.14 82.5959 291.238 81.45 290.25C80.2854 289.289 79.1996 288.236 78.2028 287.102C77.7543 286.656 77.3968 286.128 77.1504 285.546C77.2044 285.546 77.6271 286.085 78.4367 286.895C79.2462 287.704 80.3976 288.784 81.7289 289.908C83.0601 291.033 84.3284 292.004 85.2639 292.661C85.7932 292.993 86.2982 293.363 86.7751 293.767Z" fill="#263238"/>
<path d="M91.4882 291.14C90.7868 291.102 90.0996 290.927 89.4643 290.628C87.9051 289.986 86.45 289.116 85.1467 288.046C83.8376 286.989 82.6572 285.781 81.6296 284.448C81.1699 283.911 80.7993 283.304 80.5322 282.649C80.5862 282.649 81.036 283.261 81.8725 284.223C82.9654 285.475 84.1696 286.625 85.4705 287.659C86.7476 288.705 88.1458 289.593 89.6352 290.304C90.7326 290.88 91.5062 291.069 91.4882 291.14Z" fill="#263238"/>
<path d="M73.5341 275.642C73.397 275.417 73.2997 275.171 73.2462 274.913C73.0364 274.233 72.8623 273.543 72.7245 272.845C71.8163 268.21 72.1547 263.417 73.705 258.956C73.9327 258.284 74.2001 257.627 74.5055 256.986C74.599 256.742 74.7261 256.512 74.8833 256.303C74.9553 256.303 74.5145 257.355 73.9838 259.055C73.3127 261.275 72.8874 263.561 72.7155 265.873C72.5601 268.183 72.6627 270.503 73.0213 272.791C73.3092 274.554 73.606 275.624 73.5341 275.642Z" fill="white"/>
<path d="M62.3355 291.743C61.6345 291.971 60.9046 292.098 60.1677 292.121C56.6193 292.419 53.0495 291.911 49.7245 290.637C49.0241 290.408 48.3584 290.084 47.7456 289.674C48.4547 289.851 49.1518 290.074 49.8324 290.34C51.4918 290.883 53.1953 291.28 54.9236 291.527C56.6545 291.769 58.4029 291.862 60.1497 291.806C60.8764 291.741 61.6063 291.72 62.3355 291.743Z" fill="white"/>
<path d="M186.35 261.907C185.985 262.606 185.544 263.264 185.036 263.868C182.726 266.888 180.062 269.621 177.103 272.008C176.515 272.533 175.869 272.988 175.178 273.366C175.706 272.804 176.274 272.281 176.878 271.801C177.957 270.839 179.423 269.481 180.971 267.906C182.518 266.332 183.831 264.812 184.766 263.706C185.25 263.068 185.779 262.467 186.35 261.907Z" fill="white"/>
<path d="M58.0539 216.113C57.8591 215.732 57.7053 215.331 57.5951 214.917C57.2339 213.816 56.9336 212.696 56.6956 211.562C56.296 209.884 55.9957 208.184 55.7961 206.47C55.3248 202.262 55.4368 198.01 56.1289 193.832C56.4135 192.129 56.798 190.444 57.2803 188.786C57.5993 187.668 57.9745 186.566 58.4047 185.485C58.5374 185.078 58.7123 184.686 58.9264 184.316C58.8397 184.735 58.7194 185.148 58.5666 185.548C58.2967 186.322 57.9549 187.455 57.5861 188.867C57.1468 190.523 56.7955 192.202 56.5337 193.895C56.2259 195.982 56.0367 198.084 55.967 200.192C55.9198 202.294 56.0009 204.396 56.2099 206.488C56.3808 208.192 56.6421 209.886 56.9924 211.562C57.2893 212.992 57.5681 214.143 57.793 214.926C57.9112 215.314 57.9984 215.711 58.0539 216.113Z" fill="white"/>
<path d="M63.4866 175.734C63.2618 176.591 62.8938 177.403 62.3982 178.136C62.0278 178.942 61.5263 179.68 60.9141 180.322C61.1446 179.466 61.5154 178.655 62.0115 177.92C62.3844 177.118 62.8823 176.38 63.4866 175.734Z" fill="white"/>
<path d="M223.364 212.686L215.368 171.579C215.189 170.798 214.714 170.118 214.043 169.681C213.372 169.244 212.557 169.086 211.771 169.239C210.985 169.392 210.289 169.844 209.831 170.501C209.372 171.157 209.187 171.966 209.314 172.757L209.683 174.628L193.141 178.694C191.387 179.124 189.765 179.978 188.418 181.181C187.071 182.383 186.04 183.899 185.414 185.593L175.439 188.049C173.779 188.457 172.349 189.508 171.464 190.97C170.578 192.433 170.309 194.187 170.717 195.847L171.616 199.445L161.856 201.856C161.21 202.015 160.601 202.301 160.064 202.696C159.528 203.09 159.074 203.587 158.73 204.157C158.385 204.727 158.156 205.359 158.056 206.018C157.956 206.676 157.987 207.348 158.146 207.995C158.306 208.642 158.591 209.251 158.986 209.787C159.38 210.324 159.877 210.777 160.447 211.122C161.017 211.466 161.65 211.695 162.308 211.795C162.967 211.895 163.638 211.865 164.285 211.705L174.054 209.304L174.746 212.119C175.155 213.779 176.206 215.209 177.668 216.095C179.131 216.98 180.885 217.249 182.545 216.842L192.7 214.341V214.26C194.031 215.398 195.613 216.203 197.317 216.608C199.02 217.013 200.796 217.007 202.496 216.59L217.176 212.992L217.347 213.891C217.525 214.672 218.001 215.352 218.672 215.789C219.343 216.226 220.158 216.384 220.944 216.231C221.73 216.078 222.425 215.626 222.884 214.969C223.342 214.313 223.528 213.504 223.4 212.713L223.364 212.686Z" fill="#A6EC90"/>
<path d="M223.364 212.686C223.427 212.911 223.454 213.145 223.445 213.379C223.433 214.075 223.186 214.747 222.744 215.286C222.379 215.721 221.905 216.05 221.371 216.24C220.836 216.43 220.26 216.473 219.703 216.365C219.158 216.249 218.654 215.991 218.241 215.616C217.829 215.242 217.523 214.764 217.356 214.233C217.239 213.837 217.185 213.433 217.095 213.019L217.212 213.091L206.418 215.789L203.188 216.599C202.045 216.927 200.861 217.091 199.671 217.085C197.067 217.035 194.561 216.081 192.583 214.386L192.853 214.215V214.287L192.898 214.458H192.727C189.3 215.295 185.711 216.257 181.852 217.111C180.823 217.243 179.777 217.133 178.798 216.79C177.819 216.446 176.934 215.879 176.212 215.133C175.464 214.363 174.917 213.421 174.62 212.389C174.341 211.364 174.108 210.338 173.847 209.304L174.09 209.457L165.85 211.535C165.14 211.688 164.465 211.903 163.7 212.02C162.726 212.139 161.738 211.983 160.847 211.571C159.957 211.158 159.199 210.505 158.66 209.685C158.12 208.865 157.82 207.911 157.794 206.93C157.768 205.948 158.016 204.979 158.51 204.132C158.927 203.445 159.488 202.857 160.154 202.408C160.82 201.959 161.576 201.66 162.369 201.532L171.562 199.274L171.4 199.535C171.22 198.789 171.031 198.015 170.833 197.233C170.6 196.429 170.435 195.608 170.339 194.777C170.216 193.063 170.76 191.367 171.859 190.045C172.396 189.396 173.052 188.856 173.793 188.453C174.53 188.075 175.318 187.802 176.131 187.644L185.36 185.377L185.216 185.512C186.097 183.158 187.732 181.162 189.867 179.836C190.908 179.202 192.044 178.737 193.231 178.46L196.649 177.614L209.638 174.439L209.494 174.664C209.395 174.178 209.305 173.684 209.206 173.198C209.078 172.702 209.044 172.186 209.107 171.678C209.188 171.175 209.385 170.698 209.683 170.284C209.981 169.871 210.372 169.534 210.824 169.299C211.276 169.063 211.777 168.937 212.286 168.93C212.795 168.923 213.299 169.035 213.758 169.258C214.206 169.463 214.602 169.768 214.914 170.15C215.226 170.533 215.446 170.981 215.557 171.462L217.526 181.635C218.75 188.022 219.82 193.599 220.702 198.213C221.583 202.827 222.258 206.425 222.735 208.917C222.959 210.14 223.13 211.085 223.247 211.741C223.301 212.056 223.346 212.29 223.373 212.47C223.381 212.554 223.381 212.638 223.373 212.722C223.343 212.644 223.322 212.562 223.31 212.479C223.31 212.299 223.22 212.065 223.157 211.759L222.573 208.935C222.078 206.452 221.358 202.836 220.441 198.258C219.523 193.679 218.435 188.076 217.176 181.698C216.546 178.508 215.877 175.123 215.17 171.543C215.071 171.119 214.877 170.723 214.603 170.385C214.328 170.047 213.981 169.775 213.587 169.591C213.18 169.398 212.734 169.302 212.284 169.312C211.834 169.323 211.393 169.438 210.996 169.65C210.599 169.862 210.257 170.164 209.998 170.531C209.738 170.899 209.569 171.322 209.503 171.768C209.439 172.234 209.47 172.708 209.593 173.162C209.692 173.648 209.791 174.133 209.881 174.628V174.808L209.701 174.853L196.721 178.064C194.481 178.685 192.071 178.964 190.065 180.232C188.002 181.507 186.42 183.431 185.567 185.701L185.522 185.809H185.414L176.185 188.085C175.409 188.232 174.658 188.489 173.955 188.849C173.268 189.228 172.658 189.731 172.156 190.333C171.127 191.566 170.617 193.149 170.734 194.75C170.827 195.557 170.989 196.355 171.22 197.134C171.409 197.925 171.607 198.699 171.787 199.445L171.841 199.652L171.625 199.706L162.486 201.964C161.747 202.071 161.04 202.342 160.418 202.756C159.796 203.169 159.273 203.716 158.888 204.357C158.444 205.133 158.224 206.017 158.253 206.911C158.282 207.805 158.558 208.674 159.051 209.42C159.545 210.166 160.236 210.76 161.047 211.137C161.858 211.513 162.758 211.657 163.646 211.553C164.33 211.463 165.05 211.238 165.751 211.076L173.982 209.061L174.18 209.016L174.224 209.205C174.485 210.239 174.719 211.283 174.989 212.281C175.268 213.251 175.78 214.138 176.482 214.863C177.16 215.566 177.993 216.103 178.914 216.429C179.835 216.755 180.819 216.863 181.789 216.743C185.576 215.897 189.228 214.944 192.637 214.125L192.52 214.332V214.26L192.394 213.747L192.79 214.089C194.71 215.735 197.143 216.66 199.671 216.707C200.833 216.717 201.991 216.559 203.107 216.239L206.337 215.456L217.131 212.839H217.23V212.938C217.32 213.352 217.374 213.774 217.482 214.143C217.589 214.506 217.767 214.845 218.003 215.142C218.442 215.676 219.047 216.049 219.721 216.203C220.153 216.292 220.598 216.286 221.027 216.186C221.456 216.087 221.858 215.895 222.206 215.625C222.554 215.355 222.84 215.013 223.043 214.622C223.246 214.231 223.361 213.801 223.382 213.361C223.387 213.136 223.381 212.91 223.364 212.686Z" fill="#263238"/>
<path d="M217.499 212.902C217.382 212.902 215.457 204.393 213.2 193.85C210.942 183.308 209.197 174.727 209.323 174.7C209.449 174.673 211.365 183.2 213.631 193.751C215.898 204.303 217.625 212.875 217.499 212.902Z" fill="#263238"/>
<path d="M192.664 214.233C192.547 214.233 190.865 207.856 188.832 199.931C186.799 192.006 185.315 185.539 185.432 185.539C185.549 185.539 187.231 191.917 189.264 199.859C191.297 207.802 192.781 214.233 192.664 214.233Z" fill="#263238"/>
<path d="M174.035 209.304C173.376 207.745 172.896 206.115 172.605 204.447C172.175 202.813 171.844 201.155 171.616 199.481C172.271 201.045 172.748 202.677 173.037 204.348C173.468 205.978 173.801 207.634 174.035 209.304Z" fill="#263238"/>
<path d="M182.904 187.959C182.904 188.022 181.942 188.165 180.395 188.489C179.621 188.651 178.704 188.858 177.696 189.137C176.612 189.415 175.567 189.826 174.584 190.36C173.585 190.814 172.797 191.631 172.38 192.645C172.178 193.531 172.16 194.45 172.326 195.343C172.524 196.9 172.785 197.853 172.722 197.871C172.356 197.086 172.116 196.248 172.011 195.388C171.807 194.452 171.807 193.482 172.011 192.546C172.172 191.979 172.483 191.466 172.911 191.062C173.351 190.64 173.844 190.277 174.377 189.982C175.389 189.424 176.472 189.007 177.597 188.741C178.623 188.48 179.558 188.309 180.296 188.183C181.152 187.993 182.029 187.918 182.904 187.959Z" fill="white"/>
<path d="M206.562 177.048C206.292 177.178 206.004 177.266 205.707 177.309C205.158 177.443 204.349 177.632 203.35 177.848L195.561 179.485C194.149 179.779 192.782 180.257 191.495 180.907C190.452 181.449 189.533 182.203 188.796 183.119C188.138 183.986 187.68 184.987 187.456 186.052C187.41 185.751 187.431 185.444 187.519 185.152C187.717 184.348 188.075 183.593 188.571 182.93C189.303 181.949 190.239 181.139 191.315 180.556C192.624 179.858 194.027 179.353 195.48 179.054C198.538 178.397 201.299 177.911 203.314 177.542C204.313 177.363 205.113 177.228 205.698 177.138C205.982 177.076 206.271 177.046 206.562 177.048Z" fill="white"/>
<path d="M169.907 201.721C169.385 202.075 168.793 202.311 168.171 202.414C167.047 202.719 165.473 202.845 163.772 203.205C162.987 203.365 162.228 203.631 161.515 203.997C160.939 204.296 160.419 204.692 159.977 205.166C159.595 205.638 159.266 206.151 158.996 206.695C159.036 206.052 159.296 205.442 159.734 204.968C160.171 204.427 160.708 203.975 161.317 203.637C162.051 203.217 162.846 202.913 163.674 202.737C165.41 202.369 166.993 202.297 168.099 202.072C169.205 201.847 169.88 201.64 169.907 201.721Z" fill="white"/>
<path d="M213.299 170.05C213.299 170.122 212.966 170.113 212.489 170.239C211.882 170.403 211.335 170.741 210.915 171.21C210.511 171.698 210.263 172.297 210.205 172.928C210.151 173.414 210.205 173.738 210.142 173.747C210.079 173.756 209.917 173.468 209.89 172.919C209.859 172.191 210.103 171.479 210.573 170.922C211.051 170.375 211.714 170.023 212.435 169.933C212.984 169.87 213.308 169.996 213.299 170.05Z" fill="white"/>
<path d="M215.754 99.2677C215.754 102.524 213.407 104.485 209.521 104.485H205.419V109.306H203.809V94.0146H209.521C213.407 94.0326 215.754 96.0026 215.754 99.2677ZM214.144 99.2677C214.144 96.8301 212.534 95.4359 209.476 95.4359H205.419V103.064H209.476C212.534 103.064 214.144 101.669 214.144 99.2677Z" fill="#263238"/>
<path d="M227.466 102.191V109.306H225.982V107.507C225.555 108.148 224.965 108.662 224.272 108.996C223.579 109.33 222.808 109.471 222.042 109.405C219.442 109.405 217.85 108.047 217.85 106.068C217.85 104.269 218.983 102.821 222.276 102.821H225.874V102.119C225.874 100.158 224.767 99.0881 222.626 99.0881C221.235 99.0689 219.882 99.5474 218.813 100.437L218.111 99.286C219.441 98.2461 221.091 97.6994 222.779 97.7388C225.793 97.7478 227.466 99.223 227.466 102.191ZM225.919 105.852V103.981H222.321C220.099 103.981 219.379 104.881 219.379 106.032C219.379 107.363 220.45 108.191 222.276 108.191C223.052 108.238 223.824 108.036 224.479 107.616C225.134 107.196 225.638 106.578 225.919 105.852Z" fill="#263238"/>
<path d="M242.344 97.8288V107.903C242.344 111.852 240.401 113.642 236.605 113.642C234.664 113.712 232.765 113.072 231.262 111.843L232.044 110.665C233.308 111.707 234.904 112.262 236.542 112.23C239.447 112.23 240.779 110.899 240.779 108.065V106.608C240.278 107.329 239.603 107.911 238.817 108.299C238.03 108.688 237.158 108.87 236.281 108.83C234.807 108.83 233.393 108.244 232.35 107.202C231.308 106.159 230.722 104.745 230.722 103.271C230.722 101.796 231.308 100.383 232.35 99.34C233.393 98.2975 234.807 97.7118 236.281 97.7118C237.163 97.6779 238.04 97.87 238.827 98.2699C239.614 98.6697 240.286 99.2641 240.779 99.9966V97.8288H242.344ZM240.833 103.28C240.861 102.413 240.63 101.558 240.17 100.823C239.709 100.088 239.04 99.5081 238.247 99.1564C237.455 98.8047 236.575 98.6977 235.721 98.8491C234.868 99.0005 234.078 99.4033 233.455 100.006C232.832 100.609 232.403 101.384 232.223 102.232C232.043 103.08 232.12 103.963 232.445 104.767C232.77 105.571 233.327 106.259 234.046 106.745C234.765 107.23 235.612 107.489 236.479 107.489C237.048 107.526 237.618 107.443 238.154 107.247C238.689 107.05 239.177 106.744 239.587 106.347C239.997 105.951 240.319 105.473 240.534 104.945C240.748 104.417 240.85 103.85 240.833 103.28Z" fill="#263238"/>
<path d="M256.664 104.044H247.039C247.071 104.602 247.213 105.148 247.457 105.651C247.7 106.154 248.041 106.604 248.458 106.975C248.876 107.346 249.363 107.631 249.891 107.813C250.42 107.996 250.979 108.072 251.536 108.038C252.197 108.061 252.855 107.939 253.463 107.679C254.07 107.42 254.614 107.029 255.053 106.536L255.953 107.534C255.131 108.392 254.075 108.989 252.916 109.252C251.757 109.515 250.546 109.431 249.434 109.011C248.323 108.591 247.359 107.854 246.663 106.891C245.967 105.928 245.569 104.782 245.519 103.594C245.479 102.837 245.596 102.08 245.861 101.37C246.126 100.659 246.535 100.011 247.061 99.4656C247.588 98.9199 248.221 98.4881 248.921 98.1972C249.621 97.9064 250.374 97.7625 251.132 97.7746C254.352 97.7746 256.691 100.149 256.691 103.594C256.691 103.693 256.664 103.873 256.664 104.044ZM247.039 102.893H255.134C255.02 101.9 254.544 100.984 253.797 100.319C253.051 99.6537 252.086 99.2862 251.087 99.2862C250.087 99.2862 249.122 99.6537 248.376 100.319C247.63 100.984 247.154 101.9 247.039 102.893Z" fill="#263238"/>
<path d="M276.12 102.695V109.351H274.573V102.848C274.573 100.428 273.305 99.187 271.128 99.187C268.663 99.187 267.107 100.707 267.107 103.325V109.351H265.56V97.8288H267.044V99.9426C267.509 99.2208 268.159 98.6366 268.926 98.2507C269.694 97.8648 270.55 97.6911 271.407 97.7478C274.195 97.7478 276.12 99.3579 276.12 102.695Z" fill="#263238"/>
<path d="M279.214 103.594C279.216 102.441 279.56 101.313 280.202 100.354C280.844 99.3959 281.756 98.649 282.822 98.2083C283.889 97.7675 285.062 97.6527 286.193 97.8782C287.325 98.1038 288.364 98.6596 289.18 99.4755C289.996 100.291 290.552 101.331 290.777 102.462C291.003 103.594 290.888 104.767 290.447 105.833C290.007 106.9 289.26 107.811 288.301 108.454C287.342 109.096 286.215 109.439 285.061 109.441C284.286 109.47 283.512 109.339 282.79 109.055C282.067 108.772 281.411 108.342 280.862 107.793C280.314 107.244 279.884 106.588 279.6 105.866C279.317 105.143 279.185 104.37 279.214 103.594ZM289.316 103.594C289.272 102.759 288.984 101.955 288.487 101.282C287.99 100.609 287.307 100.097 286.522 99.8086C285.737 99.5203 284.885 99.4687 284.07 99.6603C283.256 99.8519 282.516 100.278 281.942 100.886C281.368 101.495 280.985 102.258 280.841 103.082C280.696 103.905 280.797 104.754 281.13 105.521C281.463 106.288 282.014 106.94 282.714 107.398C283.415 107.855 284.234 108.096 285.07 108.092C285.652 108.102 286.23 107.991 286.767 107.765C287.303 107.54 287.787 107.204 288.187 106.781C288.586 106.358 288.893 105.856 289.088 105.307C289.282 104.758 289.36 104.175 289.316 103.594Z" fill="#263238"/>
<path d="M300.11 108.605C299.426 109.155 298.567 109.442 297.69 109.414C297.238 109.465 296.781 109.414 296.351 109.265C295.922 109.115 295.532 108.872 295.209 108.552C294.886 108.231 294.639 107.843 294.486 107.415C294.334 106.986 294.279 106.529 294.326 106.077V99.142H292.284V97.8287H294.326V95.3281H295.882V97.8287H299.363V99.142H295.882V105.987C295.834 106.263 295.851 106.546 295.932 106.814C296.012 107.082 296.154 107.328 296.346 107.531C296.539 107.735 296.776 107.89 297.038 107.986C297.301 108.082 297.583 108.115 297.861 108.083C298.481 108.101 299.087 107.889 299.561 107.489L300.11 108.605Z" fill="#263238"/>
<path d="M310.373 96.4794V97.8286H313.908V99.1419H310.418V109.306H308.871V99.1419H306.82V97.8286H308.871V96.3984C308.833 95.9369 308.897 95.4726 309.058 95.0385C309.22 94.6045 309.475 94.2112 309.805 93.8868C310.136 93.5623 310.534 93.3145 310.971 93.161C311.408 93.0074 311.873 92.9519 312.334 92.9983C313.158 92.9681 313.968 93.2222 314.628 93.7179L314.106 94.8693C313.62 94.4923 313.02 94.2923 312.406 94.3026C311.074 94.3206 310.373 95.0582 310.373 96.4794Z" fill="#263238"/>
<path d="M314.646 103.594C314.647 102.441 314.991 101.313 315.633 100.354C316.275 99.3959 317.187 98.649 318.254 98.2083C319.32 97.7675 320.493 97.6527 321.625 97.8782C322.756 98.1038 323.795 98.6596 324.611 99.4755C325.427 100.291 325.983 101.331 326.209 102.462C326.434 103.594 326.319 104.767 325.879 105.833C325.438 106.9 324.691 107.811 323.732 108.454C322.774 109.096 321.646 109.439 320.492 109.441C319.717 109.469 318.945 109.337 318.223 109.052C317.501 108.768 316.845 108.339 316.297 107.79C315.748 107.242 315.318 106.586 315.034 105.864C314.75 105.142 314.618 104.37 314.646 103.594ZM324.747 103.594C324.703 102.76 324.415 101.956 323.919 101.283C323.423 100.61 322.74 100.098 321.955 99.8094C321.171 99.5207 320.319 99.4686 319.505 99.6595C318.691 99.8503 317.951 100.276 317.377 100.883C316.802 101.49 316.418 102.253 316.273 103.076C316.127 103.899 316.227 104.747 316.558 105.514C316.89 106.282 317.44 106.935 318.139 107.393C318.838 107.851 319.656 108.094 320.492 108.092C321.075 108.102 321.653 107.991 322.19 107.765C322.727 107.54 323.211 107.205 323.612 106.781C324.012 106.358 324.32 105.856 324.515 105.308C324.711 104.759 324.79 104.175 324.747 103.594Z" fill="#263238"/>
<path d="M339.814 97.8285V109.306H338.33V107.192C337.905 107.896 337.298 108.473 336.573 108.861C335.848 109.248 335.031 109.433 334.21 109.396C331.287 109.396 329.371 107.759 329.371 104.467V97.8105H330.918V104.314C330.918 106.752 332.177 107.993 334.363 107.993C336.756 107.993 338.267 106.446 338.267 103.828V97.8285H339.814Z" fill="#263238"/>
<path d="M354.709 102.695V109.351H353.18V102.848C353.18 100.428 351.912 99.187 349.726 99.187C347.27 99.187 345.714 100.707 345.714 103.325V109.351H344.185V97.8288H345.669V99.9426C346.134 99.2208 346.784 98.6366 347.551 98.2507C348.319 97.8648 349.175 97.6911 350.032 97.7478C352.784 97.7478 354.709 99.3579 354.709 102.695Z" fill="#263238"/>
<path d="M369.425 93.1243V109.315H367.941V107.04C367.483 107.795 366.831 108.415 366.053 108.834C365.275 109.253 364.399 109.457 363.516 109.423C361.965 109.423 360.478 108.807 359.381 107.711C358.285 106.614 357.669 105.127 357.669 103.576C357.669 102.026 358.285 100.539 359.381 99.4422C360.478 98.3457 361.965 97.7297 363.516 97.7297C364.376 97.7008 365.23 97.8942 365.994 98.2912C366.758 98.6882 367.407 99.2756 367.878 99.9965V93.1243H369.425ZM367.896 103.594C367.852 102.759 367.564 101.955 367.067 101.282C366.571 100.609 365.888 100.097 365.103 99.8087C364.317 99.5204 363.465 99.4688 362.651 99.6604C361.837 99.8519 361.097 100.278 360.523 100.886C359.949 101.495 359.566 102.258 359.421 103.082C359.277 103.906 359.377 104.754 359.71 105.521C360.043 106.288 360.594 106.941 361.295 107.398C361.995 107.855 362.814 108.096 363.651 108.092C364.232 108.101 364.81 107.989 365.346 107.763C365.881 107.537 366.365 107.201 366.764 106.778C367.163 106.355 367.47 105.854 367.665 105.305C367.86 104.757 367.939 104.175 367.896 103.594Z" fill="#263238"/>
<path d="M261.431 73.578H253.435V83.8773H242.371V73.578H215.935V65.9502L239.061 34.8364H250.97L229.535 64.3311H242.704V55.1562H253.417V64.3311H261.431V73.578Z" fill="#263238"/>
<path d="M264.795 59.3569C264.795 43.1659 273.79 34 285.817 34C297.843 34 306.829 43.1749 306.829 59.3569C306.829 75.539 297.933 84.7049 285.817 84.7049C273.7 84.7049 264.795 75.548 264.795 59.3569ZM295.378 59.3569C295.378 48.2211 291.457 43.5977 285.781 43.5977C280.105 43.5977 276.246 48.2211 276.246 59.3569C276.246 70.4928 280.177 75.1252 285.781 75.1252C291.385 75.1252 295.414 70.5018 295.414 59.3569H295.378Z" fill="#263238"/>
<path d="M357.3 73.578H349.312V83.8773H338.24V73.578H311.803V65.9502L334.92 34.8364H346.884L325.422 64.3311H338.59V55.1562H349.312V64.3311H357.3V73.578Z" fill="#263238"/>
<path d="M344.347 163.987C344.299 164.031 344.244 164.067 344.185 164.095L343.672 164.374L341.685 165.408L334.309 169.177L309.554 181.644L309.392 181.734L309.276 181.581C308.592 180.601 307.863 179.566 307.117 178.523L304.049 174.169L304.337 174.232L281.265 187.554L274.393 191.476L272.522 192.51C272.324 192.618 272.171 192.708 272.036 192.771C271.901 192.834 271.865 192.861 271.865 192.852C271.865 192.843 271.865 192.852 272.018 192.735L272.486 192.438L274.285 191.332L281.094 187.302L304.085 173.855L304.256 173.747L304.373 173.918C305.363 175.303 306.397 176.778 307.459 178.262C308.196 179.315 308.925 180.349 309.617 181.32L309.338 181.248L334.147 168.907L341.586 165.264L343.609 164.293L344.131 164.059L344.347 163.987Z" fill="#263238"/>
<path d="M337.79 196.477C337.633 196.538 337.47 196.584 337.304 196.612L335.883 196.927L330.612 198.042L312.973 201.46L312.757 201.505V201.289L312.361 199.104C312.28 198.609 312.19 198.114 312.109 197.664L312.361 197.844C305.21 199.068 298.869 200.543 294.371 201.766C292.095 202.36 290.278 202.873 288.974 203.223L287.526 203.628C287.359 203.682 287.187 203.718 287.013 203.736C287.168 203.654 287.331 203.588 287.499 203.538L288.92 203.061C290.17 202.657 291.978 202.099 294.245 201.469C300.184 199.81 306.204 198.453 312.28 197.404H312.496V197.619C312.577 198.078 312.667 198.573 312.757 199.059C312.892 199.814 313.018 200.552 313.144 201.244L312.883 201.065L330.549 197.781L335.838 196.882L337.277 196.648C337.439 196.565 337.612 196.508 337.79 196.477Z" fill="#263238"/>
<path d="M277.487 165.255C277.595 165.309 275.311 170.257 272.369 176.301C269.428 182.346 266.972 187.203 266.855 187.149C266.738 187.095 269.041 182.157 271.974 176.103C274.906 170.05 277.38 165.201 277.487 165.255Z" fill="#263238"/>
<path d="M304.346 189.506C304.346 189.623 298.688 191.386 291.636 193.446C284.584 195.506 278.827 197.044 278.8 196.963C278.773 196.882 284.449 195.083 291.51 193.023C298.571 190.963 304.31 189.389 304.346 189.506Z" fill="#263238"/>
<path d="M260.325 149.775C260.478 150.061 260.602 150.363 260.693 150.674C260.927 151.34 261.233 152.222 261.593 153.301C262.376 155.622 263.437 158.824 264.696 162.593L264.786 162.863H264.498L257.473 162.719L257.698 162.458C257.86 163.357 258.04 164.257 258.22 165.255C259.371 171.552 260.406 177.327 261.179 181.554C261.53 183.596 261.818 185.269 262.025 186.502C262.106 187.041 262.178 187.491 262.232 187.851C262.269 188.007 262.284 188.167 262.277 188.328C262.212 188.181 262.167 188.027 262.142 187.869C262.07 187.509 261.971 187.068 261.854 186.529L260.873 181.608C260.073 177.39 258.984 171.66 257.779 165.327C257.608 164.374 257.428 163.438 257.266 162.539L257.212 162.278H257.482L264.507 162.458L264.318 162.728L261.368 153.382C261.035 152.285 260.765 151.394 260.568 150.683C260.467 150.386 260.386 150.083 260.325 149.775Z" fill="#263238"/>
<path d="M229.265 217.552C229.211 217.444 233.763 215.196 239.456 212.533C245.15 209.87 249.783 207.802 249.837 207.91C249.891 208.017 245.339 210.275 239.645 212.938C233.952 215.6 229.319 217.66 229.265 217.552Z" fill="#263238"/>
<path d="M250.475 224.074C251.651 222.311 252.95 220.634 254.361 219.054C255.667 217.385 257.082 215.804 258.598 214.323C257.423 216.088 256.121 217.766 254.703 219.342C253.404 221.015 251.992 222.596 250.475 224.074Z" fill="#263238"/>
<path d="M261.908 254.963C261.791 254.963 262.564 246.192 263.653 235.398C264.741 224.604 265.713 215.861 265.838 215.879C265.964 215.897 265.173 224.649 264.093 235.443C263.014 246.237 262.034 254.972 261.908 254.963Z" fill="#263238"/>
<path d="M246.301 177.461C247.121 178.612 247.817 179.845 248.379 181.14C249.074 182.369 249.635 183.669 250.052 185.017C249.238 183.866 248.544 182.633 247.983 181.338C247.291 180.107 246.727 178.808 246.301 177.461Z" fill="#263238"/>
</svg>
