<svg width="175" height="28" viewBox="0 0 175 28" fill="none" xmlns="http://www.w3.org/2000/svg">
<path d="M1.04492 4.55011V1.69297C1.04492 1.33583 1.17888 1.04297 1.35303 1.04297H25.044C25.2115 1.04297 25.3522 1.33583 25.3522 1.69297V4.55011H1.04492Z" fill="#3A9E1B"/>
<path d="M25.3321 6.05005H1.07178V13.6286H25.3321V6.05005Z" fill="#3A9E1B"/>
<path d="M1.07178 26.4286V16.2214H25.3321V26.4286C25.3321 26.7214 25.1982 26.9571 25.024 26.9571H1.37989C1.20574 26.9571 1.07178 26.7214 1.07178 26.4286Z" fill="#3A9E1B"/>
<path d="M54.991 2.44993V0.978502C54.991 0.871359 54.9106 0.785645 54.8101 0.785645H51.0324C50.9319 0.785645 50.8516 0.871359 50.8516 0.978502V2.44993V4.10707C50.8516 4.21422 50.9319 4.29993 51.0324 4.29993H54.8101C54.9106 4.29993 54.991 4.21422 54.991 4.10707V2.44993Z" fill="#3A9E1B"/>
<path d="M74.2948 18.6499C74.1542 18.4999 74.0872 18.207 74.0872 17.757V12.3784C74.0872 10.2213 73.5312 8.58558 72.4194 7.4713C71.3075 6.35701 69.6531 5.79272 67.4494 5.79272C65.5204 5.79272 63.9664 6.23558 62.7809 7.12844C62.2584 7.5213 61.9436 7.90701 61.8498 8.02844C60.9992 9.09273 60.7313 10.2784 60.6375 10.9927C60.6241 11.107 60.7045 11.207 60.8116 11.207H64.6563C64.7434 11.207 64.8171 11.1427 64.8305 11.0499C64.8841 10.7142 65.0582 10.0642 65.6007 9.56415C66.2705 8.94987 67.0609 8.99272 67.4494 8.99272C68.2599 8.99272 68.8761 9.24987 69.3115 9.7713C69.72 10.2642 69.9344 10.9784 69.9545 11.9142C69.9545 12.007 69.8942 12.0927 69.8138 12.107L65.1922 13.0784C63.5913 13.4284 62.3857 13.9856 61.5685 14.7356C60.7514 15.4927 60.3428 16.5999 60.3428 17.9499C60.3428 19.2999 60.825 20.357 61.7896 21.107C62.7541 21.8642 63.9999 22.2356 65.5204 22.2356C66.4916 22.2356 67.3556 22.0856 68.0991 21.7927C68.8426 21.4999 69.4521 21.0856 69.921 20.557C70.1018 20.3499 70.2626 20.1284 70.4032 19.8999C70.4836 19.7642 70.6779 19.7927 70.7248 19.9499C70.7984 20.207 70.8922 20.4356 71.0128 20.6356C71.3276 21.157 71.7362 21.5213 72.2385 21.7356C72.7409 21.9499 73.2901 22.057 73.8795 22.057C74.1542 22.057 74.4355 22.0356 74.7168 21.9999C74.911 21.9713 75.0718 21.9427 75.1924 21.9213C75.2727 21.8999 75.333 21.8284 75.333 21.7356V19.0499C75.333 18.9427 75.2526 18.857 75.1522 18.857H74.9177C74.6364 18.8713 74.4288 18.7999 74.2948 18.6499ZM69.9545 15.6142C69.9545 16.357 69.8071 17.007 69.5124 17.557C69.2177 18.107 68.8158 18.5213 68.3001 18.807C67.7843 19.0927 67.1882 19.2356 66.5117 19.2356C65.8888 19.2356 65.4065 19.0856 65.0783 18.7927C64.7501 18.4999 64.5826 18.0642 64.5826 17.557C64.5826 17.0499 64.7501 16.6284 65.0917 16.307C65.4333 15.9856 65.9289 15.757 66.5921 15.6142L69.7401 14.8999C69.854 14.8713 69.9545 14.9642 69.9545 15.0856V15.6142Z" fill="#3A9E1B"/>
<path d="M86.9273 7.87862C86.9273 8.06434 86.6996 8.14291 86.5991 7.98576C86.2441 7.42148 85.7886 6.94291 85.2327 6.56433C84.4892 6.05719 83.5783 5.80005 82.4932 5.80005C81.3009 5.80005 80.2359 6.12862 79.3116 6.78576C78.3806 7.44291 77.6572 8.35005 77.1347 9.50005C76.6123 10.6572 76.3511 11.95 76.3511 13.4929C76.3511 15.0358 76.6123 16.3929 77.1347 17.5358C77.6572 18.6786 78.3873 19.5715 79.325 20.2072C80.2627 20.8429 81.3344 21.1643 82.5468 21.1643C83.5046 21.1643 84.3686 20.9429 85.1389 20.5C85.7082 20.1786 86.157 19.7715 86.4986 19.2929C86.5991 19.1501 86.8201 19.2215 86.8201 19.4072V20.4286C86.8201 21.5286 86.5589 22.3215 86.0365 22.8215C85.514 23.3215 84.7571 23.5715 83.7658 23.5715C82.9219 23.5715 82.2922 23.4215 81.877 23.1286C81.4952 22.8572 81.2273 22.5 81.0732 22.0429C81.0464 21.9715 80.9794 21.9215 80.9057 21.9215C79.6264 21.9143 78.3404 21.9072 77.0611 21.9072C76.9539 21.9072 76.8735 22.0072 76.8802 22.1215C76.9137 22.4715 77.0075 22.9501 77.2419 23.4643C77.3089 23.6215 77.5299 24.0286 77.9586 24.5429C78.5212 25.2072 79.2714 25.7286 80.2158 26.1C81.1603 26.4715 82.3391 26.6572 83.7524 26.6572C85.1858 26.6572 86.445 26.4215 87.5234 25.95C88.6085 25.4786 89.4525 24.7786 90.0553 23.85C90.6648 22.9215 90.9662 21.7501 90.9662 20.3358V6.33576C90.9662 6.22862 90.8858 6.14291 90.7854 6.14291H87.088C86.9876 6.14291 86.9072 6.22862 86.9072 6.33576V7.87862H86.9273ZM86.0097 16.7286C85.447 17.5143 84.6901 17.9072 83.739 17.9072C82.7812 17.9072 82.0243 17.5072 81.455 16.7143C80.8857 15.9215 80.5976 14.8215 80.5976 13.4643C80.5976 12.1072 80.8723 11.0358 81.4215 10.2358C81.9707 9.43576 82.741 9.02862 83.739 9.02862C84.382 9.02862 84.938 9.20719 85.4068 9.55719C85.8757 9.90719 86.2307 10.4215 86.4785 11.0858C86.7264 11.75 86.8536 12.5429 86.8536 13.4643C86.8469 14.8572 86.5656 15.9429 86.0097 16.7286Z" fill="#3A9E1B"/>
<path d="M104.028 6.82862C102.943 6.14291 101.704 5.80005 100.196 5.80005C98.6894 5.80005 97.3833 6.14291 96.2848 6.82862C95.1863 7.51433 94.3223 8.47148 93.7061 9.69291C93.0899 10.9143 92.7817 12.3643 92.7817 14.0286C92.7817 15.6929 93.0899 17.1429 93.7061 18.3786C94.3223 19.6143 95.1863 20.5643 96.2982 21.2429C97.4101 21.9215 98.7162 22.2572 100.223 22.2572C102.005 22.2572 103.519 21.8143 104.771 20.9358C105.675 20.3 106.151 19.6072 106.252 19.4572C106.821 18.6286 107.069 17.7929 107.183 17.2358C107.209 17.1143 107.122 17.0072 107.008 17.0072C106.258 17.0072 103.773 17.0072 103.191 17C103.117 17 103.05 17.05 103.023 17.1215C102.815 17.7072 102.494 18.15 102.059 18.4429C101.59 18.7572 101.007 18.9143 100.31 18.9143C99.3525 18.9143 98.589 18.6072 98.0129 18C97.4637 17.4286 97.1556 16.5643 97.0752 15.4143C97.0685 15.3072 97.1489 15.2072 97.256 15.2072H107.276C107.377 15.2072 107.457 15.1215 107.457 15.0143V14.3215C107.457 12.5572 107.156 11.0429 106.56 9.76433C105.957 8.49291 105.113 7.51433 104.028 6.82862ZM97.0618 12.5C97.169 11.4 97.5039 10.5572 98.0665 9.95719C98.6291 9.35719 99.3391 9.06433 100.203 9.06433C101.067 9.06433 101.771 9.35005 102.313 9.91433C102.822 10.45 103.117 11.2429 103.197 12.2929C103.204 12.4 103.124 12.5 103.016 12.5H97.0618Z" fill="#3A9E1B"/>
<path d="M114.919 7.20705C114.651 7.52133 114.416 7.91419 114.222 8.3999C114.148 8.58562 113.887 8.53562 113.88 8.33562L113.82 6.33562C113.82 6.23562 113.74 6.1499 113.639 6.1499H110.076C109.975 6.1499 109.895 6.23562 109.895 6.34276V21.7142C109.895 21.8213 109.975 21.907 110.076 21.907H113.854C113.954 21.907 114.034 21.8213 114.034 21.7142V13.057C114.034 12.257 114.162 11.6142 114.41 11.1499C114.657 10.6785 115.032 10.3356 115.528 10.1213C116.024 9.90705 116.66 9.7999 117.43 9.7999H118.602C118.703 9.7999 118.783 9.71419 118.783 9.60705V6.34276C118.783 6.23562 118.703 6.1499 118.602 6.1499H117.43C116.359 6.1499 115.521 6.50705 114.919 7.20705Z" fill="#3A9E1B"/>
<path d="M133.753 18.6499C133.613 18.4999 133.546 18.207 133.546 17.757V12.3784C133.546 10.2213 132.99 8.58558 131.878 7.4713C130.766 6.35701 129.112 5.79272 126.908 5.79272C124.979 5.79272 123.425 6.23558 122.24 7.12844C121.71 7.5213 121.402 7.90701 121.308 8.02844C120.458 9.09273 120.21 10.2856 120.13 10.9927C120.116 11.107 120.197 11.207 120.304 11.207H124.028C124.108 11.207 124.182 11.1499 124.202 11.0642C124.276 10.7356 124.483 10.0713 125.066 9.5713C125.776 8.95701 126.573 8.99987 126.915 8.99987C127.725 8.99987 128.341 9.25701 128.777 9.77844C129.185 10.2713 129.4 10.9856 129.42 11.9213C129.42 12.0142 129.36 12.0999 129.279 12.1142L124.657 13.0856C123.057 13.4356 121.851 13.9927 121.034 14.7427C120.217 15.4999 119.808 16.607 119.808 17.957C119.808 19.307 120.29 20.3642 121.255 21.1142C122.219 21.8713 123.465 22.2427 124.986 22.2427C125.957 22.2427 126.821 22.0927 127.564 21.7999C128.308 21.507 128.917 21.0927 129.386 20.5642C129.567 20.357 129.728 20.1356 129.869 19.907C129.949 19.7713 130.143 19.7999 130.19 19.957C130.264 20.2142 130.358 20.4427 130.478 20.6427C130.793 21.1642 131.201 21.5284 131.704 21.7427C132.206 21.957 132.755 22.0642 133.345 22.0642C133.619 22.0642 133.901 22.0427 134.182 22.007C134.376 21.9784 134.537 21.9499 134.658 21.9284C134.738 21.907 134.798 21.8356 134.798 21.7427V19.057C134.798 18.9499 134.718 18.8642 134.618 18.8642H134.383C134.095 18.8713 133.887 18.7999 133.753 18.6499ZM129.413 15.6142C129.413 16.357 129.266 17.007 128.971 17.557C128.676 18.107 128.274 18.5213 127.759 18.807C127.243 19.0927 126.647 19.2356 125.97 19.2356C125.347 19.2356 124.865 19.0856 124.537 18.7927C124.209 18.4999 124.041 18.0642 124.041 17.557C124.041 17.0499 124.209 16.6284 124.55 16.307C124.892 15.9856 125.388 15.757 126.051 15.6142L129.199 14.8999C129.313 14.8713 129.413 14.9642 129.413 15.0856V15.6142Z" fill="#3A9E1B"/>
<path d="M153.881 13.5999C152.95 13.1784 151.698 12.8499 150.124 12.6142C149.441 12.5142 148.905 12.3856 148.496 12.2284C148.094 12.0713 147.799 11.8713 147.625 11.6284C147.451 11.3856 147.364 11.0642 147.364 10.6713C147.364 10.1427 147.558 9.71415 147.954 9.39272C148.349 9.0713 148.911 8.90701 149.648 8.90701C150.144 8.90701 150.566 9.00701 150.914 9.21415C151.041 9.28558 151.155 9.3713 151.269 9.46415C151.316 9.50701 151.55 9.70701 151.785 10.0642C152.019 10.4142 152.153 10.7713 152.234 11.0713C152.254 11.1499 152.327 11.207 152.408 11.207C153.66 11.1999 154.913 11.1999 156.165 11.1999C156.273 11.1999 156.36 11.0927 156.34 10.9784C156.192 10.0284 155.877 9.17844 155.395 8.4213C154.873 7.60701 154.136 6.96415 153.191 6.49987C152.247 6.02844 151.075 5.79272 149.682 5.79272C147.498 5.79272 145.857 6.25701 144.765 7.18558C143.673 8.11415 143.124 9.33558 143.124 10.8427C143.124 11.7427 143.305 12.507 143.673 13.1356C144.042 13.7642 144.665 14.2713 145.549 14.6642C146.433 15.057 147.652 15.3999 149.213 15.6927C150.057 15.8284 150.693 15.9856 151.128 16.1499C151.557 16.3142 151.852 16.5142 151.999 16.7356C152.147 16.9642 152.22 17.2427 152.22 17.5713C152.22 18.0999 152.013 18.4927 151.597 18.7499C151.182 19.007 150.613 19.1356 149.876 19.1356C148.978 19.1356 148.295 18.9284 147.84 18.5213C147.411 18.1356 147.13 17.6142 146.989 16.9427C146.969 16.857 146.895 16.7927 146.808 16.7999L142.957 16.9356C142.85 16.9427 142.776 17.0356 142.783 17.1499C142.883 18.107 143.185 18.9499 143.687 19.6927C144.229 20.4856 145.013 21.1142 146.045 21.5713C147.076 22.0284 148.349 22.2642 149.876 22.2642C151.216 22.2642 152.381 22.0784 153.359 21.707C154.343 21.3356 155.107 20.7927 155.656 20.0927C156.206 19.3927 156.48 18.5284 156.48 17.507C156.48 16.5856 156.279 15.8142 155.871 15.1856C155.475 14.5427 154.806 14.0213 153.881 13.5999Z" fill="#3A9E1B"/>
<path d="M172.261 14.0285C172.261 12.2642 171.959 10.7499 171.363 9.47137C170.767 8.19994 169.923 7.22137 168.845 6.53565C167.76 5.84994 166.52 5.50708 165.013 5.50708C163.506 5.50708 162.2 5.84994 161.102 6.53565C160.003 7.22137 159.139 8.17851 158.523 9.39994C157.907 10.6214 157.599 12.0714 157.599 13.7357C157.599 15.3999 157.907 16.8499 158.523 18.0857C159.139 19.3214 160.003 20.2714 161.115 20.9499C162.227 21.6285 163.533 21.9642 165.04 21.9642C166.822 21.9642 168.336 21.5214 169.588 20.6428C170.774 19.8071 171.564 18.6642 171.973 17.2142C172.006 17.0928 171.919 16.9714 171.799 16.9714C170.519 16.9785 169.24 16.9857 167.961 16.9999C167.9 16.9999 167.84 17.0357 167.806 17.0928C167.652 17.3714 167.364 17.8071 166.869 18.1499C166.165 18.6285 165.476 18.6214 165.121 18.6214C164.163 18.6214 163.399 18.3142 162.823 17.7071C162.274 17.1356 161.966 16.2714 161.885 15.1214C161.879 15.0142 161.959 14.9142 162.066 14.9142H172.087C172.187 14.9142 172.267 14.8285 172.267 14.7214L172.261 14.0285ZM161.872 12.2071C161.979 11.1071 162.314 10.2642 162.877 9.66422C163.439 9.06422 164.149 8.77137 165.013 8.77137C165.877 8.77137 166.581 9.05708 167.123 9.62137C167.632 10.1571 167.927 10.9499 168.007 11.9999C168.014 12.1071 167.934 12.2071 167.827 12.2071H161.872Z" fill="#3A9E1B"/>
<path d="M45.0981 13.5999C44.1671 13.1784 42.9146 12.8499 41.3405 12.6142C40.6573 12.5142 40.1215 12.3856 39.7129 12.2284C39.311 12.0713 39.0163 11.8713 38.8421 11.6284C38.668 11.3856 38.5809 11.0642 38.5809 10.6713C38.5809 10.1427 38.7752 9.71415 39.1703 9.39272C39.5655 9.0713 40.1282 8.90701 40.8649 8.90701C41.3606 8.90701 41.7826 9.00701 42.1309 9.21415C42.2581 9.28558 42.372 9.3713 42.4859 9.46415C42.5997 9.56415 42.8141 9.75701 43.0016 10.0642C43.2294 10.4284 43.3231 10.7927 43.37 11.0499C43.3834 11.1427 43.4571 11.207 43.5442 11.207C44.8235 11.1999 46.1028 11.1999 47.3822 11.1999C47.4893 11.1999 47.5764 11.0927 47.5563 10.9784C47.4089 10.0284 47.0941 9.17844 46.6119 8.4213C46.0894 7.60701 45.3526 6.96415 44.4082 6.49987C43.4638 6.02844 42.2916 5.79272 40.8984 5.79272C38.7149 5.79272 37.0739 6.25701 35.9821 7.18558C34.8903 8.11415 34.341 9.33558 34.341 10.8427C34.341 11.7427 34.5219 12.507 34.8903 13.1356C35.2587 13.7642 35.8816 14.2713 36.7657 14.6642C37.6499 15.057 38.8689 15.3999 40.4296 15.6927C41.2735 15.8284 41.9098 15.9856 42.3452 16.1499C42.7739 16.3142 43.0686 16.5142 43.216 16.7356C43.3633 16.9642 43.437 17.2427 43.437 17.5713C43.437 18.0999 43.2294 18.4927 42.8141 18.7499C42.3988 19.007 41.8295 19.1356 41.0927 19.1356C40.1951 19.1356 39.5119 18.9284 39.0565 18.5213C38.6278 18.1356 38.3465 17.6142 38.2058 16.9427C38.1857 16.857 38.1121 16.7927 38.025 16.7999L34.1736 16.9356C34.0664 16.9427 33.9927 17.0356 33.9994 17.1499C34.0999 18.107 34.4013 18.9499 34.9037 19.6927C35.4462 20.4856 36.2299 21.1142 37.2614 21.5713C38.2929 22.0284 39.5655 22.2642 41.0927 22.2642C42.4323 22.2642 43.5978 22.0784 44.5757 21.707C45.5603 21.3356 46.3239 20.7927 46.8731 20.0927C47.4223 19.3856 47.697 18.5284 47.697 17.507C47.697 16.5856 47.496 15.8142 47.0874 15.1856C46.6923 14.5427 46.0291 14.0213 45.0981 13.5999Z" fill="#3A9E1B"/>
<path d="M137.029 21.8999H140.787C140.887 21.8999 140.967 21.8142 140.967 21.7071V6.00707C140.967 5.89992 140.887 5.81421 140.787 5.81421H137.029C136.929 5.81421 136.848 5.89992 136.848 6.00707V21.7142C136.848 21.8142 136.929 21.8999 137.029 21.8999Z" fill="#3A9E1B"/>
<path d="M136.942 4.29993H140.833C140.934 4.29993 141.014 4.21422 141.014 4.10707V0.978502C141.014 0.871359 140.934 0.785645 140.833 0.785645H136.942C136.841 0.785645 136.761 0.871359 136.761 0.978502V4.10707C136.767 4.21422 136.848 4.29993 136.942 4.29993Z" fill="#3A9E1B"/>
<path d="M50.8584 5.81421H48.6681C48.5677 5.81421 48.4873 5.89992 48.4873 6.00707V6.14992V6.30707V9.24992C48.4873 9.35707 48.5677 9.44278 48.6681 9.44278H50.6843C50.7847 9.44278 50.8651 9.52849 50.8651 9.63564V17.1714C50.8651 18.8142 51.2201 20.0142 51.9368 20.7714C52.6535 21.5285 53.7721 21.8999 55.2992 21.8999H58.7018C58.8023 21.8999 58.8827 21.8142 58.8827 21.7071V18.7928C58.8827 18.6856 58.8023 18.5999 58.7018 18.5999H56.813C56.2035 18.5999 55.7547 18.4642 55.4466 18.1856C55.1452 17.9142 54.9911 17.3928 54.9911 16.6285V9.62135C54.9911 9.51421 55.0715 9.42849 55.172 9.42849H58.7018C58.8023 9.42849 58.8827 9.34278 58.8827 9.23564V6.30707V6.14992V6.00707C58.8827 5.89992 58.8023 5.81421 58.7018 5.81421H54.9978H50.8584Z" fill="#3A9E1B"/>
</svg>
