<svg width="138" height="22" viewBox="0 0 138 22" fill="none" xmlns="http://www.w3.org/2000/svg">
<path d="M0.824219 3.9398V2.03771C0.824219 1.79995 0.915288 1.60498 1.03368 1.60498H17.1393C17.2532 1.60498 17.3488 1.79995 17.3488 2.03771V3.9398H0.824219Z" fill="#3C6B5B"/>
<path d="M17.3345 5.72412H0.841797V10.7694H17.3345V5.72412Z" fill="#3C6B5B"/>
<path d="M0.841797 19.2908V12.4956H17.3345V19.2908C17.3345 19.4858 17.2434 19.6427 17.125 19.6427H1.05126C0.932866 19.6427 0.841797 19.4858 0.841797 19.2908Z" fill="#3C6B5B"/>
<path d="M40.8404 1.92484V0.768718C40.8404 0.684534 40.777 0.617188 40.6978 0.617188H37.7188C37.6396 0.617188 37.5762 0.684534 37.5762 0.768718V1.92484V3.22688C37.5762 3.31106 37.6396 3.37841 37.7188 3.37841H40.6978C40.777 3.37841 40.8404 3.31106 40.8404 3.22688V1.92484Z" fill="#3C6B5B"/>
<path d="M56.0627 14.6533C55.9518 14.5355 55.899 14.3054 55.899 13.9518V9.72576C55.899 8.03086 55.4606 6.74566 54.5838 5.87015C53.707 4.99464 52.4024 4.55127 50.6646 4.55127C49.1434 4.55127 47.918 4.89923 46.9832 5.60076C46.5712 5.90943 46.3229 6.21249 46.249 6.3079C45.5782 7.14413 45.3669 8.07576 45.2929 8.63698C45.2824 8.72678 45.3458 8.80535 45.4303 8.80535H48.4621C48.5307 8.80535 48.5889 8.75484 48.5994 8.68188C48.6417 8.41811 48.779 7.90739 49.2068 7.51453C49.735 7.03188 50.3583 7.06556 50.6646 7.06556C51.3037 7.06556 51.7897 7.2676 52.133 7.67729C52.4552 8.06454 52.6242 8.62576 52.6401 9.36096C52.6401 9.43392 52.5925 9.50127 52.5291 9.51249L48.8846 10.2758C47.6223 10.5508 46.6715 10.9885 46.0271 11.5778C45.3827 12.1727 45.0605 13.0426 45.0605 14.1033C45.0605 15.164 45.4408 15.9946 46.2014 16.5839C46.962 17.1788 47.9445 17.4707 49.1434 17.4707C49.9093 17.4707 50.5907 17.3528 51.177 17.1227C51.7633 16.8926 52.2439 16.5671 52.6137 16.1518C52.7563 15.989 52.883 15.815 52.9939 15.6355C53.0573 15.5288 53.2105 15.5513 53.2475 15.6747C53.3056 15.8768 53.3795 16.0564 53.4746 16.2135C53.7228 16.6232 54.045 16.9094 54.4412 17.0778C54.8373 17.2462 55.2704 17.3303 55.7353 17.3303C55.9518 17.3303 56.1736 17.3135 56.3955 17.2855C56.5487 17.263 56.6754 17.2406 56.7705 17.2237C56.8339 17.2069 56.8814 17.1508 56.8814 17.0778V14.9676C56.8814 14.8834 56.818 14.8161 56.7388 14.8161H56.5539C56.3321 14.8273 56.1684 14.7712 56.0627 14.6533ZM52.6401 12.2681C52.6401 12.8518 52.5239 13.3625 52.2915 13.7946C52.0591 14.2268 51.7421 14.5523 51.3354 14.7768C50.9287 15.0013 50.4586 15.1135 49.9252 15.1135C49.434 15.1135 49.0537 14.9957 48.7948 14.7656C48.536 14.5355 48.404 14.1931 48.404 13.7946C48.404 13.3962 48.536 13.065 48.8054 12.8125C49.0748 12.5599 49.4656 12.3804 49.9886 12.2681L52.471 11.7069C52.5608 11.6844 52.6401 11.7574 52.6401 11.8528V12.2681Z" fill="#3C6B5B"/>
<path d="M66.0237 6.19029C66.0237 6.33621 65.8441 6.39795 65.7649 6.27448C65.4849 5.83111 65.1258 5.45509 64.6874 5.15764C64.1011 4.75917 63.3828 4.55713 62.5271 4.55713C61.5869 4.55713 60.7471 4.81529 60.0182 5.33162C59.284 5.84795 58.7136 6.5607 58.3016 7.46427C57.8896 8.37346 57.6836 9.38927 57.6836 10.6015C57.6836 11.8138 57.8896 12.8801 58.3016 13.778C58.7136 14.676 59.2893 15.3775 60.0288 15.877C60.7682 16.3765 61.6133 16.6291 62.5693 16.6291C63.3247 16.6291 64.006 16.4551 64.6134 16.1071C65.0624 15.8546 65.4163 15.5347 65.6857 15.1587C65.7649 15.0464 65.9392 15.1025 65.9392 15.2485V16.051C65.9392 16.9153 65.7332 17.5383 65.3212 17.9311C64.9092 18.324 64.3124 18.5204 63.5306 18.5204C62.8651 18.5204 62.3686 18.4025 62.0412 18.1724C61.7401 17.9592 61.5288 17.6786 61.4073 17.3194C61.3862 17.2633 61.3334 17.224 61.2753 17.224C60.2664 17.2184 59.2523 17.2127 58.2435 17.2127C58.159 17.2127 58.0956 17.2913 58.1009 17.3811C58.1273 17.6561 58.2012 18.0321 58.3861 18.4362C58.4389 18.5597 58.6132 18.8796 58.9512 19.2837C59.3949 19.8056 59.9865 20.2153 60.7312 20.5071C61.476 20.799 62.4056 20.9449 63.5201 20.9449C64.6504 20.9449 65.6434 20.7597 66.4938 20.3893C67.3495 20.0189 68.015 19.4689 68.4903 18.7393C68.971 18.0097 69.2087 17.0893 69.2087 15.978V4.97805C69.2087 4.89386 69.1453 4.82652 69.0661 4.82652H66.1505C66.0712 4.82652 66.0079 4.89386 66.0079 4.97805V6.19029H66.0237ZM65.3001 13.1439C64.8564 13.7612 64.2595 14.0699 63.5095 14.0699C62.7542 14.0699 62.1574 13.7556 61.7084 13.1326C61.2594 12.5097 61.0323 11.6454 61.0323 10.5791C61.0323 9.51274 61.2489 8.67091 61.682 8.04233C62.1151 7.41376 62.7225 7.09386 63.5095 7.09386C64.0166 7.09386 64.455 7.23417 64.8247 7.50917C65.1944 7.78417 65.4744 8.18825 65.6698 8.71019C65.8652 9.23213 65.9656 9.85509 65.9656 10.5791C65.9603 11.6735 65.7385 12.5265 65.3001 13.1439Z" fill="#3C6B5B"/>
<path d="M79.5089 5.36529C78.6533 4.82652 77.6761 4.55713 76.4877 4.55713C75.2993 4.55713 74.2693 4.82652 73.4031 5.36529C72.5368 5.90407 71.8555 6.65611 71.3695 7.6158C70.8836 8.5755 70.6406 9.71478 70.6406 11.0224C70.6406 12.3301 70.8836 13.4694 71.3695 14.4403C71.8555 15.4112 72.5368 16.1576 73.4136 16.6908C74.2904 17.224 75.3204 17.4877 76.5088 17.4877C77.9138 17.4877 79.1075 17.1398 80.0952 16.4495C80.8083 15.95 81.1833 15.4056 81.2625 15.2877C81.7115 14.6367 81.9069 13.9801 81.9967 13.5423C82.0178 13.4469 81.9492 13.3627 81.8594 13.3627C81.2678 13.3627 79.3082 13.3627 78.8487 13.3571C78.7906 13.3571 78.7378 13.3964 78.7166 13.4525C78.5529 13.9127 78.2994 14.2607 77.956 14.4908C77.5863 14.7377 77.1268 14.8612 76.5775 14.8612C75.8222 14.8612 75.22 14.6199 74.7658 14.1428C74.3327 13.6939 74.0897 13.0148 74.0263 12.1112C74.021 12.027 74.0844 11.9485 74.1689 11.9485H82.0706C82.1499 11.9485 82.2133 11.8811 82.2133 11.7969V11.2525C82.2133 9.86631 81.9756 8.67652 81.5055 7.67192C81.0301 6.67295 80.3646 5.90407 79.5089 5.36529ZM74.0158 9.82141C74.1003 8.95713 74.3644 8.29488 74.808 7.82346C75.2517 7.35203 75.8116 7.12192 76.493 7.12192C77.1743 7.12192 77.7289 7.34641 78.1568 7.78978C78.5582 8.2107 78.7906 8.83366 78.854 9.65866C78.8592 9.74284 78.7959 9.82141 78.7114 9.82141H74.0158Z" fill="#3C6B5B"/>
<path d="M88.0972 5.66264C87.8859 5.90958 87.701 6.21826 87.5478 6.59989C87.4897 6.74581 87.2837 6.70652 87.2785 6.54938L87.2309 4.97795C87.2309 4.89938 87.1675 4.83203 87.0883 4.83203H84.2784C84.1991 4.83203 84.1357 4.89938 84.1357 4.98356V17.0611C84.1357 17.1453 84.1991 17.2126 84.2784 17.2126H87.2573C87.3366 17.2126 87.4 17.1453 87.4 17.0611V10.2591C87.4 9.6305 87.5003 9.1254 87.6957 8.7606C87.8912 8.3902 88.187 8.12081 88.5778 7.95244C88.9687 7.78407 89.4705 7.69989 90.0779 7.69989H91.0022C91.0814 7.69989 91.1448 7.63254 91.1448 7.54836V4.98356C91.1448 4.89938 91.0814 4.83203 91.0022 4.83203H90.0779C89.2328 4.83203 88.5725 5.11264 88.0972 5.66264Z" fill="#3C6B5B"/>
<path d="M102.95 14.6533C102.839 14.5355 102.786 14.3054 102.786 13.9518V9.72576C102.786 8.03086 102.348 6.74566 101.471 5.87015C100.594 4.99464 99.2897 4.55127 97.5519 4.55127C96.0307 4.55127 94.8053 4.89923 93.8705 5.60076C93.4532 5.90943 93.2102 6.21249 93.1363 6.3079C92.4655 7.14413 92.27 8.08137 92.2067 8.63698C92.1961 8.72678 92.2595 8.80535 92.344 8.80535H95.2807C95.3441 8.80535 95.4022 8.76045 95.4181 8.69311C95.4762 8.43494 95.6399 7.913 96.0994 7.52015C96.6593 7.03749 97.2878 7.07117 97.5572 7.07117C98.1963 7.07117 98.6823 7.27321 99.0256 7.6829C99.3478 8.07015 99.5168 8.63137 99.5326 9.36658C99.5326 9.43953 99.4851 9.50688 99.4217 9.51811L95.7772 10.2814C94.5148 10.5564 93.5641 10.9941 92.9197 11.5834C92.2753 12.1783 91.9531 13.0482 91.9531 14.1089C91.9531 15.1696 92.3334 16.0002 93.094 16.5895C93.8546 17.1844 94.837 17.4763 96.036 17.4763C96.8019 17.4763 97.4833 17.3584 98.0696 17.1283C98.6558 16.8982 99.1365 16.5727 99.5062 16.1574C99.6488 15.9946 99.7756 15.8207 99.8865 15.6411C99.9499 15.5344 100.103 15.5569 100.14 15.6804C100.198 15.8824 100.272 16.062 100.367 16.2191C100.615 16.6288 100.938 16.915 101.334 17.0834C101.73 17.2518 102.163 17.336 102.628 17.336C102.844 17.336 103.066 17.3191 103.288 17.2911C103.441 17.2686 103.568 17.2462 103.663 17.2293C103.726 17.2125 103.774 17.1564 103.774 17.0834V14.9732C103.774 14.889 103.711 14.8217 103.631 14.8217H103.447C103.219 14.8273 103.056 14.7712 102.95 14.6533ZM99.5274 12.2681C99.5274 12.8518 99.4112 13.3625 99.1788 13.7946C98.9464 14.2268 98.6294 14.5523 98.2227 14.7768C97.816 15.0013 97.3459 15.1135 96.8125 15.1135C96.3212 15.1135 95.941 14.9957 95.6821 14.7656C95.4233 14.5355 95.2913 14.1931 95.2913 13.7946C95.2913 13.3962 95.4233 13.065 95.6927 12.8125C95.9621 12.5599 96.3529 12.3804 96.8759 12.2681L99.3583 11.7069C99.4481 11.6844 99.5274 11.7574 99.5274 11.8528V12.2681Z" fill="#3C6B5B"/>
<path d="M118.822 10.6855C118.088 10.3543 117.1 10.0962 115.859 9.91096C115.32 9.83239 114.897 9.73137 114.575 9.6079C114.258 9.48443 114.026 9.32729 113.888 9.13647C113.751 8.94566 113.682 8.69311 113.682 8.38443C113.682 7.96913 113.836 7.63239 114.147 7.37984C114.459 7.12729 114.903 6.99821 115.484 6.99821C115.874 6.99821 116.207 7.07678 116.482 7.23953C116.582 7.29566 116.672 7.363 116.762 7.43596C116.799 7.46964 116.984 7.62678 117.169 7.90739C117.353 8.18239 117.459 8.463 117.522 8.69872C117.538 8.76045 117.596 8.80535 117.66 8.80535C118.647 8.79974 119.635 8.79974 120.623 8.79974C120.707 8.79974 120.776 8.71555 120.76 8.62576C120.644 7.87933 120.396 7.21147 120.015 6.61658C119.603 5.97678 119.022 5.47168 118.278 5.10688C117.533 4.73647 116.609 4.55127 115.51 4.55127C113.788 4.55127 112.494 4.91607 111.633 5.64566C110.772 6.37525 110.339 7.33494 110.339 8.51913C110.339 9.22627 110.482 9.82678 110.772 10.3207C111.063 10.8145 111.554 11.213 112.251 11.5217C112.948 11.8304 113.91 12.0997 115.14 12.3298C115.806 12.4365 116.308 12.5599 116.651 12.689C116.989 12.8181 117.221 12.9752 117.338 13.1492C117.454 13.3288 117.512 13.5477 117.512 13.8059C117.512 14.2212 117.348 14.5298 117.021 14.7319C116.693 14.9339 116.244 15.0349 115.663 15.0349C114.955 15.0349 114.417 14.8722 114.057 14.5523C113.719 14.2492 113.498 13.8395 113.387 13.312C113.371 13.2446 113.313 13.1941 113.244 13.1997L110.207 13.3064C110.122 13.312 110.064 13.3849 110.07 13.4747C110.149 14.2268 110.387 14.889 110.783 15.4727C111.211 16.0957 111.829 16.5895 112.642 16.9487C113.455 17.3079 114.459 17.4931 115.663 17.4931C116.72 17.4931 117.639 17.3472 118.41 17.0553C119.186 16.7635 119.788 16.337 120.221 15.787C120.655 15.237 120.871 14.5579 120.871 13.7554C120.871 13.0314 120.713 12.4252 120.39 11.9314C120.079 11.4263 119.551 11.0166 118.822 10.6855Z" fill="#3C6B5B"/>
<path d="M133.315 11.0221C133.315 9.63584 133.077 8.44605 132.607 7.44146C132.137 6.44248 131.472 5.6736 130.621 5.13482C129.766 4.59605 128.788 4.32666 127.6 4.32666C126.412 4.32666 125.382 4.59605 124.515 5.13482C123.649 5.6736 122.968 6.42564 122.482 7.38533C121.996 8.34503 121.753 9.48431 121.753 10.792C121.753 12.0996 121.996 13.2389 122.482 14.2098C122.968 15.1807 123.649 15.9272 124.526 16.4603C125.403 16.9935 126.433 17.2573 127.621 17.2573C129.026 17.2573 130.22 16.9093 131.208 16.219C132.142 15.5624 132.766 14.6644 133.088 13.5251C133.114 13.4297 133.046 13.3343 132.951 13.3343C131.942 13.3399 130.933 13.3455 129.924 13.3568C129.876 13.3568 129.829 13.3848 129.803 13.4297C129.681 13.6486 129.454 13.9909 129.063 14.2603C128.508 14.6364 127.964 14.6307 127.684 14.6307C126.929 14.6307 126.327 14.3894 125.873 13.9124C125.44 13.4634 125.197 12.7843 125.133 11.8807C125.128 11.7966 125.191 11.718 125.276 11.718H133.178C133.257 11.718 133.32 11.6506 133.32 11.5665L133.315 11.0221ZM125.123 9.59095C125.207 8.72666 125.471 8.06442 125.915 7.59299C126.359 7.12156 126.919 6.89146 127.6 6.89146C128.281 6.89146 128.836 7.11595 129.264 7.55931C129.665 7.98023 129.898 8.60319 129.961 9.42819C129.966 9.51237 129.903 9.59095 129.818 9.59095H125.123Z" fill="#3C6B5B"/>
<path d="M33.0386 10.6855C32.3044 10.3543 31.3167 10.0962 30.0754 9.91096C29.5367 9.83239 29.1141 9.73137 28.7919 9.6079C28.475 9.48443 28.2426 9.32729 28.1053 9.13647C27.9679 8.94566 27.8993 8.69311 27.8993 8.38443C27.8993 7.96913 28.0525 7.63239 28.3641 7.37984C28.6757 7.12729 29.1194 6.99821 29.7004 6.99821C30.0913 6.99821 30.424 7.07678 30.6987 7.23953C30.799 7.29566 30.8888 7.363 30.9786 7.43596C31.0684 7.51453 31.2374 7.66606 31.3853 7.90739C31.5649 8.19362 31.6389 8.47984 31.6758 8.68188C31.6864 8.75484 31.7445 8.80535 31.8132 8.80535C32.822 8.79974 33.8308 8.79974 34.8397 8.79974C34.9242 8.79974 34.9929 8.71555 34.977 8.62576C34.8608 7.87933 34.6126 7.21147 34.2323 6.61658C33.8203 5.97678 33.2393 5.47168 32.4945 5.10688C31.7498 4.73647 30.8254 4.55127 29.7268 4.55127C28.0049 4.55127 26.7109 4.91607 25.8499 5.64566C24.989 6.37525 24.5558 7.33494 24.5558 8.51913C24.5558 9.22627 24.6985 9.82678 24.989 10.3207C25.2795 10.8145 25.7707 11.213 26.4679 11.5217C27.1651 11.8304 28.1264 12.0997 29.3571 12.3298C30.0226 12.4365 30.5244 12.5599 30.8677 12.689C31.2057 12.8181 31.4381 12.9752 31.5544 13.1492C31.6706 13.3288 31.7287 13.5477 31.7287 13.8059C31.7287 14.2212 31.5649 14.5298 31.2374 14.7319C30.91 14.9339 30.461 15.0349 29.88 15.0349C29.1722 15.0349 28.6335 14.8722 28.2743 14.5523C27.9363 14.2492 27.7144 13.8395 27.6035 13.312C27.5876 13.2446 27.5295 13.1941 27.4609 13.1997L24.4238 13.3064C24.3393 13.312 24.2812 13.3849 24.2865 13.4747C24.3657 14.2268 24.6034 14.889 24.9995 15.4727C25.4274 16.0957 26.0453 16.5895 26.8587 16.9487C27.6722 17.3079 28.6757 17.4931 29.88 17.4931C30.9364 17.4931 31.8554 17.3472 32.6266 17.0553C33.403 16.7635 34.0051 16.337 34.4383 15.787C34.8714 15.2314 35.0879 14.5579 35.0879 13.7554C35.0879 13.0314 34.9295 12.4252 34.6073 11.9314C34.2957 11.4263 33.7727 11.0166 33.0386 10.6855Z" fill="#3C6B5B"/>
<path d="M105.532 17.2071H108.495C108.575 17.2071 108.638 17.1398 108.638 17.0556V4.71989C108.638 4.63571 108.575 4.56836 108.495 4.56836H105.532C105.453 4.56836 105.39 4.63571 105.39 4.71989V17.0612C105.39 17.1398 105.453 17.2071 105.532 17.2071Z" fill="#3C6B5B"/>
<path d="M105.464 3.37841H108.533C108.612 3.37841 108.675 3.31106 108.675 3.22688V0.768718C108.675 0.684534 108.612 0.617188 108.533 0.617188H105.464C105.385 0.617188 105.321 0.684534 105.321 0.768718V3.22688C105.327 3.31106 105.39 3.37841 105.464 3.37841Z" fill="#3C6B5B"/>
<path d="M37.5807 4.56836H35.8535C35.7743 4.56836 35.7109 4.63571 35.7109 4.71989V4.83213V4.9556V7.26785C35.7109 7.35203 35.7743 7.41938 35.8535 7.41938H37.4434C37.5226 7.41938 37.586 7.48673 37.586 7.57091V13.4918C37.586 14.7826 37.8659 15.7255 38.4311 16.3204C38.9963 16.9153 39.8783 17.2071 41.0826 17.2071H43.7658C43.8451 17.2071 43.9084 17.1398 43.9084 17.0556V14.7658C43.9084 14.6816 43.8451 14.6143 43.7658 14.6143H42.2763C41.7957 14.6143 41.4418 14.5076 41.1988 14.2888C40.9611 14.0755 40.8397 13.6658 40.8397 13.0653V7.55969C40.8397 7.4755 40.903 7.40816 40.9823 7.40816H43.7658C43.8451 7.40816 43.9084 7.34081 43.9084 7.25662V4.9556V4.83213V4.71989C43.9084 4.63571 43.8451 4.56836 43.7658 4.56836H40.8449H37.5807Z" fill="#3C6B5B"/>
</svg>
