<svg width="281" height="244" viewBox="0 0 281 244" fill="none" xmlns="http://www.w3.org/2000/svg">
<path d="M140.394 243.146C217.931 243.146 280.787 206.855 280.787 162.088C280.787 117.32 217.931 81.0293 140.394 81.0293C62.8563 81.0293 0 117.32 0 162.088C0 206.855 62.8563 243.146 140.394 243.146Z" fill="#F5F5F5"/>
<path d="M108.07 176.123L148.115 153.004L98.645 124.446L58.5996 147.565L108.07 176.123Z" fill="#E0E0E0"/>
<path d="M165.453 226.503L202.718 204.989L165.453 183.474L128.194 204.989L165.453 226.503Z" fill="#E0E0E0"/>
<path d="M100.557 50.791L68.5635 145.538L66.2754 146.858L98.2746 52.1118L100.557 50.791Z" fill="#455A64"/>
<path d="M66.2751 146.858L65.1455 146.21L97.139 51.4573L98.2744 52.1119L66.2751 146.858Z" fill="#263238"/>
<path d="M98.2744 128.385L97.139 127.737L65.1455 69.9363L66.2751 70.5851L98.2744 128.385Z" fill="#263238"/>
<path d="M68.5635 69.2642L100.557 127.064L98.2746 128.385L66.2754 70.5849L68.5635 69.2642Z" fill="#455A64"/>
<path d="M108.568 92.366V95.0075L142.85 75.2136V72.5779L108.568 92.366Z" fill="#455A64"/>
<path d="M108.568 92.366V95.0075L65.1455 69.9364V67.2949L108.568 92.366Z" fill="#37474F"/>
<path d="M142.85 75.2134L110.857 169.966L108.568 171.281L140.568 76.5341L142.85 75.2134Z" fill="#455A64"/>
<path d="M108.568 171.281L107.438 170.632L139.432 75.8796L140.567 76.5342L108.568 171.281Z" fill="#263238"/>
<path d="M140.567 152.808L139.432 152.159L107.438 94.3586L108.568 95.0074L140.567 152.808Z" fill="#263238"/>
<path d="M110.857 93.6865L142.85 151.487L140.568 152.808L108.568 95.0073L110.857 93.6865Z" fill="#455A64"/>
<path d="M99.4271 0L90.2745 5.28301C82.6319 9.69618 76.2859 16.0438 71.8747 23.6876C67.4635 31.3314 65.1427 40.0019 65.1455 48.8273V67.312L67.4279 68.6327L101.709 48.8273V1.32654L99.4271 0Z" fill="#A6EC90"/>
<path opacity="0.6" d="M99.4271 0L90.2745 5.28301C82.6319 9.69618 76.2859 16.0438 71.8747 23.6876C67.4635 31.3314 65.1427 40.0019 65.1455 48.8273V67.312L67.4279 68.6327L101.709 48.8273V1.32654L99.4271 0Z" fill="white"/>
<path opacity="0.6" d="M68.8589 29.856L101.71 48.8273V1.32661L99.4273 0.00585938L90.2748 5.28886C80.6045 10.8707 73.0693 19.5147 68.8589 29.856Z" fill="white"/>
<path d="M67.4048 68.6155V50.1307C67.405 41.3077 69.7279 32.6402 74.1401 24.9995C78.5522 17.3589 84.898 11.0144 92.5396 6.60387L101.71 1.32666V48.8274L67.4048 68.6155Z" fill="#A6EC90"/>
<path opacity="0.7" d="M67.4048 68.6155V50.1307C67.405 41.3077 69.7279 32.6402 74.1401 24.9995C78.5522 17.3589 84.898 11.0144 92.5396 6.60387L101.71 1.32666V48.8274L67.4048 68.6155Z" fill="white"/>
<path d="M106.286 88.4093L67.4282 65.9739L101.71 46.1858L140.568 68.6154L106.286 88.4093Z" fill="#A6EC90"/>
<path opacity="0.8" d="M106.286 88.4093L67.4282 65.9739L101.71 46.1858L140.568 68.6154L106.286 88.4093Z" fill="white"/>
<path d="M106.286 91.0508V88.4093L67.4282 65.9739V68.6154L106.286 91.0508Z" fill="#A6EC90"/>
<path opacity="0.6" d="M106.286 91.0508V88.4093L67.4282 65.9739V68.6154L106.286 91.0508Z" fill="white"/>
<path opacity="0.3" d="M80.3228 67.0571L96.3224 76.2965L116.893 64.4213L100.893 55.1819L80.3228 67.0571Z" fill="#A6EC90"/>
<path d="M80.3228 66.1188L96.3224 75.3525L116.893 63.4773L100.893 54.2437L80.3228 66.1188Z" fill="#FAFAFA"/>
<path d="M107.746 66.2576C107.723 66.2628 107.699 66.2628 107.676 66.2576L105.394 64.9368C105.372 64.9248 105.354 64.9072 105.342 64.8858C105.329 64.8644 105.322 64.84 105.322 64.8152C105.322 64.7903 105.329 64.7659 105.342 64.7445C105.354 64.7232 105.372 64.7055 105.394 64.6935L107.676 63.3728C107.698 63.3611 107.722 63.355 107.746 63.355C107.77 63.355 107.794 63.3611 107.815 63.3728L110.132 64.6935C110.154 64.7055 110.172 64.7232 110.185 64.7445C110.198 64.7659 110.204 64.7903 110.204 64.8152C110.204 64.84 110.198 64.8644 110.185 64.8858C110.172 64.9072 110.154 64.9248 110.132 64.9368L107.815 66.2576C107.793 66.2634 107.769 66.2634 107.746 66.2576ZM105.742 64.7978L107.746 65.9563L109.75 64.7978L107.746 63.6392L105.742 64.7978Z" fill="#A6EC90"/>
<path d="M103.175 68.8993H103.106L100.823 67.5785C100.802 67.5661 100.783 67.5485 100.77 67.5272C100.757 67.506 100.75 67.4818 100.748 67.4569C100.748 67.4316 100.755 67.4066 100.768 67.3851C100.781 67.3636 100.801 67.3463 100.823 67.3352L103.106 66.0145C103.126 66.0003 103.15 65.9927 103.175 65.9927C103.2 65.9927 103.224 66.0003 103.245 66.0145L105.533 67.3352C105.554 67.3475 105.572 67.3653 105.584 67.3867C105.596 67.408 105.603 67.4323 105.602 67.4569C105.601 67.4812 105.594 67.5048 105.582 67.5259C105.57 67.5471 105.553 67.5651 105.533 67.5785L103.245 68.8993C103.222 68.9052 103.198 68.9052 103.175 68.8993ZM101.171 67.4395L103.175 68.5981L105.18 67.4395L103.175 66.281L101.171 67.4395Z" fill="#A6EC90"/>
<path d="M98.6051 71.5349C98.5822 71.5401 98.5584 71.5401 98.5356 71.5349L96.2185 70.2141C96.1971 70.2018 96.1795 70.1841 96.1672 70.1627C96.155 70.1413 96.1487 70.1171 96.1489 70.0925C96.1503 70.0682 96.1572 70.0446 96.1693 70.0235C96.1814 70.0023 96.1982 69.9843 96.2185 69.9709L98.5356 68.6501C98.5569 68.6384 98.5808 68.6323 98.6051 68.6323C98.6294 68.6323 98.6533 68.6384 98.6746 68.6501L100.992 69.9709C101.012 69.9843 101.029 70.0023 101.041 70.0235C101.053 70.0446 101.06 70.0682 101.061 70.0925C101.061 70.1171 101.055 70.1413 101.043 70.1627C101.031 70.1841 101.013 70.2018 100.992 70.2141L98.6746 71.5349C98.6518 71.5408 98.6279 71.5408 98.6051 71.5349ZM96.6008 70.0751L98.6051 71.2337L100.609 70.0751L98.6051 68.9166L96.6008 70.0751Z" fill="#A6EC90"/>
<path d="M104.299 63.1238C104.251 63.1234 104.203 63.1115 104.16 63.0891L97.3015 59.1326C97.2372 59.094 97.1905 59.032 97.1711 58.9596C97.1516 58.8872 97.161 58.8101 97.1972 58.7445C97.2357 58.6801 97.2982 58.6336 97.3709 58.6152C97.4437 58.5967 97.5207 58.6078 97.5853 58.646L104.438 62.6025C104.492 62.6325 104.535 62.6798 104.559 62.7369C104.584 62.794 104.588 62.8575 104.572 62.9175C104.556 62.9774 104.521 63.0303 104.471 63.0677C104.422 63.1051 104.361 63.1248 104.299 63.1238Z" fill="#E0E0E0"/>
<path d="M99.7462 65.7423C99.6974 65.7396 99.6498 65.7257 99.6072 65.7017L92.7543 61.7452C92.6959 61.705 92.6546 61.6444 92.6386 61.5753C92.6227 61.5062 92.6332 61.4336 92.668 61.3718C92.7029 61.31 92.7597 61.2636 92.8271 61.2416C92.8945 61.2195 92.9678 61.2236 93.0324 61.2529L99.891 65.2151C99.9227 65.2336 99.9504 65.2583 99.9725 65.2876C99.9946 65.3168 100.011 65.3502 100.02 65.3858C100.029 65.4213 100.031 65.4583 100.026 65.4946C100.021 65.531 100.008 65.5659 99.9895 65.5974C99.9661 65.6416 99.9311 65.6784 99.8882 65.704C99.8452 65.7295 99.7961 65.7427 99.7462 65.7423Z" fill="#E0E0E0"/>
<path d="M95.2102 68.349C95.1599 68.3493 95.1102 68.3373 95.0654 68.3143L88.2126 64.3578C88.1484 64.3192 88.1016 64.2571 88.0822 64.1848C88.0627 64.1124 88.0721 64.0353 88.1083 63.9697C88.1268 63.938 88.1515 63.9103 88.1807 63.8882C88.21 63.8661 88.2434 63.85 88.279 63.8408C88.3145 63.8317 88.3515 63.8296 88.3878 63.8349C88.4242 63.8401 88.4591 63.8524 88.4906 63.8712L95.3493 67.8277C95.4131 67.8652 95.4597 67.9262 95.4792 67.9976C95.4986 68.0691 95.4895 68.1453 95.4535 68.21C95.4289 68.2526 95.3934 68.288 95.3507 68.3124C95.3079 68.3368 95.2595 68.3495 95.2102 68.349Z" fill="#E0E0E0"/>
<path d="M101.71 1.3208L140.567 23.7504L138.279 25.0712L99.4272 2.63576L101.71 1.3208Z" fill="#A6EC90"/>
<path opacity="0.8" d="M101.71 1.3208L140.567 23.7504L138.279 25.0712L99.4272 2.63576L101.71 1.3208Z" fill="white"/>
<path d="M99.4272 2.63574V47.5065L138.279 69.9361V25.0711L99.4272 2.63574Z" fill="#A6EC90"/>
<path opacity="0.6" d="M99.4272 2.63574V47.5065L138.279 69.9361V25.0711L99.4272 2.63574Z" fill="white"/>
<path d="M140.568 23.7505L131.415 29.0335C123.773 33.4476 117.428 39.7954 113.017 47.439C108.606 55.0826 106.284 63.7527 106.286 72.5777V91.0625L108.568 92.3774L142.85 72.5777V25.077L140.568 23.7505Z" fill="#A6EC90"/>
<path opacity="0.6" d="M140.568 23.7505L131.415 29.0335C123.773 33.4476 117.428 39.7954 113.017 47.439C108.606 55.0826 106.284 63.7527 106.286 72.5777V91.0625L108.568 92.3774L142.85 72.5777V25.077L140.568 23.7505Z" fill="white"/>
<path opacity="0.6" d="M109.999 53.6065L142.85 72.5778V25.0771L140.567 23.7563L131.415 29.0394C121.746 34.6225 114.211 43.2661 109.999 53.6065Z" fill="white"/>
<path d="M108.568 92.3657V73.881C108.569 65.0579 110.892 56.3904 115.304 48.7498C119.716 41.1091 126.062 34.7646 133.703 30.3541L142.85 25.0769V72.5776L108.568 92.3657Z" fill="#A6EC90"/>
<path opacity="0.8" d="M108.568 92.3657V73.881C108.569 65.0579 110.892 56.3904 115.304 48.7498C119.716 41.1091 126.062 34.7646 133.703 30.3541L142.85 25.0769V72.5776L108.568 92.3657Z" fill="white"/>
<path d="M123.549 53.9248L122.512 56.5895V58.0956L122.355 58.1883V56.6648L121.312 55.205L121.509 55.0949L122.263 56.1782L122.436 56.4505L122.598 55.987L123.357 54.0291L123.549 53.9248Z" fill="#455A64"/>
<path d="M124.893 56.7808C124.122 57.2211 123.734 56.7808 123.734 55.6222C123.692 55.1354 123.777 54.646 123.98 54.2015C124.183 53.757 124.497 53.3724 124.893 53.085C125.663 52.6448 126.051 53.1487 126.051 54.2436C126.099 54.7311 126.016 55.2224 125.813 55.668C125.609 56.1135 125.292 56.4974 124.893 56.7808ZM124.893 53.3051C124.544 53.5622 124.267 53.9043 124.089 54.2988C123.91 54.6934 123.836 55.1271 123.873 55.5585C123.873 56.439 124.163 57.0183 124.893 56.5896C125.239 56.3415 125.515 56.0076 125.694 55.6207C125.872 55.2339 125.948 54.8073 125.912 54.3826C125.912 53.5079 125.634 52.8823 124.893 53.2994V53.3051Z" fill="#455A64"/>
<path d="M128.646 50.988V52.9344C128.646 54.0466 128.31 54.8055 127.592 55.2225C126.874 55.6396 126.532 55.2689 126.532 54.1567V52.2045L126.682 52.1176V54.0872C126.682 54.9735 126.937 55.4079 127.592 55.0314C127.91 54.8132 128.162 54.5123 128.321 54.161C128.481 53.8098 128.541 53.4217 128.495 53.0387V51.0749L128.646 50.988Z" fill="#455A64"/>
<path d="M131.322 53.0212L131.149 53.1255L130.824 52.3724C130.679 52.0248 130.459 51.9495 130.077 52.1696L129.364 52.5809V54.1276L129.214 54.2145V50.6346L130.309 50.0031C130.772 49.7367 131.125 49.8525 131.125 50.5361C131.127 50.7819 131.076 51.0253 130.976 51.2499C130.876 51.4746 130.729 51.6755 130.546 51.8395C130.755 51.8395 130.888 51.9843 130.975 52.1812L131.322 53.0212ZM130.32 50.2059L129.359 50.7852V52.3666V52.4014L130.286 51.8684C130.496 51.7427 130.671 51.5646 130.793 51.3515C130.915 51.1384 130.979 50.8974 130.981 50.6519C130.981 50.0611 130.691 49.9858 130.32 50.2059Z" fill="#455A64"/>
<path d="M116.696 71.732L114.535 64.9197L116.186 63.9697L117.119 67.2542C117.489 68.546 117.64 69.0847 117.646 69.1137H117.675C117.675 69.0731 117.825 68.3664 118.19 66.6865L119.135 62.284L120.704 61.3745L118.544 70.6835L116.696 71.732Z" fill="#A6EC90"/>
<path d="M123.966 59.3123C125.819 58.2464 127.158 59.2022 127.158 61.6641C127.158 64.1261 125.819 66.6285 123.966 67.6944C122.112 68.7603 120.78 67.8103 120.78 65.3773C120.78 62.9443 122.118 60.4129 123.966 59.3123ZM123.966 65.8639C124.514 65.496 124.961 64.9958 125.264 64.4095C125.568 63.8233 125.719 63.1699 125.704 62.5099C125.704 61.0559 124.974 60.5577 123.966 61.1312C123.416 61.5015 122.968 62.0046 122.664 62.594C122.361 63.1833 122.21 63.8398 122.228 64.5026C122.24 65.9392 122.964 66.4432 123.966 65.8639Z" fill="#A6EC90"/>
<path d="M130.755 57.3542V63.6162L129.306 64.4562V58.1884L127.453 59.2601V57.4643L132.602 54.4868V56.2884L130.755 57.3542Z" fill="#A6EC90"/>
<path d="M133.355 54.0408L137.758 51.4978V53.2936L134.804 54.9966V56.3811L136.982 55.1241V56.7345L134.804 57.9915V59.4629L137.804 57.725V59.5266L133.355 62.0928V54.0408Z" fill="#A6EC90"/>
<path d="M120.658 75.5608L120.513 75.6419V72.5138L120.328 73.2321L119.441 76.3081L118.549 74.2459L118.364 73.7535V76.8932L118.213 76.9743V73.3943L118.352 73.319L119.308 75.5261L119.447 75.8794L119.58 75.3697L120.542 72.0562L120.675 71.9751L120.658 75.5608Z" fill="#455A64"/>
<path d="M123.444 73.9504L123.276 74.0489L122.969 73.2784L121.463 74.1473L121.162 75.2653L120.994 75.3638L122.153 71.1177L122.286 71.0366L123.444 73.9504ZM122.917 73.1046L122.338 71.5927L122.269 71.3205L122.187 71.6738L121.608 73.8751V73.9098L122.917 73.1046Z" fill="#455A64"/>
<path d="M125.333 69.467L124.36 70.0463V73.4119L124.209 73.4988V70.1274L123.236 70.7067V70.5213L125.333 69.2759V69.467Z" fill="#455A64"/>
<path d="M127.546 68.1926L126.573 68.7719V72.1375L126.422 72.2243V68.8298L125.455 69.4091V69.2179L127.528 68.0188L127.546 68.1926Z" fill="#455A64"/>
<path d="M129.718 70.3302L127.911 71.3729V67.7929L129.718 66.7502V66.9414L128.044 67.903V69.3628V69.3917L129.556 68.517V68.7082L128.044 69.5829V71.0485V71.0774L129.718 70.1101V70.3302Z" fill="#455A64"/>
<path d="M132.342 68.8122L132.168 68.9165L131.844 68.1634C131.699 67.8158 131.479 67.7405 131.097 67.9607L130.384 68.372V69.9186L130.233 70.0055V66.4256L131.328 65.7942C131.792 65.5277 132.145 65.6436 132.145 66.3271C132.146 66.573 132.095 66.8163 131.995 67.041C131.895 67.2656 131.749 67.4666 131.566 67.6305C131.774 67.6305 131.913 67.7753 131.994 67.9722L132.342 68.8122ZM131.34 66.0027L130.378 66.553V68.1344V68.1692L131.305 67.6363C131.516 67.5105 131.691 67.3325 131.812 67.1194C131.934 66.9062 131.999 66.6652 132 66.4198C132 65.8521 131.705 65.7884 131.34 66.0027Z" fill="#455A64"/>
<path d="M133.553 68.1579C133.407 68.2678 133.234 68.3338 133.052 68.3482C132.87 68.3625 132.688 68.3247 132.527 68.239L132.649 68.0073C132.786 68.09 132.944 68.1307 133.103 68.1245C133.263 68.1183 133.417 68.0655 133.547 67.9726C133.781 67.8581 133.982 67.6848 134.129 67.4695C134.276 67.2542 134.365 67.0044 134.387 66.7445C134.387 66.4201 134.201 66.2521 133.808 66.3332L133.315 66.4317C132.829 66.5186 132.568 66.4317 132.568 65.9683C132.591 65.6604 132.694 65.3639 132.865 65.1071C133.037 64.8504 133.271 64.6422 133.547 64.5027C133.674 64.4048 133.827 64.347 133.987 64.3366C134.147 64.3263 134.306 64.364 134.445 64.4448L134.329 64.6707C134.215 64.5912 134.08 64.5486 133.941 64.5486C133.802 64.5486 133.666 64.5912 133.553 64.6707C133.328 64.7783 133.134 64.941 132.99 65.1435C132.845 65.3461 132.754 65.582 132.724 65.8293C132.724 66.2116 132.991 66.229 133.414 66.1479L133.865 66.061C134.375 65.9683 134.561 66.2 134.561 66.5997C134.55 66.9266 134.451 67.2445 134.274 67.5191C134.096 67.7937 133.847 68.0146 133.553 68.1579Z" fill="#455A64"/>
<path d="M134.63 47.4023L135.064 48.3234L136.038 47.9527L135.331 49.2676L135.499 50.4609L134.63 50.3567L133.761 51.4631L133.929 50.0786L133.228 49.5746L134.195 48.8274L134.63 47.4023Z" fill="#A6EC90"/>
<path d="M117.918 57.053L117.483 58.478L116.51 59.2253L117.211 59.7292L117.049 61.1137L117.918 60.0073L118.781 60.1116L118.619 58.9183L119.32 57.6033L118.352 57.974L117.918 57.053Z" fill="#A6EC90"/>
<path d="M189.875 155.003L167.637 222.697L165.447 223.966L187.686 156.266L189.875 155.003Z" fill="#455A64"/>
<path d="M165.447 223.966L164.364 223.34L186.596 155.646L187.685 156.266L165.447 223.966Z" fill="#263238"/>
<path d="M196.132 206.246L195.048 205.626L173.134 163.872L174.223 164.497L196.132 206.246Z" fill="#263238"/>
<path d="M176.413 163.229L198.327 204.983L196.138 206.246L174.224 164.491L176.413 163.229Z" fill="#455A64"/>
<path d="M159.197 137.289L136.959 204.983L134.769 206.246L157.007 138.551L159.197 137.289Z" fill="#455A64"/>
<path d="M134.769 206.246L133.686 205.626L155.924 137.926L157.007 138.551L134.769 206.246Z" fill="#263238"/>
<path d="M165.453 188.532L164.37 187.906L142.456 146.152L143.545 146.777L165.453 188.532Z" fill="#263238"/>
<path d="M145.735 145.509L167.649 187.263L165.453 188.531L143.545 146.777L145.735 145.509Z" fill="#455A64"/>
<path d="M163.263 172.086L128.194 151.84L165.453 130.326L200.528 150.571L163.263 172.086Z" fill="#455A64"/>
<path d="M163.263 174.617V172.086L200.528 150.572V153.103L163.263 174.617Z" fill="#37474F"/>
<path d="M163.263 174.617V172.086L128.194 151.84L128.205 154.36L163.263 174.617Z" fill="#263238"/>
<path d="M163.281 169.554V139.189L133.413 122.001V152.367L163.281 169.554Z" fill="#A6EC90"/>
<path d="M163.281 139.189L195.315 120.681V151.052L163.281 169.554V139.189Z" fill="#A6EC90"/>
<path opacity="0.15" d="M163.281 139.189L195.315 120.681V151.052L163.281 169.554V139.189Z" fill="white"/>
<path d="M163.281 139.189L132.573 121.515L165.447 102.521L196.149 120.194L163.281 139.189Z" fill="#A6EC90"/>
<path opacity="0.3" d="M163.281 139.189L132.573 121.515L165.447 102.521L196.149 120.194L163.281 139.189Z" fill="white"/>
<path d="M163.281 139.189V144.611L132.573 126.943V121.515L163.281 139.189Z" fill="#A6EC90"/>
<path d="M196.149 120.194L163.281 139.189V144.611L196.149 125.622V120.194Z" fill="#A6EC90"/>
<path opacity="0.15" d="M196.149 120.194L163.281 139.189V144.611L196.149 125.622V120.194Z" fill="white"/>
<path opacity="0.1" d="M133.442 127.424V128.617L163.309 145.804V144.611L133.442 127.424ZM195.343 126.103L163.309 144.64V145.833L195.343 127.296V126.103Z" fill="black"/>
<path d="M154.493 124L158.878 126.531L174.223 117.668L169.838 115.143L154.493 124Z" fill="#A6EC90"/>
<path opacity="0.2" d="M173.129 118.306L174.224 117.668L169.838 115.143L169.844 116.417L173.129 118.306Z" fill="black"/>
<path opacity="0.1" d="M155.594 124.631L169.838 116.406V115.143L154.493 124L155.594 124.631Z" fill="black"/>
<path d="M170.11 156.764L168.042 150.23L169.624 149.32L170.516 152.466C170.875 153.705 171.014 154.203 171.02 154.25H171.049C171.049 154.209 171.194 153.531 171.541 151.933L172.445 147.71L173.951 146.841L171.883 155.767L170.11 156.764Z" fill="#FAFAFA"/>
<path d="M177.085 144.854C178.858 143.834 180.138 144.75 180.138 147.113C180.138 149.477 178.858 151.869 177.085 152.906C175.312 153.943 174.026 153.01 174.026 150.653C174.026 148.295 175.312 145.879 177.085 144.854ZM177.085 151.139C177.609 150.784 178.036 150.304 178.325 149.741C178.615 149.178 178.758 148.551 178.742 147.918C178.742 146.528 178.047 146.047 177.085 146.598C176.559 146.954 176.132 147.437 175.843 148.002C175.553 148.566 175.41 149.195 175.428 149.83C175.428 151.209 176.123 151.695 177.085 151.139Z" fill="#FAFAFA"/>
<path d="M183.596 142.971V148.979L182.2 149.784V143.777L180.433 144.802V143.064L185.363 140.214V141.952L183.596 142.971Z" fill="#FAFAFA"/>
<path d="M186.087 139.815L190.31 137.376V139.114L187.477 140.747V142.074L189.563 140.869V142.415L187.477 143.62V145.034L190.374 143.371V145.109L186.11 147.571L186.087 139.815Z" fill="#FAFAFA"/>
<path d="M173.719 115.861L172.341 118.734L158.878 126.531L156.069 124.909L163.611 108.985L173.719 115.861Z" fill="#FAFAFA"/>
</svg>
