<svg width="141" height="128" viewBox="0 0 141 128" fill="none" xmlns="http://www.w3.org/2000/svg">
<path d="M41.9831 30.1318C40.4132 31.4905 38.9333 32.9498 37.5527 34.5004" stroke="#030319" stroke-linecap="round" stroke-linejoin="round"/>
<path d="M108.988 81.0477C117.568 60.9024 108.193 37.6158 88.0479 29.0356C67.9027 20.4554 44.6161 29.8307 36.0358 49.9759C27.4556 70.1212 36.831 93.4078 56.9762 101.988C77.1215 110.568 100.408 101.193 108.988 81.0477Z" fill="#A6EC90"/>
<path d="M34.0187 38.9614C28.0847 47.5591 25.2031 57.8973 25.8341 68.3249C26.4651 78.7524 30.5723 88.6677 37.4997 96.4871C44.4271 104.307 53.775 109.579 64.0505 111.462C74.3259 113.346 84.9361 111.731 94.1864 106.877C103.437 102.022 110.793 94.2082 115.081 84.6823C119.37 75.1563 120.342 64.4681 117.843 54.3248C115.344 44.1815 109.517 35.1683 101.295 28.7247C93.0722 22.2811 82.9273 18.7788 72.4807 18.7773C69.6161 18.7775 66.7574 19.0361 63.9393 19.5501" stroke="#030319" stroke-linecap="round" stroke-linejoin="round"/>
<path d="M53.2029 63.3917L68.2456 80.4848L92.8498 45.6289" stroke="#3C6B5B" stroke-width="6" stroke-linecap="round" stroke-linejoin="round"/>
<path d="M5.06445 21.5V30.639" stroke="#263238" stroke-linecap="round" stroke-linejoin="round"/>
<path d="M9.63899 26.0742H0.5" stroke="#263238" stroke-linecap="round" stroke-linejoin="round"/>
<path d="M109.075 4.5V13.639" stroke="#263238" stroke-linecap="round" stroke-linejoin="round"/>
<path d="M113.639 9.07422H104.5" stroke="#263238" stroke-linecap="round" stroke-linejoin="round"/>
<path d="M131.074 88.5V97.639" stroke="#263238" stroke-linecap="round" stroke-linejoin="round"/>
<path d="M135.639 93.0645H126.5" stroke="#263238" stroke-linecap="round" stroke-linejoin="round"/>
<path d="M50.0745 117.5V126.639" stroke="#263238" stroke-linecap="round" stroke-linejoin="round"/>
<path d="M54.639 122.064H45.5" stroke="#263238" stroke-linecap="round" stroke-linejoin="round"/>
<path d="M139.625 43.0523C139.627 44.5485 139.185 46.0116 138.356 47.2566C137.526 48.5016 136.346 49.4726 134.964 50.0465C133.582 50.6205 132.061 50.7718 130.594 50.4811C129.126 50.1905 127.777 49.471 126.719 48.4138C125.66 47.3565 124.939 46.009 124.646 44.5418C124.353 43.0745 124.503 41.5534 125.075 40.1709C125.647 38.7884 126.616 37.6067 127.86 36.7752C129.104 35.9438 130.566 35.5 132.063 35.5C134.067 35.5 135.989 36.2954 137.407 37.7114C138.824 39.1274 139.622 41.0483 139.625 43.0523Z" stroke="#263238" stroke-linecap="round" stroke-linejoin="round"/>
<path d="M10.5192 96.7286C13.5455 95.4751 14.9826 92.0056 13.7291 88.9792C12.4755 85.9529 9.006 84.5158 5.97966 85.7693C2.95333 87.0229 1.51621 90.4924 2.76976 93.5187C4.0233 96.5451 7.49283 97.9822 10.5192 96.7286Z" stroke="#263238" stroke-linecap="round" stroke-linejoin="round"/>
<path d="M54.9361 2.08759C54.9545 2.32405 54.9237 2.56174 54.8458 2.78575C54.7679 3.00976 54.6446 3.21526 54.4835 3.38933C54.3224 3.5634 54.127 3.70227 53.9097 3.79726C53.6924 3.89224 53.4578 3.94128 53.2206 3.94128C52.9835 3.94128 52.7489 3.89224 52.5315 3.79726C52.3142 3.70227 52.1189 3.5634 51.9578 3.38933C51.7967 3.21526 51.6733 3.00976 51.5954 2.78575C51.5175 2.56174 51.4868 2.32405 51.5052 2.08759C51.5387 1.65558 51.7339 1.25211 52.0519 0.957795C52.37 0.663482 52.7873 0.5 53.2206 0.5C53.6539 0.5 54.0713 0.663482 54.3893 0.957795C54.7074 1.25211 54.9026 1.65558 54.9361 2.08759Z" stroke="#263238" stroke-linecap="round" stroke-linejoin="round"/>
<path d="M119.941 112.21C119.943 112.551 119.844 112.885 119.656 113.169C119.468 113.453 119.2 113.676 118.886 113.807C118.572 113.939 118.226 113.975 117.891 113.909C117.557 113.844 117.249 113.681 117.008 113.441C116.766 113.201 116.601 112.894 116.534 112.56C116.467 112.226 116.5 111.88 116.63 111.565C116.76 111.25 116.98 110.98 117.264 110.791C117.547 110.601 117.88 110.5 118.221 110.5C118.675 110.5 119.111 110.68 119.434 111C119.756 111.321 119.939 111.756 119.941 112.21Z" stroke="#263238" stroke-linecap="round" stroke-linejoin="round"/>
</svg>
