<svg width="20" height="20" viewBox="0 0 20 20" fill="none" xmlns="http://www.w3.org/2000/svg">
<mask id="path-1-inside-1_7422_2510" fill="white">
<path fill-rule="evenodd" clip-rule="evenodd" d="M12.9067 3.69165C12.9691 3.74509 13.0203 3.81029 13.0574 3.88353C13.0946 3.95677 13.1169 4.03662 13.1232 4.11849C13.1294 4.20037 13.1195 4.28269 13.094 4.36073C13.0684 4.43877 13.0277 4.51101 12.9742 4.57332L8.32339 9.99998L12.9742 15.4266C13.0308 15.4884 13.0744 15.561 13.1024 15.64C13.1304 15.7189 13.1422 15.8027 13.1372 15.8864C13.1321 15.97 13.1103 16.0518 13.073 16.1268C13.0358 16.2018 12.9838 16.2686 12.9202 16.3232C12.8566 16.3777 12.7826 16.4189 12.7028 16.4443C12.623 16.4697 12.5388 16.4788 12.4554 16.4711C12.372 16.4633 12.291 16.4388 12.2172 16.3991C12.1434 16.3594 12.0783 16.3053 12.0259 16.24L7.02589 10.4066C6.92883 10.2934 6.87549 10.1491 6.87549 9.99998C6.87549 9.85082 6.92883 9.70658 7.02589 9.59332L12.0259 3.75998C12.1338 3.6343 12.2872 3.5566 12.4523 3.54394C12.6175 3.53129 12.7809 3.58471 12.9067 3.69248"/>
</mask>
<path fill-rule="evenodd" clip-rule="evenodd" d="M12.9067 3.69165C12.9691 3.74509 13.0203 3.81029 13.0574 3.88353C13.0946 3.95677 13.1169 4.03662 13.1232 4.11849C13.1294 4.20037 13.1195 4.28269 13.094 4.36073C13.0684 4.43877 13.0277 4.51101 12.9742 4.57332L8.32339 9.99998L12.9742 15.4266C13.0308 15.4884 13.0744 15.561 13.1024 15.64C13.1304 15.7189 13.1422 15.8027 13.1372 15.8864C13.1321 15.97 13.1103 16.0518 13.073 16.1268C13.0358 16.2018 12.9838 16.2686 12.9202 16.3232C12.8566 16.3777 12.7826 16.4189 12.7028 16.4443C12.623 16.4697 12.5388 16.4788 12.4554 16.4711C12.372 16.4633 12.291 16.4388 12.2172 16.3991C12.1434 16.3594 12.0783 16.3053 12.0259 16.24L7.02589 10.4066C6.92883 10.2934 6.87549 10.1491 6.87549 9.99998C6.87549 9.85082 6.92883 9.70658 7.02589 9.59332L12.0259 3.75998C12.1338 3.6343 12.2872 3.5566 12.4523 3.54394C12.6175 3.53129 12.7809 3.58471 12.9067 3.69248" fill="black"/>
<path d="M12.9742 4.57332L12.2155 3.92194L12.2149 3.92257L12.9742 4.57332ZM8.32339 9.99998L7.56409 9.34924L7.00638 9.99998L7.56409 10.6507L8.32339 9.99998ZM12.9742 15.4266L12.2149 16.0774L12.2256 16.0899L12.2367 16.102L12.9742 15.4266ZM12.0259 16.24L12.8057 15.614L12.7956 15.6014L12.7851 15.5892L12.0259 16.24ZM7.02589 10.4066L6.26652 11.0573L6.26663 11.0574L7.02589 10.4066ZM7.02589 9.59332L6.26663 8.94252L6.26652 8.94265L7.02589 9.59332ZM12.0259 3.75998L11.2672 3.10857L11.2666 3.10919L12.0259 3.75998ZM12.9067 3.69165L12.256 4.45094C12.2186 4.41887 12.1878 4.37975 12.1655 4.33581L13.0574 3.88353L13.9493 3.43126C13.8527 3.24083 13.7196 3.0713 13.5575 2.93236L12.9067 3.69165ZM13.0574 3.88353L12.1655 4.33581C12.1433 4.29187 12.1299 4.24396 12.1261 4.19483L13.1232 4.11849L14.1203 4.04216C14.104 3.82927 14.0459 3.62168 13.9493 3.43126L13.0574 3.88353ZM13.1232 4.11849L12.1261 4.19483C12.1223 4.1457 12.1283 4.09631 12.1436 4.04949L13.094 4.36073L14.0443 4.67197C14.1107 4.46906 14.1366 4.25505 14.1203 4.04216L13.1232 4.11849ZM13.094 4.36073L12.1436 4.04949C12.159 4.00267 12.1834 3.95933 12.2155 3.92194L12.9742 4.57332L13.733 5.22469C13.8721 5.06269 13.9778 4.87487 14.0443 4.67197L13.094 4.36073ZM12.9742 4.57332L12.2149 3.92257L7.56409 9.34924L8.32339 9.99998L9.08268 10.6507L13.7335 5.22406L12.9742 4.57332ZM8.32339 9.99998L7.56409 10.6507L12.2149 16.0774L12.9742 15.4266L13.7335 14.7759L9.08268 9.34924L8.32339 9.99998ZM12.9742 15.4266L12.2367 16.102C12.2028 16.0649 12.1766 16.0214 12.1598 15.974L13.1024 15.64L14.0449 15.3059C13.9722 15.1006 13.8588 14.912 13.7117 14.7513L12.9742 15.4266ZM13.1024 15.64L12.1598 15.974C12.143 15.9266 12.1359 15.8764 12.139 15.8262L13.1372 15.8864L14.1353 15.9465C14.1485 15.7291 14.1177 15.5112 14.0449 15.3059L13.1024 15.64ZM13.1372 15.8864L12.139 15.8262C12.142 15.776 12.1551 15.7269 12.1774 15.6819L13.073 16.1268L13.9686 16.5717C14.0655 16.3766 14.1222 16.164 14.1353 15.9465L13.1372 15.8864ZM13.073 16.1268L12.1774 15.6819C12.1998 15.6369 12.231 15.5968 12.2692 15.5641L12.9202 16.3232L13.5712 17.0822C13.7365 16.9404 13.8717 16.7668 13.9686 16.5717L13.073 16.1268ZM12.9202 16.3232L12.2692 15.5641C12.3073 15.5314 12.3517 15.5066 12.3996 15.4914L12.7028 16.4443L13.006 17.3972C13.2136 17.3312 13.4058 17.2241 13.5712 17.0822L12.9202 16.3232ZM12.7028 16.4443L12.3996 15.4914C12.4475 15.4762 12.4979 15.4707 12.548 15.4754L12.4554 16.4711L12.3628 17.4668C12.5797 17.4869 12.7985 17.4633 13.006 17.3972L12.7028 16.4443ZM12.4554 16.4711L12.548 15.4754C12.5981 15.48 12.6467 15.4947 12.691 15.5185L12.2172 16.3991L11.7434 17.2798C11.9352 17.383 12.1459 17.4466 12.3628 17.4668L12.4554 16.4711ZM12.2172 16.3991L12.691 15.5185C12.7352 15.5423 12.7743 15.5748 12.8057 15.614L12.0259 16.24L11.246 16.866C11.3824 17.0359 11.5516 17.1766 11.7434 17.2798L12.2172 16.3991ZM12.0259 16.24L12.7851 15.5892L7.78514 9.75586L7.02589 10.4066L6.26663 11.0574L11.2666 16.8908L12.0259 16.24ZM7.02589 10.4066L7.78525 9.75598C7.84348 9.82394 7.87549 9.91049 7.87549 9.99998H6.87549H5.87549C5.87549 10.3878 6.01418 10.7628 6.26652 11.0573L7.02589 10.4066ZM6.87549 9.99998H7.87549C7.87549 10.0895 7.84348 10.176 7.78525 10.244L7.02589 9.59332L6.26652 8.94265C6.01418 9.23714 5.87549 9.61217 5.87549 9.99998H6.87549ZM7.02589 9.59332L7.78514 10.2441L12.7851 4.41077L12.0259 3.75998L11.2666 3.10919L6.26663 8.94252L7.02589 9.59332ZM12.0259 3.75998L12.7846 4.4114C12.7199 4.4868 12.6278 4.53343 12.5287 4.54102L12.4523 3.54394L12.3759 2.54687C11.9465 2.57977 11.5477 2.7818 11.2672 3.10857L12.0259 3.75998ZM12.4523 3.54394L12.5287 4.54102C12.4296 4.54861 12.3316 4.51656 12.2561 4.4519L12.9067 3.69248L13.5573 2.93307C13.2303 2.65287 12.8053 2.51396 12.3759 2.54687L12.4523 3.54394Z" fill="#030319" mask="url(#path-1-inside-1_7422_2510)"/>
</svg>
