<svg width="26" height="26" viewBox="0 0 26 26" fill="none" xmlns="http://www.w3.org/2000/svg">
<g clip-path="url(#clip0_7498_16849)">
<path d="M13 26C20.1797 26 26 20.1797 26 13C26 5.8203 20.1797 0 13 0C5.8203 0 0 5.8203 0 13C0 20.1797 5.8203 26 13 26Z" fill="#F0B90B"/>
<path d="M13.0061 4.36987L15.1443 6.55311L9.76003 11.9213L7.62177 9.78943L13.0061 4.36987Z" fill="white"/>
<path d="M16.2521 7.60622L18.3904 9.78945L9.76003 18.394L7.62177 16.2621L16.2521 7.60622Z" fill="white"/>
<path d="M6.514 10.8425L8.65226 13.0258L6.514 15.1576L4.37573 13.0258L6.514 10.8425Z" fill="white"/>
<path d="M19.4981 10.8425L21.6364 13.0258L13.0061 21.6303L10.8678 19.4984L19.4981 10.8425Z" fill="white"/>
<path d="M13.0061 4.36987L15.1443 6.55311L9.76003 11.9213L7.62177 9.78943L13.0061 4.36987Z" stroke="white"/>
<path d="M16.2521 7.60622L18.3904 9.78945L9.76003 18.394L7.62177 16.2621L16.2521 7.60622Z" stroke="white"/>
<path d="M6.514 10.8425L8.65226 13.0258L6.514 15.1576L4.37573 13.0258L6.514 10.8425Z" stroke="white"/>
<path d="M19.4981 10.8425L21.6364 13.0258L13.0061 21.6303L10.8678 19.4984L19.4981 10.8425Z" stroke="white"/>
</g>
<defs>
<clipPath id="clip0_7498_16849">
<rect width="26" height="26" rx="13" fill="white"/>
</clipPath>
</defs>
</svg>
