<svg width="30" height="30" viewBox="0 0 30 30" fill="none" xmlns="http://www.w3.org/2000/svg">
<path opacity="0.5" d="M15 3C21.6276 3 27 8.37239 27 15C27 21.6276 21.6276 27 15 27C8.37239 27 3 21.6276 3 15C3 8.37239 8.37239 3 15 3Z" fill="#F04438" stroke="#F04438"/>
<path d="M18.1404 11.4141C18.1991 11.4131 18.2578 11.4243 18.3123 11.4464C18.3666 11.4683 18.4163 11.5006 18.4578 11.5421C18.4992 11.5835 18.5315 11.6332 18.5535 11.6876C18.5755 11.742 18.5867 11.8007 18.5857 11.8594C18.5846 11.9181 18.5715 11.9758 18.5476 12.0294C18.5237 12.083 18.4899 12.1319 18.447 12.1719L18.4402 12.1778L15.6179 15.0001L18.4216 17.8038L18.4724 17.8702C18.5168 17.9414 18.5403 18.0243 18.5388 18.1094C18.5368 18.2227 18.491 18.3311 18.4109 18.4112C18.3307 18.4913 18.2224 18.5371 18.1091 18.5391C17.9976 18.5411 17.8898 18.4999 17.8074 18.4249L15.3533 15.9717L14.9998 15.6182L14.6462 15.9717L12.1921 18.4249C12.1097 18.4998 12.0019 18.5411 11.8904 18.5391C11.7771 18.5371 11.6687 18.4913 11.5886 18.4112C11.5085 18.3311 11.4627 18.2227 11.4607 18.1094C11.4587 17.9981 11.4993 17.8901 11.574 17.8077L14.3816 15.0001L14.0281 14.6465L11.5652 12.1837C11.4837 12.1017 11.4382 11.9906 11.4382 11.8751C11.4382 11.7593 11.4835 11.6475 11.5652 11.5655L11.5662 11.5665C11.6481 11.4846 11.7589 11.4386 11.8748 11.4385C11.9907 11.4385 12.1023 11.4845 12.1843 11.5665L14.9998 14.3819L15.3533 14.0284L17.8162 11.5665L17.822 11.5596L17.8279 11.5538C17.8679 11.5108 17.9168 11.4761 17.9705 11.4522C18.024 11.4284 18.0817 11.4152 18.1404 11.4141Z" fill="#F04438" stroke="#F04438"/>
</svg>
