<svg width="15" height="15" viewBox="0 0 15 15" fill="none" xmlns="http://www.w3.org/2000/svg">
<mask id="path-1-inside-1_7878_17042" fill="white">
<path fill-rule="evenodd" clip-rule="evenodd" d="M7.5 1.71875C5.96672 1.71875 4.49623 2.32784 3.41204 3.41204C2.32784 4.49623 1.71875 5.96672 1.71875 7.5C1.71875 9.03328 2.32784 10.5038 3.41204 11.588C4.49623 12.6722 5.96672 13.2812 7.5 13.2812C9.03328 13.2812 10.5038 12.6722 11.588 11.588C12.6722 10.5038 13.2812 9.03328 13.2812 7.5C13.2812 5.96672 12.6722 4.49623 11.588 3.41204C10.5038 2.32784 9.03328 1.71875 7.5 1.71875ZM0.78125 7.5C0.78125 3.78938 3.78938 0.78125 7.5 0.78125C11.2106 0.78125 14.2188 3.78938 14.2188 7.5C14.2188 11.2106 11.2106 14.2188 7.5 14.2188C3.78938 14.2188 0.78125 11.2106 0.78125 7.5ZM7.5 4.53125C7.62432 4.53125 7.74355 4.58064 7.83146 4.66854C7.91936 4.75645 7.96875 4.87568 7.96875 5V7.30625L9.39375 8.73125C9.4398 8.77416 9.47674 8.82591 9.50236 8.88341C9.52798 8.94091 9.54176 9.00298 9.54287 9.06592C9.54398 9.12886 9.5324 9.19138 9.50883 9.24975C9.48525 9.30812 9.45016 9.36114 9.40565 9.40565C9.36114 9.45016 9.30812 9.48525 9.24975 9.50883C9.19138 9.5324 9.12886 9.54398 9.06592 9.54287C9.00298 9.54176 8.94091 9.52798 8.88341 9.50236C8.82591 9.47674 8.77416 9.4398 8.73125 9.39375L7.16875 7.83125C7.08082 7.74343 7.03136 7.62428 7.03125 7.5V5C7.03125 4.87568 7.08064 4.75645 7.16854 4.66854C7.25645 4.58064 7.37568 4.53125 7.5 4.53125Z"/>
</mask>
<path fill-rule="evenodd" clip-rule="evenodd" d="M7.5 1.71875C5.96672 1.71875 4.49623 2.32784 3.41204 3.41204C2.32784 4.49623 1.71875 5.96672 1.71875 7.5C1.71875 9.03328 2.32784 10.5038 3.41204 11.588C4.49623 12.6722 5.96672 13.2812 7.5 13.2812C9.03328 13.2812 10.5038 12.6722 11.588 11.588C12.6722 10.5038 13.2812 9.03328 13.2812 7.5C13.2812 5.96672 12.6722 4.49623 11.588 3.41204C10.5038 2.32784 9.03328 1.71875 7.5 1.71875ZM0.78125 7.5C0.78125 3.78938 3.78938 0.78125 7.5 0.78125C11.2106 0.78125 14.2188 3.78938 14.2188 7.5C14.2188 11.2106 11.2106 14.2188 7.5 14.2188C3.78938 14.2188 0.78125 11.2106 0.78125 7.5ZM7.5 4.53125C7.62432 4.53125 7.74355 4.58064 7.83146 4.66854C7.91936 4.75645 7.96875 4.87568 7.96875 5V7.30625L9.39375 8.73125C9.4398 8.77416 9.47674 8.82591 9.50236 8.88341C9.52798 8.94091 9.54176 9.00298 9.54287 9.06592C9.54398 9.12886 9.5324 9.19138 9.50883 9.24975C9.48525 9.30812 9.45016 9.36114 9.40565 9.40565C9.36114 9.45016 9.30812 9.48525 9.24975 9.50883C9.19138 9.5324 9.12886 9.54398 9.06592 9.54287C9.00298 9.54176 8.94091 9.52798 8.88341 9.50236C8.82591 9.47674 8.77416 9.4398 8.73125 9.39375L7.16875 7.83125C7.08082 7.74343 7.03136 7.62428 7.03125 7.5V5C7.03125 4.87568 7.08064 4.75645 7.16854 4.66854C7.25645 4.58064 7.37568 4.53125 7.5 4.53125Z" fill="#CBF5BD"/>
<path d="M7.5 1.71875V0.71875V1.71875ZM1.71875 7.5H0.71875H1.71875ZM7.5 13.2812V14.2812V13.2812ZM7.5 4.53125V3.53125V4.53125ZM7.96875 7.30625H6.96875V7.72046L7.26164 8.01336L7.96875 7.30625ZM9.39375 8.73125L8.68664 9.43836L8.69912 9.45083L8.71203 9.46286L9.39375 8.73125ZM8.73125 9.39375L9.46286 8.71203L9.45083 8.69912L9.43836 8.68664L8.73125 9.39375ZM7.16875 7.83125L7.87586 7.12414L7.87542 7.1237L7.16875 7.83125ZM7.03125 7.5H6.03125L6.03125 7.50088L7.03125 7.5ZM7.03125 5H8.03125H7.03125ZM7.5 1.71875V0.71875C5.7015 0.71875 3.97666 1.4332 2.70493 2.70493L3.41204 3.41204L4.11915 4.11915C5.0158 3.22249 6.23193 2.71875 7.5 2.71875V1.71875ZM3.41204 3.41204L2.70493 2.70493C1.4332 3.97666 0.71875 5.7015 0.71875 7.5H1.71875H2.71875C2.71875 6.23193 3.22249 5.0158 4.11915 4.11915L3.41204 3.41204ZM1.71875 7.5H0.71875C0.71875 9.2985 1.4332 11.0233 2.70493 12.2951L3.41204 11.588L4.11915 10.8809C3.22249 9.9842 2.71875 8.76807 2.71875 7.5H1.71875ZM3.41204 11.588L2.70493 12.2951C3.97666 13.5668 5.7015 14.2812 7.5 14.2812V13.2812V12.2812C6.23193 12.2812 5.0158 11.7775 4.11915 10.8809L3.41204 11.588ZM7.5 13.2812V14.2812C9.2985 14.2812 11.0233 13.5668 12.2951 12.2951L11.588 11.588L10.8809 10.8809C9.9842 11.7775 8.76807 12.2812 7.5 12.2812V13.2812ZM11.588 11.588L12.2951 12.2951C13.5668 11.0233 14.2812 9.2985 14.2812 7.5H13.2812H12.2812C12.2812 8.76807 11.7775 9.9842 10.8809 10.8809L11.588 11.588ZM13.2812 7.5H14.2812C14.2812 5.7015 13.5668 3.97666 12.2951 2.70493L11.588 3.41204L10.8809 4.11915C11.7775 5.0158 12.2812 6.23193 12.2812 7.5H13.2812ZM11.588 3.41204L12.2951 2.70493C11.0233 1.4332 9.2985 0.71875 7.5 0.71875V1.71875V2.71875C8.76807 2.71875 9.9842 3.22249 10.8809 4.11915L11.588 3.41204ZM0.78125 7.5H1.78125C1.78125 4.34166 4.34166 1.78125 7.5 1.78125V0.78125V-0.21875C3.23709 -0.21875 -0.21875 3.23709 -0.21875 7.5H0.78125ZM7.5 0.78125V1.78125C10.6583 1.78125 13.2188 4.34166 13.2188 7.5H14.2188H15.2188C15.2188 3.23709 11.7629 -0.21875 7.5 -0.21875V0.78125ZM14.2188 7.5H13.2188C13.2188 10.6583 10.6583 13.2188 7.5 13.2188V14.2188V15.2188C11.7629 15.2188 15.2188 11.7629 15.2188 7.5H14.2188ZM7.5 14.2188V13.2188C4.34166 13.2188 1.78125 10.6583 1.78125 7.5H0.78125H-0.21875C-0.21875 11.7629 3.23709 15.2188 7.5 15.2188V14.2188ZM7.5 4.53125V5.53125C7.3591 5.53125 7.22398 5.47528 7.12435 5.37565L7.83146 4.66854L8.53856 3.96144C8.26312 3.68599 7.88954 3.53125 7.5 3.53125V4.53125ZM7.83146 4.66854L7.12435 5.37565C7.02472 5.27602 6.96875 5.1409 6.96875 5H7.96875H8.96875C8.96875 4.61046 8.81401 4.23688 8.53856 3.96144L7.83146 4.66854ZM7.96875 5H6.96875V7.30625H7.96875H8.96875V5H7.96875ZM7.96875 7.30625L7.26164 8.01336L8.68664 9.43836L9.39375 8.73125L10.1009 8.02414L8.67586 6.59914L7.96875 7.30625ZM9.39375 8.73125L8.71203 9.46286C8.65983 9.41423 8.61797 9.35558 8.58893 9.29041L9.50236 8.88341L10.4158 8.47642C10.3355 8.29625 10.2198 8.1341 10.0755 7.99964L9.39375 8.73125ZM9.50236 8.88341L8.58893 9.29041C8.5599 9.22524 8.54428 9.1549 8.54303 9.08356L9.54287 9.06592L10.5427 9.04828C10.5392 8.85107 10.4961 8.65658 10.4158 8.47642L9.50236 8.88341ZM9.54287 9.06592L8.54303 9.08356C8.54177 9.01223 8.55489 8.94138 8.58161 8.87523L9.50883 9.24975L10.436 9.62427C10.5099 9.44138 10.5462 9.24549 10.5427 9.04828L9.54287 9.06592ZM9.50883 9.24975L8.58161 8.87523C8.60833 8.80907 8.6481 8.74898 8.69854 8.69854L9.40565 9.40565L10.1128 10.1128C10.2522 9.97329 10.3622 9.80716 10.436 9.62427L9.50883 9.24975ZM9.40565 9.40565L8.69854 8.69854C8.74898 8.6481 8.80907 8.60833 8.87523 8.58161L9.24975 9.50883L9.62427 10.436C9.80716 10.3622 9.97329 10.2522 10.1128 10.1128L9.40565 9.40565ZM9.24975 9.50883L8.87523 8.58161C8.94138 8.55489 9.01223 8.54177 9.08356 8.54303L9.06592 9.54287L9.04828 10.5427C9.24549 10.5462 9.44138 10.5099 9.62427 10.436L9.24975 9.50883ZM9.06592 9.54287L9.08356 8.54303C9.1549 8.54428 9.22524 8.5599 9.29041 8.58893L8.88341 9.50236L8.47642 10.4158C8.65658 10.4961 8.85107 10.5392 9.04828 10.5427L9.06592 9.54287ZM8.88341 9.50236L9.29041 8.58893C9.35558 8.61797 9.41423 8.65983 9.46286 8.71203L8.73125 9.39375L7.99964 10.0755C8.1341 10.2198 8.29625 10.3355 8.47642 10.4158L8.88341 9.50236ZM8.73125 9.39375L9.43836 8.68664L7.87586 7.12414L7.16875 7.83125L6.46164 8.53836L8.02414 10.1009L8.73125 9.39375ZM7.16875 7.83125L7.87542 7.1237C7.97507 7.22324 8.03113 7.35827 8.03125 7.49912L7.03125 7.5L6.03125 7.50088C6.03159 7.89029 6.18656 8.26362 6.46208 8.5388L7.16875 7.83125ZM7.03125 7.5H8.03125V5H7.03125H6.03125V7.5H7.03125ZM7.03125 5H8.03125C8.03125 5.1409 7.97528 5.27602 7.87565 5.37565L7.16854 4.66854L6.46144 3.96144C6.18599 4.23688 6.03125 4.61046 6.03125 5H7.03125ZM7.16854 4.66854L7.87565 5.37565C7.77602 5.47528 7.6409 5.53125 7.5 5.53125V4.53125V3.53125C7.11046 3.53125 6.73688 3.68599 6.46144 3.96144L7.16854 4.66854Z" fill="#CBF5BD" mask="url(#path-1-inside-1_7878_17042)"/>
</svg>
