<svg width="30" height="30" viewBox="0 0 30 30" fill="none" xmlns="http://www.w3.org/2000/svg">
<path d="M14.2495 18.2379L13.7944 18.1969C12.8608 18.1125 11.9886 17.936 11.1753 17.6862L10.8149 17.5748L10.6099 17.8912L9.38232 19.778C9.27258 19.9416 9.10271 20.0558 8.90967 20.0953C8.71658 20.1348 8.51528 20.0964 8.3501 19.9889C8.18488 19.8813 8.06895 19.7127 8.02686 19.5201C7.98476 19.3275 8.01922 19.1253 8.12451 18.9586L9.09912 17.4625L9.39697 17.0045L8.91357 16.7487C8.0698 16.3014 7.30686 15.7812 6.62256 15.2301L6.27295 14.9489L5.95459 15.2662L4.90479 16.316L4.89893 16.3229C4.82981 16.3944 4.74714 16.4516 4.65576 16.4908C4.56426 16.5302 4.46531 16.5505 4.36572 16.5514C4.26629 16.5522 4.16772 16.5334 4.07568 16.4957C3.98354 16.458 3.9 16.4021 3.82959 16.3317C3.75918 16.2613 3.70324 16.1777 3.66553 16.0856C3.62787 15.9935 3.60906 15.895 3.60986 15.7955C3.61073 15.6959 3.6311 15.597 3.67041 15.5055C3.70969 15.4141 3.76684 15.3315 3.83838 15.2623L5.18018 13.9205L4.85596 13.568C3.82841 12.4492 3.07646 11.3371 2.57666 10.4996C2.33559 10.0927 2.15183 9.74757 2.02588 9.49768L2.69775 9.20959L2.30225 8.29065L2.03857 8.40393C1.94717 8.4431 1.86503 8.47786 1.7915 8.5094C1.79567 8.49714 1.7984 8.48438 1.80322 8.47229C1.87694 8.28744 2.02078 8.13877 2.20361 8.06018C2.3864 7.98168 2.59304 7.97965 2.77783 8.05334C2.96018 8.1261 3.10572 8.26755 3.18506 8.4469L3.18799 8.45471L3.20068 8.48206C3.35287 8.80197 3.51623 9.11673 3.68994 9.42542L3.86768 9.73303C4.48201 10.7651 5.20228 11.7305 6.01709 12.6129L6.01807 12.6139C6.25256 12.8668 6.49574 13.1115 6.74658 13.3483L6.75244 13.3531L6.78174 13.3815C8.61319 15.0957 11.1555 16.6001 14.4995 16.7379V21.1793C14.49 21.1708 14.4783 21.164 14.4692 21.1549C14.3288 21.0143 14.2495 20.8234 14.2495 20.6246V18.2379Z" fill="#F04438" stroke="#F04438"/>
<g opacity="0.5">
<mask id="path-2-inside-1_7167_2809" fill="white">
<path d="M19.025 15.4975C17.7431 16.0009 16.3772 16.2563 15 16.25V21.875C15.3315 21.875 15.6495 21.7433 15.8839 21.5089C16.1183 21.2745 16.25 20.9565 16.25 20.625V18.695C17.215 18.6075 18.1212 18.4238 18.97 18.1638L20.2025 20.0575C20.3855 20.3304 20.6686 20.5203 20.9905 20.5861C21.3124 20.6518 21.6473 20.5882 21.9226 20.409C22.198 20.2297 22.3917 19.9492 22.4619 19.6282C22.532 19.3073 22.473 18.9715 22.2975 18.6938L21.32 17.19C22.1962 16.7275 22.985 16.19 23.6912 15.62L24.7412 16.67C24.8566 16.7894 24.9945 16.8846 25.147 16.9501C25.2995 17.0156 25.4635 17.0501 25.6295 17.0516C25.7955 17.053 25.9601 17.0214 26.1137 16.9585C26.2673 16.8957 26.4069 16.8029 26.5242 16.6855C26.6416 16.5681 26.7344 16.4286 26.7973 16.275C26.8601 16.1213 26.8918 15.9567 26.8903 15.7908C26.8889 15.6248 26.8544 15.4608 26.7889 15.3083C26.7234 15.1558 26.6281 15.0178 26.5088 14.9025L25.5125 13.905C26.6476 12.6633 27.615 11.2782 28.39 9.78501C28.4728 9.62218 28.552 9.45756 28.6275 9.29126L28.6413 9.25876L28.6462 9.24876L28.6488 9.24251C28.7162 9.09121 28.7529 8.92801 28.7567 8.7624C28.7605 8.5968 28.7314 8.43208 28.671 8.27784C28.6105 8.12359 28.5201 7.98289 28.4048 7.86391C28.2896 7.74493 28.1518 7.65005 27.9996 7.58478C27.8473 7.5195 27.6836 7.48514 27.518 7.48369C27.3523 7.48224 27.188 7.51373 27.0347 7.57632C26.8813 7.63892 26.7419 7.73137 26.6246 7.84831C26.5073 7.96525 26.4143 8.10435 26.3512 8.25751L26.345 8.27126C26.2884 8.3991 26.2275 8.525 26.1625 8.64876C25.3255 10.2721 24.2209 11.7427 22.895 12.9988C21.8438 13.9863 20.5575 14.895 19.0262 15.4988"/>
</mask>
<path d="M19.025 15.4975C17.7431 16.0009 16.3772 16.2563 15 16.25V21.875C15.3315 21.875 15.6495 21.7433 15.8839 21.5089C16.1183 21.2745 16.25 20.9565 16.25 20.625V18.695C17.215 18.6075 18.1212 18.4238 18.97 18.1638L20.2025 20.0575C20.3855 20.3304 20.6686 20.5203 20.9905 20.5861C21.3124 20.6518 21.6473 20.5882 21.9226 20.409C22.198 20.2297 22.3917 19.9492 22.4619 19.6282C22.532 19.3073 22.473 18.9715 22.2975 18.6938L21.32 17.19C22.1962 16.7275 22.985 16.19 23.6912 15.62L24.7412 16.67C24.8566 16.7894 24.9945 16.8846 25.147 16.9501C25.2995 17.0156 25.4635 17.0501 25.6295 17.0516C25.7955 17.053 25.9601 17.0214 26.1137 16.9585C26.2673 16.8957 26.4069 16.8029 26.5242 16.6855C26.6416 16.5681 26.7344 16.4286 26.7973 16.275C26.8601 16.1213 26.8918 15.9567 26.8903 15.7908C26.8889 15.6248 26.8544 15.4608 26.7889 15.3083C26.7234 15.1558 26.6281 15.0178 26.5088 14.9025L25.5125 13.905C26.6476 12.6633 27.615 11.2782 28.39 9.78501C28.4728 9.62218 28.552 9.45756 28.6275 9.29126L28.6413 9.25876L28.6462 9.24876L28.6488 9.24251C28.7162 9.09121 28.7529 8.92801 28.7567 8.7624C28.7605 8.5968 28.7314 8.43208 28.671 8.27784C28.6105 8.12359 28.5201 7.98289 28.4048 7.86391C28.2896 7.74493 28.1518 7.65005 27.9996 7.58478C27.8473 7.5195 27.6836 7.48514 27.518 7.48369C27.3523 7.48224 27.188 7.51373 27.0347 7.57632C26.8813 7.63892 26.7419 7.73137 26.6246 7.84831C26.5073 7.96525 26.4143 8.10435 26.3512 8.25751L26.345 8.27126C26.2884 8.3991 26.2275 8.525 26.1625 8.64876C25.3255 10.2721 24.2209 11.7427 22.895 12.9988C21.8438 13.9863 20.5575 14.895 19.0262 15.4988" fill="#F04438"/>
<path d="M15 16.25L15.0046 15.25L14 15.2454V16.25H15ZM15 21.875H14V22.875H15V21.875ZM16.25 18.695L16.1597 17.6991L15.25 17.7816V18.695H16.25ZM18.97 18.1638L19.8081 17.6183L19.3973 16.987L18.6771 17.2076L18.97 18.1638ZM20.2025 20.0575L19.3643 20.603L19.3719 20.6144L20.2025 20.0575ZM22.2975 18.6938L23.143 18.1596L23.1359 18.1487L22.2975 18.6938ZM21.32 17.19L20.8532 16.3056L19.8847 16.8168L20.4816 17.735L21.32 17.19ZM23.6912 15.62L24.3984 14.9129L23.7627 14.2773L23.0632 14.8418L23.6912 15.62ZM24.7412 16.67L25.4605 15.9753L25.4545 15.9691L25.4484 15.9629L24.7412 16.67ZM26.5088 14.9025L25.8012 15.6092L25.8076 15.6155L25.814 15.6218L26.5088 14.9025ZM25.5125 13.905L24.7744 13.2303L24.1297 13.9356L24.8049 14.6117L25.5125 13.905ZM28.39 9.78501L29.2776 10.2457L29.2815 10.2381L28.39 9.78501ZM28.6275 9.29126L29.538 9.70488L29.5434 9.69295L29.5485 9.68089L28.6275 9.29126ZM28.6413 9.25876L27.7468 8.81157L27.7326 8.83993L27.7203 8.86913L28.6413 9.25876ZM28.6462 9.24876L29.5407 9.69595L29.5593 9.65882L29.5747 9.62027L28.6462 9.24876ZM28.6488 9.24251L27.7354 8.83542L27.7275 8.85306L27.7203 8.871L28.6488 9.24251ZM26.3512 8.25751L27.2616 8.67125L27.269 8.65496L27.2759 8.63842L26.3512 8.25751ZM26.345 8.27126L25.4346 7.8575L25.4306 7.86646L26.345 8.27126ZM26.1625 8.64876L25.2773 8.18354L25.2737 8.19049L26.1625 8.64876ZM22.895 12.9988L23.5797 13.7276L23.5827 13.7247L22.895 12.9988ZM19.025 15.4975L18.6595 14.5667C17.4954 15.0239 16.2551 15.2557 15.0046 15.25L15 16.25L14.9954 17.25C16.4993 17.2569 17.9908 16.978 19.3905 16.4283L19.025 15.4975ZM15 16.25H14V21.875H15H16V16.25H15ZM15 21.875V22.875C15.5967 22.875 16.169 22.638 16.591 22.216L15.8839 21.5089L15.1768 20.8018C15.1299 20.8487 15.0663 20.875 15 20.875V21.875ZM15.8839 21.5089L16.591 22.216C17.0129 21.794 17.25 21.2217 17.25 20.625H16.25H15.25C15.25 20.6913 15.2237 20.7549 15.1768 20.8018L15.8839 21.5089ZM16.25 20.625H17.25V18.695H16.25H15.25V20.625H16.25ZM16.25 18.695L16.3403 19.6909C17.3751 19.5971 18.3492 19.3998 19.2629 19.1199L18.97 18.1638L18.6771 17.2076C17.8933 17.4477 17.0549 17.6179 16.1597 17.6991L16.25 18.695ZM18.97 18.1638L18.1319 18.7092L19.3644 20.603L20.2025 20.0575L21.0406 19.512L19.8081 17.6183L18.97 18.1638ZM20.2025 20.0575L19.3719 20.6144C19.7013 21.1056 20.2109 21.4474 20.7903 21.5658L20.9905 20.5861L21.1907 19.6063C21.1263 19.5931 21.0697 19.5552 21.0331 19.5006L20.2025 20.0575ZM20.9905 20.5861L20.7903 21.5658C21.3698 21.6842 21.9725 21.5697 22.4682 21.247L21.9226 20.409L21.3771 19.5709C21.322 19.6067 21.255 19.6195 21.1907 19.6063L20.9905 20.5861ZM21.9226 20.409L22.4682 21.247C22.9639 20.9244 23.3125 20.4195 23.4388 19.8418L22.4619 19.6282L21.4849 19.4147C21.4709 19.4789 21.4322 19.535 21.3771 19.5709L21.9226 20.409ZM22.4619 19.6282L23.4388 19.8418C23.5651 19.264 23.4588 18.6597 23.1429 18.1597L22.2975 18.6938L21.4521 19.2278C21.4872 19.2834 21.499 19.3505 21.4849 19.4147L22.4619 19.6282ZM22.2975 18.6938L23.1359 18.1487L22.1584 16.645L21.32 17.19L20.4816 17.735L21.4591 19.2388L22.2975 18.6938ZM21.32 17.19L21.7868 18.0744C22.7268 17.5782 23.5691 17.0036 24.3193 16.3982L23.6912 15.62L23.0632 14.8418C22.4009 15.3764 21.6657 15.8768 20.8532 16.3056L21.32 17.19ZM23.6912 15.62L22.9841 16.3271L24.0341 17.3771L24.7412 16.67L25.4484 15.9629L24.3984 14.9129L23.6912 15.62ZM24.7412 16.67L24.022 17.3647C24.2295 17.5796 24.4778 17.751 24.7523 17.869L25.147 16.9501L25.5417 16.0313C25.5112 16.0182 25.4836 15.9992 25.4605 15.9753L24.7412 16.67ZM25.147 16.9501L24.7523 17.869C25.0268 17.9869 25.3221 18.0489 25.6208 18.0515L25.6295 17.0516L25.6382 16.0516C25.605 16.0513 25.5722 16.0444 25.5417 16.0313L25.147 16.9501ZM25.6295 17.0516L25.6208 18.0515C25.9196 18.0541 26.2158 17.9972 26.4924 17.8841L26.1137 16.9585L25.735 16.033C25.7043 16.0456 25.6714 16.0519 25.6382 16.0516L25.6295 17.0516ZM26.1137 16.9585L26.4924 17.8841C26.7689 17.7709 27.0201 17.6039 27.2313 17.3926L26.5242 16.6855L25.8171 15.9784C25.7937 16.0019 25.7658 16.0204 25.735 16.033L26.1137 16.9585ZM26.5242 16.6855L27.2313 17.3926C27.4426 17.1814 27.6097 16.9301 27.7228 16.6536L26.7973 16.275L25.8717 15.8963C25.8592 15.927 25.8406 15.9549 25.8171 15.9784L26.5242 16.6855ZM26.7973 16.275L27.7228 16.6536C27.8359 16.3771 27.8929 16.0808 27.8903 15.7821L26.8903 15.7908L25.8904 15.7994C25.8906 15.8326 25.8843 15.8656 25.8717 15.8963L26.7973 16.275ZM26.8903 15.7908L27.8903 15.7821C27.8877 15.4833 27.8256 15.1881 27.7077 14.9136L26.7889 15.3083L25.8701 15.7029C25.8832 15.7335 25.8901 15.7663 25.8904 15.7994L26.8903 15.7908ZM26.7889 15.3083L27.7077 14.9136C27.5898 14.6391 27.4184 14.3908 27.2035 14.1832L26.5088 14.9025L25.814 15.6218C25.8379 15.6449 25.857 15.6724 25.8701 15.7029L26.7889 15.3083ZM26.5088 14.9025L27.2163 14.1958L26.22 13.1983L25.5125 13.905L24.8049 14.6117L25.8012 15.6092L26.5088 14.9025ZM25.5125 13.905L26.2506 14.5797C27.4446 13.2735 28.4623 11.8164 29.2776 10.2457L28.39 9.78501L27.5024 9.32433C26.7677 10.7399 25.8505 12.0531 24.7744 13.2303L25.5125 13.905ZM28.39 9.78501L29.2815 10.2381C29.3708 10.0623 29.4564 9.88448 29.538 9.70488L28.6275 9.29126L27.7171 8.87764C27.6475 9.03064 27.5747 9.18209 27.4985 9.33189L28.39 9.78501ZM28.6275 9.29126L29.5485 9.68089L29.5622 9.64839L28.6413 9.25876L27.7203 8.86913L27.7065 8.90163L28.6275 9.29126ZM28.6413 9.25876L29.5357 9.70595L29.5407 9.69595L28.6462 9.24876L27.7518 8.80157L27.7468 8.81157L28.6413 9.25876ZM28.6462 9.24876L29.5747 9.62027L29.5772 9.61402L28.6488 9.24251L27.7203 8.871L27.7178 8.87725L28.6462 9.24876ZM28.6488 9.24251L29.5621 9.64961C29.6835 9.37726 29.7496 9.0835 29.7564 8.78541L28.7567 8.7624L27.757 8.73939C27.7562 8.77252 27.7489 8.80516 27.7354 8.83542L28.6488 9.24251ZM28.7567 8.7624L29.7564 8.78541C29.7633 8.48732 29.7108 8.19084 29.6021 7.91319L28.671 8.27784L27.7398 8.64248C27.7519 8.67333 27.7577 8.70627 27.757 8.73939L28.7567 8.7624ZM28.671 8.27784L29.6021 7.91319C29.4934 7.63554 29.3305 7.38228 29.1231 7.16813L28.4048 7.86391L27.6866 8.5597C27.7096 8.5835 27.7277 8.61164 27.7398 8.64248L28.671 8.27784ZM28.4048 7.86391L29.1231 7.16813C28.9156 6.95397 28.6677 6.78318 28.3936 6.66568L27.9996 7.58478L27.6055 8.50387C27.636 8.51692 27.6635 8.5359 27.6866 8.5597L28.4048 7.86391ZM27.9996 7.58478L28.3936 6.66568C28.1196 6.54819 27.8249 6.48634 27.5267 6.48373L27.518 7.48369L27.5092 8.48365C27.5423 8.48394 27.5751 8.49081 27.6055 8.50387L27.9996 7.58478ZM27.518 7.48369L27.5267 6.48373C27.2286 6.48112 26.9329 6.53779 26.6568 6.65046L27.0347 7.57632L27.4125 8.50218C27.4432 8.48966 27.4761 8.48336 27.5092 8.48365L27.518 7.48369ZM27.0347 7.57632L26.6568 6.65046C26.3807 6.76314 26.1298 6.92956 25.9186 7.14005L26.6246 7.84831L27.3305 8.55658C27.354 8.53319 27.3819 8.5147 27.4125 8.50218L27.0347 7.57632ZM26.6246 7.84831L25.9186 7.14005C25.7075 7.35054 25.5402 7.60091 25.4266 7.87661L26.3512 8.25751L27.2759 8.63842C27.2885 8.60779 27.3071 8.57997 27.3305 8.55658L26.6246 7.84831ZM26.3512 8.25751L25.4409 7.84377L25.4346 7.85752L26.345 8.27126L27.2554 8.685L27.2616 8.67125L26.3512 8.25751ZM26.345 8.27126L25.4306 7.86646C25.3831 7.97384 25.3319 8.0796 25.2773 8.18356L26.1625 8.64876L27.0477 9.11397C27.1231 8.97041 27.1938 8.82436 27.2594 8.67607L26.345 8.27126ZM26.1625 8.64876L25.2737 8.19049C24.4882 9.71392 23.4516 11.094 22.2073 12.2728L22.895 12.9988L23.5827 13.7247C24.9902 12.3913 26.1628 10.8302 27.0513 9.10703L26.1625 8.64876ZM22.895 12.9988L22.2103 12.2699C21.2312 13.1897 20.0497 14.0203 18.6594 14.5685L19.0262 15.4988L19.3931 16.4291C21.0653 15.7697 22.4563 14.7828 23.5797 13.7276L22.895 12.9988Z" fill="#F04438" mask="url(#path-2-inside-1_7167_2809)"/>
</g>
</svg>
