<svg width="30" height="30" viewBox="0 0 30 30" fill="none" xmlns="http://www.w3.org/2000/svg">
<path opacity="0.5" d="M15 3C21.6276 3 27 8.37239 27 15C27 21.6276 21.6276 27 15 27C8.37239 27 3 21.6276 3 15C3 8.37239 8.37239 3 15 3Z" fill="#3A9E1B" stroke="#3A9E1B"/>
<path d="M14.5625 21.6855L14.1504 21.6113C12.2757 21.2754 10.8125 19.8958 10.8125 18.125C10.8125 18.009 10.8584 17.8975 10.9404 17.8154C11.0225 17.7334 11.134 17.6875 11.25 17.6875C11.366 17.6875 11.4775 17.7334 11.5596 17.8154C11.6416 17.8975 11.6875 18.009 11.6875 18.125C11.6875 19.5292 13.083 20.8125 15 20.8125C16.9184 20.8125 18.3125 19.529 18.3125 18.125C18.3125 16.721 16.9184 15.4375 15 15.4375C12.7599 15.4375 10.8125 13.9088 10.8125 11.875C10.8125 10.1042 12.2757 8.72463 14.1504 8.38867L14.5625 8.31445V7.5C14.5625 7.38397 14.6084 7.27248 14.6904 7.19043C14.7519 7.12895 14.8301 7.08813 14.9141 7.07129L15 7.0625C15.116 7.0625 15.2275 7.10838 15.3096 7.19043C15.3916 7.27248 15.4375 7.38397 15.4375 7.5V8.31445L15.8496 8.38867C17.7243 8.72463 19.1875 10.1042 19.1875 11.875C19.1875 11.991 19.1416 12.1025 19.0596 12.1846C18.9775 12.2666 18.866 12.3125 18.75 12.3125C18.634 12.3125 18.5225 12.2666 18.4404 12.1846C18.3584 12.1025 18.3125 11.991 18.3125 11.875C18.3125 10.471 16.9184 9.1875 15 9.1875C13.083 9.1875 11.6875 10.4708 11.6875 11.875C11.6875 13.2792 13.083 14.5625 15 14.5625C17.2401 14.5625 19.1875 16.0912 19.1875 18.125C19.1875 19.8958 17.7243 21.2754 15.8496 21.6113L15.4375 21.6855V22.5C15.4375 22.616 15.3916 22.7275 15.3096 22.8096C15.2275 22.8916 15.116 22.9375 15 22.9375C14.884 22.9375 14.7725 22.8916 14.6904 22.8096C14.6084 22.7275 14.5625 22.616 14.5625 22.5V21.6855Z" stroke="#3A9E1B"/>
</svg>
