<svg width="20" height="20" viewBox="0 0 20 20" fill="none" xmlns="http://www.w3.org/2000/svg">
<path d="M5 9.1665C5 6.80984 5 5.63067 5.7325 4.899C6.46417 4.1665 7.64333 4.1665 10 4.1665H12.5C14.8567 4.1665 16.0358 4.1665 16.7675 4.899C17.5 5.63067 17.5 6.80984 17.5 9.1665V13.3332C17.5 15.6898 17.5 16.869 16.7675 17.6007C16.0358 18.3332 14.8567 18.3332 12.5 18.3332H10C7.64333 18.3332 6.46417 18.3332 5.7325 17.6007C5 16.869 5 15.6898 5 13.3332V9.1665Z" stroke="#030319" stroke-width="1.5"/>
<path opacity="0.5" d="M5 15.8332C4.33696 15.8332 3.70107 15.5698 3.23223 15.1009C2.76339 14.6321 2.5 13.9962 2.5 13.3332V8.33317C2.5 5.19067 2.5 3.619 3.47667 2.64317C4.45333 1.66734 6.02417 1.6665 9.16667 1.6665H12.5C13.163 1.6665 13.7989 1.9299 14.2678 2.39874C14.7366 2.86758 15 3.50346 15 4.1665" stroke="black" stroke-width="1.5"/>
</svg>
