<svg width="30" height="30" viewBox="0 0 30 30" fill="none" xmlns="http://www.w3.org/2000/svg">
<path opacity="0.5" d="M14.9998 4.25C16.2156 4.25 17.2654 4.91291 18.5027 6.48438C19.4352 7.66876 20.4257 9.30585 21.6355 11.4209L22.9246 13.6973L23.3796 14.5029C24.9044 17.2066 26.0163 19.1811 26.5857 20.7236C27.1511 22.2554 27.1276 23.2174 26.5828 23.999C26.0227 24.8023 25.0157 25.268 23.1863 25.5088C21.3608 25.7491 18.8584 25.75 15.4548 25.75H14.5447C11.1415 25.75 8.63958 25.749 6.81421 25.5088C4.9848 25.268 3.97777 24.8023 3.41772 23.999C2.87271 23.2173 2.84935 22.2556 3.41479 20.7236C3.98421 19.1811 5.09611 17.2066 6.62085 14.5029L6.61987 14.502L7.07495 13.6982H7.07593C8.90825 10.4487 10.2543 8.06377 11.4978 6.48438C12.7351 4.91287 13.7847 4.25011 14.9998 4.25Z" fill="#F04438" stroke="#F04438"/>
<path d="M15 19.25C15.1989 19.25 15.3896 19.3291 15.5303 19.4697C15.6709 19.6104 15.75 19.8011 15.75 20C15.75 20.1989 15.6709 20.3896 15.5303 20.5303C15.3896 20.6709 15.1989 20.75 15 20.75C14.8011 20.75 14.6104 20.6709 14.4697 20.5303C14.3291 20.3896 14.25 20.1989 14.25 20C14.25 19.8011 14.3291 19.6104 14.4697 19.4697C14.6104 19.3291 14.8011 19.25 15 19.25ZM15 9.5625C15.116 9.5625 15.2275 9.60838 15.3096 9.69043C15.3916 9.77248 15.4375 9.88397 15.4375 10V16.25C15.4375 16.366 15.3916 16.4775 15.3096 16.5596C15.2275 16.6416 15.116 16.6875 15 16.6875C14.884 16.6875 14.7725 16.6416 14.6904 16.5596C14.6084 16.4775 14.5625 16.366 14.5625 16.25V10C14.5625 9.88397 14.6084 9.77248 14.6904 9.69043C14.7519 9.62895 14.8301 9.58813 14.9141 9.57129L15 9.5625Z" fill="#F04438" stroke="#F04438"/>
</svg>
