<svg width="20" height="20" viewBox="0 0 20 20" fill="none" xmlns="http://www.w3.org/2000/svg">
<path d="M7.64175 3.33375C7.81392 2.8458 8.1332 2.42328 8.55558 2.12441C8.97797 1.82554 9.48265 1.66504 10.0001 1.66504C10.5175 1.66504 11.0222 1.82554 11.4446 2.12441C11.867 2.42328 12.1862 2.8458 12.3584 3.33375M17.0834 5.00041H2.91675M15.3117 12.8337C15.1642 15.0454 15.0901 16.1512 14.3692 16.8254C13.6484 17.4996 12.5401 17.5004 10.3226 17.5004H9.67758C7.46091 17.5004 6.35258 17.5004 5.63091 16.8254C4.91008 16.1512 4.83675 15.0454 4.68925 12.8337L4.30591 7.08375M15.6942 7.08375L15.5276 9.58375M7.91675 9.16708L8.33341 13.3337M12.0834 9.16708L11.6667 13.3337" stroke="#030319" stroke-width="1.5" stroke-linecap="round"/>
</svg>
