<svg width="20" height="20" viewBox="0 0 20 20" fill="none" xmlns="http://www.w3.org/2000/svg">
<path d="M12.5 10H1.66667M1.66667 10L4.58334 7.5M1.66667 10L4.58334 12.5" stroke="#030319" stroke-width="1.5" stroke-linecap="round" stroke-linejoin="round"/>
<path d="M7.50168 5.83341C7.51168 4.02091 7.59251 3.03925 8.23251 2.39925C8.96501 1.66675 10.1433 1.66675 12.5 1.66675H13.3333C15.6908 1.66675 16.8692 1.66675 17.6017 2.39925C18.3333 3.13091 18.3333 4.31008 18.3333 6.66675V13.3334C18.3333 15.6901 18.3333 16.8692 17.6017 17.6009C16.9608 18.2417 15.9792 18.3217 14.1667 18.3317M7.50168 14.1667C7.51168 15.9792 7.59251 16.9609 8.23251 17.6009C8.76668 18.1359 9.53918 18.2801 10.8333 18.3192" stroke="black" stroke-width="1.5" stroke-linecap="round"/>
</svg>
