<svg width="24" height="24" viewBox="0 0 24 24" fill="none" xmlns="http://www.w3.org/2000/svg">
<path d="M9 13.5C9.82843 13.5 10.5 12.8284 10.5 12C10.5 11.1716 9.82843 10.5 9 10.5C8.17157 10.5 7.5 11.1716 7.5 12C7.5 12.8284 8.17157 13.5 9 13.5Z" fill="#A6EC90"/>
<path d="M15 13.5C15.8284 13.5 16.5 12.8284 16.5 12C16.5 11.1716 15.8284 10.5 15 10.5C14.1716 10.5 13.5 11.1716 13.5 12C13.5 12.8284 14.1716 13.5 15 13.5Z" fill="#A6EC90"/>
<path d="M15.5 17.5L16.5 19.5C16.5 19.5 20.67 18.17 22 16C22 15 22.53 7.85 19 5.5C17.5 4.5 15 4 15 4L14 6H12H9.99997L9.02997 4C9.02997 4 6.52997 4.5 5.02997 5.5C1.49997 7.85 2.02997 15 2.02997 16C3.35997 18.17 7.52997 19.5 7.52997 19.5L8.52997 17.5" stroke="#A6EC90" stroke-width="2" stroke-linecap="round" stroke-linejoin="round"/>
<path d="M5.5 16C10.5 18.5 13.5 18.5 18.5 16" stroke="#A6EC90" stroke-width="2" stroke-linecap="round" stroke-linejoin="round"/>
</svg>
