<svg width="20" height="20" viewBox="0 0 20 20" fill="none" xmlns="http://www.w3.org/2000/svg">
<path opacity="0.5" d="M18.3334 8.75033V10.0003C18.3334 13.9287 18.3334 15.8928 17.1126 17.1128C15.8934 18.3337 13.9284 18.3337 10.0001 18.3337C6.07175 18.3337 4.10758 18.3337 2.88675 17.1128C1.66675 15.8937 1.66675 13.9287 1.66675 10.0003C1.66675 6.07199 1.66675 4.10783 2.88675 2.88699C4.10841 1.66699 6.07175 1.66699 10.0001 1.66699H11.2501" stroke="#030319" stroke-width="1.5" stroke-linecap="round"/>
<path d="M14.4169 2.33844L13.8769 2.88011L8.90602 7.85011C8.56936 8.18678 8.40102 8.35511 8.25602 8.54094C8.08491 8.76039 7.93936 8.99594 7.81936 9.24761C7.71852 9.46011 7.64352 9.68594 7.49269 10.1376L7.01019 11.5834L6.69852 12.5193C6.66198 12.6284 6.6566 12.7455 6.68298 12.8575C6.70936 12.9694 6.76645 13.0718 6.84784 13.1531C6.92923 13.2344 7.03169 13.2914 7.14369 13.3177C7.2557 13.3439 7.37281 13.3384 7.48186 13.3018L8.41686 12.9901L9.86269 12.5076C10.3144 12.3576 10.5402 12.2826 10.7527 12.1809C11.0044 12.0604 11.2399 11.9148 11.4594 11.7443C11.6452 11.5993 11.8135 11.4309 12.151 11.0943L17.121 6.12344L17.6619 5.58261C18.0921 5.1523 18.3337 4.56871 18.3336 3.96023C18.3335 3.35175 18.0918 2.76823 17.6614 2.33803C17.2311 1.90782 16.6475 1.66618 16.0391 1.66626C15.4306 1.66634 14.8471 1.90813 14.4169 2.33844Z" stroke="black" stroke-width="1.5"/>
<path opacity="0.5" d="M13.8768 2.87939C13.8768 2.87939 13.9443 4.02856 14.9585 5.04189C15.9718 6.05606 17.121 6.12356 17.121 6.12356M8.41682 12.9902L7.01099 11.5836" stroke="black" stroke-width="1.5"/>
</svg>
