<svg width="24" height="24" viewBox="0 0 24 24" fill="none" xmlns="http://www.w3.org/2000/svg">
<path d="M5 3.5H17.793L8.9375 12.3545C8.77483 12.1175 8.5811 11.9013 8.35938 11.7148H8.3584C8.22184 11.5972 8.06115 11.4865 7.85938 11.3633L7.10059 10.9268L4.1875 9.28613H4.18652C3.70405 9.01515 3.37235 8.82761 3.12695 8.65723C2.88999 8.49263 2.76814 8.36651 2.68848 8.23438V8.2334C2.60929 8.1021 2.55824 7.94343 2.53027 7.67383C2.50105 7.39185 2.5 7.03211 2.5 6.50293V5.81348C2.5 5.13543 2.50108 4.67935 2.5498 4.33984C2.59598 4.01845 2.67635 3.87551 2.78223 3.77637V3.77539C2.89168 3.67276 3.05744 3.59297 3.41602 3.54785C3.7859 3.50132 4.27924 3.5 5 3.5Z" fill="black" stroke="#030319"/>
<path opacity="0.5" d="M21.9999 6.504V5.814C21.9999 4.488 21.9999 3.824 21.5599 3.412C21.1219 3 20.4149 3 18.9999 3L8.81494 13.184C8.86494 13.3127 8.90528 13.447 8.93594 13.587C8.99994 13.872 8.99994 14.206 8.99994 14.873V17.543C8.99994 18.452 8.99994 18.907 9.25194 19.261C9.50394 19.616 9.95194 19.791 10.8459 20.141C12.7249 20.875 13.6639 21.242 14.3319 20.824C14.9999 20.406 14.9999 19.452 14.9999 17.542V14.872C14.9999 14.206 14.9999 13.872 15.0629 13.587C15.1888 13.004 15.5055 12.4797 15.9629 12.097C16.1899 11.9 16.5079 11.721 17.1449 11.362L20.0579 9.722C21.0059 9.189 21.4809 8.922 21.7399 8.492C21.9999 8.062 21.9999 7.542 21.9999 6.504Z" fill="black"/>
</svg>
