<svg width="20" height="20" viewBox="0 0 20 20" fill="none" xmlns="http://www.w3.org/2000/svg">
<path d="M1.66675 10.4167L3.12675 9.13924C3.4927 8.8193 3.96654 8.65035 4.45235 8.6666C4.93816 8.68284 5.39966 8.88307 5.74341 9.22674L9.31841 12.8017C9.59584 13.0791 9.96221 13.2497 10.353 13.2836C10.7439 13.3174 11.1341 13.2123 11.4551 12.9867L11.7042 12.8117C12.1672 12.4866 12.7268 12.328 13.2916 12.3621C13.8564 12.3962 14.3929 12.6208 14.8134 12.9992L17.5001 15.4167" stroke="#030319" stroke-width="1.5" stroke-linecap="round"/>
<path d="M15.4684 2.44584L15.8159 2.09834C16.0935 1.82686 16.467 1.67582 16.8553 1.678C17.2437 1.68018 17.6155 1.83541 17.89 2.11C18.1646 2.38458 18.3199 2.75637 18.322 3.14469C18.3242 3.53301 18.1732 3.90652 17.9017 4.18418L17.5542 4.53168M15.4684 2.44584C15.4684 2.44584 15.5117 3.18501 16.1634 3.83668C16.815 4.48834 17.5542 4.53168 17.5542 4.53168M15.4684 2.44584L12.2725 5.64168C12.0559 5.85834 11.9475 5.96668 11.8559 6.08584C11.746 6.22673 11.6516 6.37899 11.5742 6.54001C11.5092 6.67668 11.4609 6.82168 11.3642 7.11168L11.0542 8.04168M17.5542 4.53168L14.3584 7.72751C14.1417 7.94418 14.0334 8.05251 13.9142 8.14418C13.7733 8.25402 13.621 8.34845 13.46 8.42584C13.3234 8.49084 13.1784 8.53918 12.8884 8.63584L11.9584 8.94584M11.0542 8.04168L10.8534 8.64334C10.83 8.71341 10.8267 8.7886 10.8437 8.86046C10.8607 8.93233 10.8974 8.99803 10.9497 9.05021C11.0019 9.10239 11.0677 9.13897 11.1396 9.15587C11.2115 9.17276 11.2867 9.16929 11.3567 9.14584L11.9584 8.94584M11.0542 8.04168L11.9584 8.94584" stroke="black" stroke-width="1.5"/>
<path d="M18.3334 10.0001C18.3334 13.9284 18.3334 15.8926 17.1126 17.1126C15.8934 18.3334 13.9284 18.3334 10.0001 18.3334C6.07175 18.3334 4.10758 18.3334 2.88675 17.1126C1.66675 15.8934 1.66675 13.9284 1.66675 10.0001C1.66675 9.06008 1.66675 8.23175 1.68341 7.50008M10.0001 1.66675C6.07175 1.66675 4.10758 1.66675 2.88675 2.88675C2.53341 3.24091 2.28175 3.65758 2.10341 4.16675" stroke="black" stroke-width="1.5" stroke-linecap="round"/>
</svg>
