<svg width="30" height="30" viewBox="0 0 30 30" fill="none" xmlns="http://www.w3.org/2000/svg">
<path opacity="0.5" d="M10 13H20C21.7815 13 23.0677 13.001 24.0479 13.1328C24.8931 13.2465 25.4532 13.4511 25.875 13.7959L26.0479 13.9521C26.4887 14.3924 26.7373 14.9863 26.8672 15.9521C26.999 16.9323 27 18.2185 27 20C27 21.7815 26.999 23.0677 26.8672 24.0479C26.7535 24.8931 26.5489 25.4532 26.2041 25.875L26.0479 26.0479C25.6076 26.4887 25.0137 26.7373 24.0479 26.8672C23.0677 26.999 21.7815 27 20 27H10C8.21848 27 6.9323 26.999 5.95215 26.8672C5.10688 26.7535 4.54676 26.5489 4.125 26.2041L3.95215 26.0479C3.51135 25.6076 3.2627 25.0137 3.13281 24.0479C3.00102 23.0677 3 21.7815 3 20C3 18.2185 3.00102 16.9323 3.13281 15.9521C3.24649 15.1069 3.45113 14.5468 3.7959 14.125L3.95215 13.9521C4.39245 13.5113 4.98631 13.2627 5.95215 13.1328C6.9323 13.001 8.21848 13 10 13Z" fill="#F04438" stroke="#F04438"/>
<path d="M15 2.0625C17.1052 2.0625 19.1237 2.89913 20.6123 4.3877C22.1009 5.87627 22.9375 7.89484 22.9375 10V12.0371C22.6615 12.0247 22.3699 12.0191 22.0625 12.0137V10L22.0537 9.64941C21.967 7.90397 21.2357 6.24746 19.9941 5.00586C18.6697 3.68138 16.8731 2.9375 15 2.9375C13.1269 2.9375 11.3303 3.68138 10.0059 5.00586C8.68138 6.33034 7.9375 8.12691 7.9375 10V12.0137C7.64568 12.0192 7.35404 12.029 7.0625 12.043V10C7.0625 7.89484 7.89913 5.87627 9.3877 4.3877C10.8763 2.89913 12.8948 2.0625 15 2.0625Z" fill="#F04438" stroke="#F04438"/>
</svg>
