<svg width="237" height="207" viewBox="0 0 237 207" fill="none" xmlns="http://www.w3.org/2000/svg">
<path d="M105.145 207C163.215 207 210.291 204.252 210.291 200.861C210.291 197.471 163.215 194.722 105.145 194.722C47.0751 194.722 0 197.471 0 200.861C0 204.252 47.0751 207 105.145 207Z" fill="#F5F5F5"/>
<path opacity="0.2" d="M156.572 97.5319C147.384 101.101 137.345 101.866 127.722 99.7296C118.1 97.5931 109.327 92.6514 102.514 85.5292C95.6998 78.4071 91.151 69.4244 89.4423 59.717C87.7336 50.0097 88.9418 40.0136 92.9141 30.9929C96.8864 21.9722 103.444 14.332 111.759 9.03834C120.073 3.74469 129.771 1.03538 139.625 1.253C149.479 1.47062 159.047 4.6054 167.12 10.2609C175.193 15.9165 181.407 23.8388 184.977 33.0261C187.349 39.1266 188.495 45.6346 188.351 52.1782C188.207 58.7219 186.775 65.173 184.137 71.1632C181.499 77.1534 177.707 82.5652 172.977 87.0896C168.248 91.614 162.673 95.1623 156.572 97.5319Z" fill="#CBF5BD"/>
<path d="M183.835 77.941H184.377C184.481 77.941 184.562 77.8868 184.556 77.8163L184.302 75.5007C184.302 75.4356 184.204 75.376 184.096 75.376H183.553C183.445 75.376 183.363 75.4356 183.374 75.5007L183.624 77.8163C183.635 77.8868 183.705 77.941 183.835 77.941Z" fill="#263238"/>
<path opacity="0.1" d="M146.39 3.99932L107.301 92.7728C106.699 92.3172 106.103 91.8454 105.517 91.3682C101.739 88.2429 98.4492 84.5708 95.756 80.4735L129.519 3.79325C135.113 2.89232 140.82 2.96203 146.39 3.99932Z" fill="white"/>
<path d="M96.3308 19.4385C102.972 11.3242 111.869 5.36129 121.899 2.30387C131.928 -0.753553 142.639 -0.768199 152.677 2.26178C162.715 5.29177 171.629 11.2303 178.292 19.3264C184.955 27.4225 189.068 37.3126 190.11 47.7459C191.152 58.1793 189.077 68.6873 184.147 77.9413C179.216 87.1953 171.653 94.7795 162.413 99.7349C153.172 104.69 142.67 106.794 132.234 105.781C121.798 104.768 111.896 100.682 103.782 94.0418C92.902 85.1361 86.0049 72.2735 84.6076 58.2831C83.2103 44.2927 87.4272 30.3201 96.3308 19.4385ZM175.028 83.8412C181.124 76.39 184.873 67.2986 185.802 57.7166C186.731 48.1346 184.798 38.4923 180.247 30.009C175.696 21.5257 168.732 14.5824 160.235 10.057C151.738 5.53163 142.09 3.62743 132.51 4.5852C122.931 5.54296 113.851 9.31968 106.418 15.4378C98.9856 21.5559 93.5339 29.7406 90.7526 38.957C87.9713 48.1734 87.9854 58.0076 90.793 67.216C93.6006 76.4244 99.0757 84.5936 106.526 90.6904C111.473 94.7391 117.17 97.7736 123.29 99.6205C129.411 101.467 135.835 102.091 142.196 101.455C148.557 100.819 154.731 98.9359 160.364 95.9137C165.998 92.8916 170.981 88.7893 175.028 83.8412Z" fill="#CBF5BD"/>
<path d="M179.708 83.6568C184.931 86.775 189.898 90.2023 194.779 93.7381C199.659 97.2738 204.415 100.956 209.095 104.736C213.775 108.516 218.369 112.404 222.799 116.487C225.019 118.526 227.188 120.62 229.307 122.767C231.432 124.936 233.52 127.105 235.489 129.459C235.944 130.004 236.194 130.69 236.198 131.4C236.201 132.11 235.958 132.799 235.508 133.348C235.059 133.897 234.432 134.273 233.736 134.411C233.039 134.548 232.317 134.439 231.693 134.101C228.981 132.637 226.443 131.021 223.911 129.367C221.378 127.713 218.905 125.988 216.465 124.215C211.584 120.679 206.861 116.954 202.235 113.109C197.61 109.264 193.054 105.332 188.624 101.243C184.193 97.1545 179.849 92.968 175.761 88.467C175.25 87.9103 174.957 87.1881 174.936 86.4331C174.915 85.678 175.166 84.9405 175.645 84.356C176.123 83.7714 176.796 83.379 177.541 83.2505C178.285 83.1221 179.051 83.2664 179.698 83.6568H179.708Z" fill="#CBF5BD"/>
<path d="M136.512 99.6205C136.99 98.3143 137.853 97.1836 138.986 96.3773C140.12 95.5709 141.471 95.1268 142.862 95.1032H186.272C187.023 95.0751 187.77 95.2121 188.461 95.5043C189.153 95.7965 189.771 96.2369 190.274 96.7943C190.777 97.3518 191.151 98.0128 191.37 98.7307C191.59 99.4486 191.649 100.206 191.543 100.949L180.329 195.042C180.091 196.644 179.291 198.109 178.072 199.175C176.853 200.241 175.294 200.839 173.675 200.861H35.9324C35.1848 200.89 34.44 200.754 33.7506 200.464C33.0611 200.173 32.4436 199.735 31.9416 199.181C31.4397 198.626 31.0654 197.968 30.8451 197.253C30.6248 196.538 30.5639 195.783 30.6667 195.042L40.0701 115.987C40.3081 114.385 41.1081 112.92 42.3272 111.854C43.5462 110.788 45.1047 110.19 46.724 110.168H121.68C124.928 110.113 128.083 109.075 130.73 107.193C133.378 105.31 135.393 102.67 136.512 99.6205Z" fill="#CBF5BD"/>
<path d="M33.1449 196.528H177.075L185.274 99.6855H41.3498L33.1449 196.528Z" fill="#F0F0F0"/>
<path d="M33.1449 196.528H177.075L183.008 99.6855H41.3498L33.1449 196.528Z" fill="#E0E0E0"/>
<path d="M33.1449 196.528H177.075L182.021 96.6108H38.096L33.1449 196.528Z" fill="#F0F0F0"/>
<path d="M33.1449 196.528H177.075L179.033 96.6108H38.096L33.1449 196.528Z" fill="#E0E0E0"/>
<path d="M33.1449 196.528H177.075L177.932 93.8993H34.0071L33.1449 196.528Z" fill="#F0F0F0"/>
<path d="M33.1449 196.528H177.075L174.12 95.8407H31.1222L33.1449 196.528Z" fill="#E0E0E0"/>
<path d="M33.1449 196.528H177.075L172.802 96.6108H28.8771L33.1449 196.528Z" fill="#F0F0F0"/>
<path d="M33.145 196.528H177.075L170.269 98.1183H26.3446L33.145 196.528Z" fill="#E0E0E0"/>
<path d="M33.145 196.528H177.075L169.185 98.9589H25.26L33.145 196.528Z" fill="#F0F0F0"/>
<path d="M105.221 105.732C105.229 105.103 105.364 104.482 105.617 103.906C105.87 103.33 106.236 102.81 106.694 102.379C107.152 101.947 107.692 101.612 108.282 101.393C108.872 101.175 109.5 101.077 110.129 101.106H153.54C155.22 101.171 156.832 101.792 158.122 102.871C159.411 103.951 160.306 105.428 160.665 107.072L177.818 194.923C178.458 198.215 176.31 200.888 173.019 200.888H35.2762C31.979 200.888 28.7687 198.215 28.145 194.923L13.9966 122.5C13.3567 119.208 15.5042 116.535 18.7959 116.535H93.7571C100.265 116.535 104.999 112.055 105.221 105.732Z" fill="#CBF5BD"/>
<path opacity="0.2" d="M105.221 105.732C105.229 105.103 105.364 104.482 105.617 103.906C105.87 103.33 106.236 102.81 106.694 102.379C107.152 101.947 107.692 101.612 108.282 101.393C108.872 101.175 109.5 101.077 110.129 101.106H153.54C155.22 101.171 156.832 101.792 158.122 102.871C159.411 103.951 160.306 105.428 160.665 107.072L177.818 194.923C178.458 198.215 176.31 200.888 173.019 200.888H35.2762C31.979 200.888 28.7687 198.215 28.145 194.923L13.9966 122.5C13.3567 119.208 15.5042 116.535 18.7959 116.535H93.7571C100.265 116.535 104.999 112.055 105.221 105.732Z" fill="black"/>
</svg>
