<svg width="43" height="43" viewBox="0 0 43 43" fill="none" xmlns="http://www.w3.org/2000/svg">
<path d="M43 21.5C43 24.4024 42.4315 27.2181 41.3106 29.8694C40.2274 32.4296 38.6776 34.7289 36.703 36.7029C34.729 38.6776 32.4297 40.2274 29.8688 41.3106C27.2182 42.4314 24.4025 43 21.5 43C18.5981 43 15.7819 42.4314 13.1312 41.3106C10.571 40.2274 8.27167 38.6776 6.29708 36.7029C4.32307 34.7289 2.77262 32.4296 1.69003 29.8694C0.56859 27.2181 0 24.4024 0 21.5C0 18.5981 0.56859 15.7819 1.69003 13.1312C2.77262 10.571 4.32307 8.27168 6.29708 6.29708C8.27172 4.32307 10.571 2.77262 13.1312 1.69003C15.7818 0.56859 18.5981 0 21.5 0C24.4024 0 27.2181 0.56859 29.8688 1.69003C32.4296 2.77262 34.729 4.32307 36.703 6.29708C38.6776 8.27173 40.2274 10.571 41.3106 13.1312C42.4315 15.7819 43 18.5981 43 21.5Z" fill="#70D850"/>
<path d="M35.5882 33.9805C34.9851 34.6602 34.3339 35.2967 33.6391 35.8829C30.3622 38.6519 26.1259 40.3207 21.5001 40.3207C16.8742 40.3207 12.6379 38.6519 9.36104 35.8829C8.66622 35.2967 8.01507 34.6602 7.4119 33.9805C7.66615 32.5071 8.0952 31.2146 8.47326 30.2685C8.87861 29.2515 9.74337 28.4887 10.8035 28.215L17.9604 26.3648C18.2869 25.7489 18.563 24.8016 18.7323 24.1426C18.1983 23.9527 17.6697 23.6948 17.2347 23.3495C15.8153 22.2214 14.8194 20.7395 14.6065 18.6241C13.5281 18.385 12.7144 17.2417 12.8721 16.1421C12.9947 15.2841 13.6901 14.5662 14.5136 14.3265C14.1774 13.2263 13.8625 12.1007 13.911 10.9537C13.9632 9.72853 14.5118 8.45177 15.5834 7.85583C16.5774 7.30424 17.8815 7.45228 18.802 8.11922H18.8026C19.8536 7.58035 20.9229 7.07121 22.0558 6.74595C23.4345 6.35031 24.9334 6.24045 26.2933 6.69558C27.6538 7.1513 28.8469 8.23632 29.1928 9.6278C29.5126 10.9088 28.8736 12.8628 28.3092 14.2822C29.2079 14.4655 29.9968 15.224 30.1273 16.1421C30.2851 17.2417 29.4713 18.385 28.3924 18.6241C28.18 20.7395 27.2375 22.2911 25.7654 23.3495C25.2902 23.6917 24.7726 23.9454 24.2659 24.1341C24.4346 24.7943 24.7113 25.7471 25.039 26.3648L32.1959 28.215C33.2567 28.4887 34.1208 29.2515 34.5268 30.2685C34.9044 31.2146 35.3334 32.5071 35.5882 33.9805Z" fill="#4BBF28"/>
</svg>
