<svg width="42" height="42" viewBox="0 0 42 42" fill="none" xmlns="http://www.w3.org/2000/svg">
<rect x="1" y="1" width="40" height="40" rx="20" fill="#CBF5BD"/>
<rect x="1" y="1" width="40" height="40" rx="20" stroke="#3A9E1B" stroke-width="2"/>
<mask id="path-2-inside-1_7621_5992" fill="white">
<path fill-rule="evenodd" clip-rule="evenodd" d="M24.948 10.25H27.052C27.951 10.25 28.7 10.25 29.294 10.33C29.922 10.414 30.489 10.6 30.944 11.055C31.4 11.511 31.586 12.078 31.67 12.705C31.75 13.3 31.75 14.05 31.75 14.948V17.052C31.75 17.95 31.75 18.7 31.67 19.294C31.586 19.922 31.4 20.489 30.944 20.944C30.489 21.4 29.922 21.586 29.294 21.67C28.7 21.75 27.951 21.75 27.052 21.75H26.75V22.052C26.75 22.951 26.75 23.7 26.67 24.294C26.586 24.922 26.4 25.489 25.944 25.944C25.489 26.4 24.922 26.586 24.294 26.67C23.7 26.75 22.95 26.75 22.052 26.75H21.75V27.052C21.75 27.951 21.75 28.7 21.67 29.294C21.586 29.922 21.4 30.489 20.944 30.944C20.489 31.4 19.922 31.586 19.294 31.67C18.7 31.75 17.95 31.75 17.052 31.75H14.948C14.05 31.75 13.3 31.75 12.706 31.67C12.078 31.586 11.511 31.4 11.056 30.944C10.6 30.489 10.414 29.922 10.33 29.294C10.25 28.7 10.25 27.951 10.25 27.052V24.948C10.25 24.049 10.25 23.3 10.33 22.706C10.414 22.078 10.6 21.511 11.055 21.056C11.511 20.6 12.078 20.414 12.705 20.33C13.3 20.25 14.05 20.25 14.948 20.25H15.25V19.948C15.25 19.049 15.25 18.3 15.33 17.706C15.414 17.078 15.6 16.511 16.055 16.056C16.511 15.6 17.078 15.414 17.705 15.33C18.3 15.25 19.05 15.25 19.948 15.25H20.25V14.948C20.25 14.05 20.25 13.3 20.33 12.706C20.414 12.078 20.6 11.511 21.056 11.056C21.511 10.6 22.078 10.414 22.706 10.33C23.3 10.25 24.05 10.25 24.948 10.25ZM20.25 16.75H20C19.036 16.75 18.388 16.752 17.905 16.817C17.444 16.879 17.246 16.986 17.116 17.117C16.986 17.248 16.879 17.444 16.816 17.905C16.752 18.388 16.75 19.036 16.75 20V22C16.75 22.964 16.752 23.612 16.817 24.095C16.879 24.556 16.986 24.754 17.117 24.884C17.248 25.014 17.444 25.121 17.905 25.184C18.388 25.248 19.036 25.25 20 25.25H22C22.964 25.25 23.612 25.248 24.095 25.183C24.556 25.121 24.754 25.014 24.884 24.883C25.014 24.752 25.121 24.556 25.184 24.095C25.248 23.612 25.25 22.964 25.25 22V21.75H24.948C24.049 21.75 23.3 21.75 22.706 21.67C22.078 21.586 21.511 21.4 21.056 20.944C20.6 20.489 20.414 19.922 20.33 19.294C20.25 18.7 20.25 17.95 20.25 17.052V16.75ZM15.25 21.75H15C14.036 21.75 13.388 21.752 12.905 21.816C12.444 21.879 12.246 21.986 12.116 22.116C11.986 22.246 11.879 22.444 11.816 22.906C11.752 23.388 11.75 24.036 11.75 25V27C11.75 27.964 11.752 28.612 11.817 29.095C11.879 29.556 11.986 29.754 12.117 29.884C12.248 30.014 12.444 30.121 12.905 30.184C13.388 30.248 14.036 30.25 15 30.25H17C17.964 30.25 18.612 30.248 19.095 30.183C19.556 30.121 19.754 30.014 19.884 29.883C20.014 29.752 20.121 29.556 20.184 29.095C20.248 28.612 20.25 27.964 20.25 27V26.75H19.948C19.049 26.75 18.3 26.75 17.706 26.67C17.078 26.586 16.511 26.4 16.056 25.944C15.6 25.489 15.414 24.922 15.33 24.294C15.25 23.7 15.25 22.95 15.25 22.052V21.75ZM22.905 11.817C22.444 11.879 22.246 11.986 22.116 12.117C21.986 12.248 21.879 12.444 21.816 12.905C21.752 13.388 21.75 14.036 21.75 15V17C21.75 17.964 21.752 18.612 21.816 19.095C21.879 19.556 21.986 19.754 22.116 19.884C22.246 20.014 22.444 20.121 22.906 20.184C23.388 20.248 24.036 20.25 25 20.25H27C27.964 20.25 28.612 20.248 29.095 20.184C29.556 20.121 29.754 20.014 29.884 19.884C30.014 19.754 30.121 19.556 30.184 19.094C30.248 18.612 30.25 17.964 30.25 17V15C30.25 14.036 30.248 13.388 30.183 12.905C30.121 12.444 30.014 12.246 29.883 12.116C29.752 11.986 29.556 11.879 29.095 11.816C28.612 11.752 27.964 11.75 27 11.75H25C24.036 11.75 23.388 11.752 22.905 11.817Z"/>
</mask>
<path fill-rule="evenodd" clip-rule="evenodd" d="M24.948 10.25H27.052C27.951 10.25 28.7 10.25 29.294 10.33C29.922 10.414 30.489 10.6 30.944 11.055C31.4 11.511 31.586 12.078 31.67 12.705C31.75 13.3 31.75 14.05 31.75 14.948V17.052C31.75 17.95 31.75 18.7 31.67 19.294C31.586 19.922 31.4 20.489 30.944 20.944C30.489 21.4 29.922 21.586 29.294 21.67C28.7 21.75 27.951 21.75 27.052 21.75H26.75V22.052C26.75 22.951 26.75 23.7 26.67 24.294C26.586 24.922 26.4 25.489 25.944 25.944C25.489 26.4 24.922 26.586 24.294 26.67C23.7 26.75 22.95 26.75 22.052 26.75H21.75V27.052C21.75 27.951 21.75 28.7 21.67 29.294C21.586 29.922 21.4 30.489 20.944 30.944C20.489 31.4 19.922 31.586 19.294 31.67C18.7 31.75 17.95 31.75 17.052 31.75H14.948C14.05 31.75 13.3 31.75 12.706 31.67C12.078 31.586 11.511 31.4 11.056 30.944C10.6 30.489 10.414 29.922 10.33 29.294C10.25 28.7 10.25 27.951 10.25 27.052V24.948C10.25 24.049 10.25 23.3 10.33 22.706C10.414 22.078 10.6 21.511 11.055 21.056C11.511 20.6 12.078 20.414 12.705 20.33C13.3 20.25 14.05 20.25 14.948 20.25H15.25V19.948C15.25 19.049 15.25 18.3 15.33 17.706C15.414 17.078 15.6 16.511 16.055 16.056C16.511 15.6 17.078 15.414 17.705 15.33C18.3 15.25 19.05 15.25 19.948 15.25H20.25V14.948C20.25 14.05 20.25 13.3 20.33 12.706C20.414 12.078 20.6 11.511 21.056 11.056C21.511 10.6 22.078 10.414 22.706 10.33C23.3 10.25 24.05 10.25 24.948 10.25ZM20.25 16.75H20C19.036 16.75 18.388 16.752 17.905 16.817C17.444 16.879 17.246 16.986 17.116 17.117C16.986 17.248 16.879 17.444 16.816 17.905C16.752 18.388 16.75 19.036 16.75 20V22C16.75 22.964 16.752 23.612 16.817 24.095C16.879 24.556 16.986 24.754 17.117 24.884C17.248 25.014 17.444 25.121 17.905 25.184C18.388 25.248 19.036 25.25 20 25.25H22C22.964 25.25 23.612 25.248 24.095 25.183C24.556 25.121 24.754 25.014 24.884 24.883C25.014 24.752 25.121 24.556 25.184 24.095C25.248 23.612 25.25 22.964 25.25 22V21.75H24.948C24.049 21.75 23.3 21.75 22.706 21.67C22.078 21.586 21.511 21.4 21.056 20.944C20.6 20.489 20.414 19.922 20.33 19.294C20.25 18.7 20.25 17.95 20.25 17.052V16.75ZM15.25 21.75H15C14.036 21.75 13.388 21.752 12.905 21.816C12.444 21.879 12.246 21.986 12.116 22.116C11.986 22.246 11.879 22.444 11.816 22.906C11.752 23.388 11.75 24.036 11.75 25V27C11.75 27.964 11.752 28.612 11.817 29.095C11.879 29.556 11.986 29.754 12.117 29.884C12.248 30.014 12.444 30.121 12.905 30.184C13.388 30.248 14.036 30.25 15 30.25H17C17.964 30.25 18.612 30.248 19.095 30.183C19.556 30.121 19.754 30.014 19.884 29.883C20.014 29.752 20.121 29.556 20.184 29.095C20.248 28.612 20.25 27.964 20.25 27V26.75H19.948C19.049 26.75 18.3 26.75 17.706 26.67C17.078 26.586 16.511 26.4 16.056 25.944C15.6 25.489 15.414 24.922 15.33 24.294C15.25 23.7 15.25 22.95 15.25 22.052V21.75ZM22.905 11.817C22.444 11.879 22.246 11.986 22.116 12.117C21.986 12.248 21.879 12.444 21.816 12.905C21.752 13.388 21.75 14.036 21.75 15V17C21.75 17.964 21.752 18.612 21.816 19.095C21.879 19.556 21.986 19.754 22.116 19.884C22.246 20.014 22.444 20.121 22.906 20.184C23.388 20.248 24.036 20.25 25 20.25H27C27.964 20.25 28.612 20.248 29.095 20.184C29.556 20.121 29.754 20.014 29.884 19.884C30.014 19.754 30.121 19.556 30.184 19.094C30.248 18.612 30.25 17.964 30.25 17V15C30.25 14.036 30.248 13.388 30.183 12.905C30.121 12.444 30.014 12.246 29.883 12.116C29.752 11.986 29.556 11.879 29.095 11.816C28.612 11.752 27.964 11.75 27 11.75H25C24.036 11.75 23.388 11.752 22.905 11.817Z" fill="#307C19" stroke="#307C19" stroke-width="2" mask="url(#path-2-inside-1_7621_5992)"/>
</svg>
