<svg width="30" height="30" viewBox="0 0 30 30" fill="none" xmlns="http://www.w3.org/2000/svg">
<path opacity="0.5" d="M15 5.5C20.0057 5.5 23.4335 8.48819 25.5098 11.1846C26.0502 11.8871 26.4079 12.3561 26.6445 12.8916C26.8737 13.4103 27 14.021 27 15C27 15.9783 26.8737 16.5894 26.6445 17.1084C26.4079 17.6441 26.05 18.1137 25.5098 18.8154C23.4335 21.5118 20.0057 24.5 15 24.5C9.9943 24.5 6.56647 21.5118 4.49023 18.8154C3.94979 18.1129 3.59211 17.6439 3.35547 17.1084C3.12634 16.5897 3 15.979 3 15C3 14.0217 3.12633 13.4113 3.35547 12.8926C3.59215 12.357 3.94976 11.8878 4.49023 11.1846C6.56647 8.48819 9.9943 5.5 15 5.5Z" fill="#F04438" stroke="#F04438"/>
<path d="M15 10.8125C16.1106 10.8125 17.1756 11.2538 17.9609 12.0391C18.7462 12.8244 19.1875 13.8894 19.1875 15C19.1875 16.1106 18.7462 17.1756 17.9609 17.9609C17.1756 18.7462 16.1106 19.1875 15 19.1875C13.8894 19.1875 12.8244 18.7462 12.0391 17.9609C11.2538 17.1756 10.8125 16.1106 10.8125 15C10.8125 13.8894 11.2538 12.8244 12.0391 12.0391C12.8244 11.2538 13.8894 10.8125 15 10.8125ZM15 11.6875C14.1215 11.6875 13.2784 12.036 12.6572 12.6572C12.036 13.2784 11.6875 14.1215 11.6875 15C11.6875 15.8785 12.036 16.7216 12.6572 17.3428C13.2784 17.964 14.1215 18.3125 15 18.3125C15.8785 18.3125 16.7216 17.964 17.3428 17.3428C17.964 16.7216 18.3125 15.8785 18.3125 15C18.3125 14.1215 17.964 13.2784 17.3428 12.6572C16.7216 12.036 15.8785 11.6875 15 11.6875Z" fill="#F04438" stroke="#F04438"/>
</svg>
