<svg width="14" height="12" viewBox="0 0 14 12" fill="none" xmlns="http://www.w3.org/2000/svg">
<path d="M2.1464 6.30601L1.5844 6.80301C1.65136 6.87852 1.73287 6.93974 1.82405 6.98301C1.91523 7.02628 2.0142 7.05069 2.11504 7.0548C2.21588 7.05891 2.31651 7.04263 2.41091 7.00692C2.5053 6.97122 2.59152 6.91683 2.6644 6.84701L2.1464 6.30601ZM4.2874 5.29101C4.42435 5.15191 4.50168 4.96489 4.50294 4.76969C4.50421 4.57448 4.42932 4.38648 4.29418 4.24561C4.15904 4.10475 3.9743 4.02212 3.77922 4.01528C3.58413 4.00845 3.39407 4.07795 3.2494 4.20901L4.2874 5.29101ZM1.3294 4.25301C1.26538 4.17512 1.18631 4.11093 1.09691 4.06429C1.00752 4.01766 0.909643 3.98952 0.809129 3.98157C0.708616 3.97362 0.607532 3.98602 0.511919 4.01803C0.416307 4.05004 0.32813 4.10099 0.25266 4.16785C0.177189 4.23472 0.115975 4.31611 0.0726759 4.40716C0.0293773 4.49822 0.00488363 4.59707 0.000658748 4.69781C-0.00356613 4.79855 0.0125646 4.89911 0.0480869 4.99347C0.0836092 5.08783 0.137794 5.17406 0.207401 5.24701L1.3294 4.25301ZM9.6994 2.75901C9.76624 2.83137 9.84668 2.88985 9.93613 2.93112C10.0256 2.97239 10.1223 2.99564 10.2207 2.99954C10.3191 3.00344 10.4174 2.98792 10.5098 2.95385C10.6022 2.91979 10.687 2.86785 10.7594 2.80101C10.8318 2.73417 10.8902 2.65373 10.9315 2.56428C10.9728 2.47484 10.996 2.37814 10.9999 2.27971C11.0038 2.18128 10.9883 2.08304 10.9542 1.99061C10.9202 1.89818 10.8682 1.81337 10.8014 1.74101L9.6994 2.75901ZM6.8134 8.99e-06C3.8274 8.99e-06 1.3974 2.40301 1.3974 5.38001H2.8974C2.8974 3.24301 4.6444 1.50001 6.8134 1.50001V8.99e-06ZM1.3974 5.38001V6.30601H2.8974V5.38001H1.3974ZM2.6664 6.84701L4.2884 5.29101L3.2504 4.20901L1.6284 5.76401L2.6664 6.84701ZM2.7084 5.80801L1.3294 4.25301L0.207401 5.24701L1.5844 6.80301L2.7084 5.80801ZM10.8014 1.74101C10.2928 1.19078 9.67663 0.751976 8.98988 0.452315C8.30312 0.152655 7.56169 -0.00135566 6.8124 8.99e-06V1.50001C7.35493 1.49868 7.89182 1.60998 8.38911 1.82686C8.8864 2.04375 9.33326 2.3615 9.7014 2.76001L10.8014 1.74101ZM11.3874 5.19401L11.9474 4.69601C11.8804 4.62056 11.7988 4.55942 11.7076 4.51624C11.6164 4.47307 11.5174 4.44874 11.4166 4.44473C11.3157 4.44071 11.2151 4.45709 11.1207 4.49288C11.0264 4.52867 10.9402 4.58313 10.8674 4.65301L11.3874 5.19401ZM9.2484 6.20801C9.10492 6.34592 9.0221 6.53518 9.01816 6.73416C9.01422 6.93314 9.08949 7.12553 9.2274 7.26901C9.36531 7.41249 9.55457 7.49531 9.75355 7.49925C9.95253 7.50319 10.1449 7.42792 10.2884 7.29001L9.2484 6.20801ZM12.2084 7.24801C12.3422 7.3905 12.5263 7.47512 12.7216 7.48386C12.9169 7.4926 13.1078 7.42477 13.2538 7.29481C13.3998 7.16485 13.4893 6.98303 13.5032 6.78807C13.5172 6.59311 13.4544 6.40041 13.3284 6.25101L12.2084 7.24801ZM3.8154 8.75501C3.67854 8.61332 3.49142 8.53116 3.29448 8.52629C3.09754 8.52143 2.90659 8.59424 2.7629 8.72901C2.61921 8.86377 2.5343 9.04966 2.52654 9.2465C2.51877 9.44335 2.58877 9.63535 2.7214 9.78101L3.8154 8.75501ZM6.7034 11.5C9.6964 11.5 12.1374 9.10001 12.1374 6.12001H10.6374C10.6374 8.25501 8.8844 10 6.7034 10V11.5ZM12.1374 6.12001V5.19401H10.6374V6.12001H12.1374ZM10.8674 4.65301L9.2484 6.20801L10.2884 7.29001L11.9064 5.73501L10.8674 4.65301ZM10.8274 5.69301L12.2074 7.24701L13.3294 6.25101L11.9474 4.69601L10.8274 5.69301ZM2.7204 9.78001C3.23114 10.3238 3.84808 10.757 4.53304 11.0527C5.21799 11.3484 5.95635 11.5003 6.7024 11.499V9.99901C5.5594 9.99901 4.5324 9.51901 3.8144 8.75401L2.7204 9.78001Z" fill="#030319"/>
</svg>
