<svg width="30" height="30" viewBox="0 0 30 30" fill="none" xmlns="http://www.w3.org/2000/svg">
<path d="M21.0649 16.7969C20.4817 19.4401 18.2034 21.4494 15.4185 21.666V20.7891C17.6817 20.5849 19.5357 19.0079 20.1323 16.9131L20.6909 16.377L21.0649 16.7969ZM11.3032 19.4463C12.1452 20.1914 13.2251 20.6793 14.4175 20.7871V21.665C13.7247 21.6113 13.0439 21.4453 12.4038 21.1689C11.7645 20.8929 11.1774 20.5125 10.6636 20.0459L11.3032 19.4463ZM19.3364 15.4629C19.3364 15.675 19.3195 15.8836 19.2896 16.0879L18.8071 15.5859L19.3364 15.0781V15.4629ZM22.4946 15.584L22.2007 15.8447C22.2073 15.7183 22.2114 15.591 22.2114 15.4629V15.2646L22.4946 15.584ZM11.1919 14.4121L10.6616 14.9219V14.5371C10.6616 14.323 10.6772 14.1123 10.7075 13.9062L11.1919 14.4121ZM7.79541 14.1553C7.78879 14.2817 7.78663 14.409 7.78662 14.5371V14.7324L7.50342 14.4131L7.79541 14.1553ZM14.5552 9.21094C12.3022 9.41654 10.4557 10.9942 9.86279 13.0898L9.30713 13.6221L8.93213 13.1992C9.51429 10.5599 11.7819 8.55183 14.5552 8.33398V9.21094ZM15.5562 8.33301C16.2518 8.38737 16.9349 8.55597 17.5767 8.83594C18.2179 9.11573 18.8052 9.50182 19.3179 9.97461L18.6733 10.5703C18.2443 10.1851 17.7566 9.86909 17.2261 9.6377C16.695 9.40609 16.131 9.26224 15.5562 9.20996V8.33301Z" fill="#3A9E1B" stroke="#3A9E1B"/>
<path d="M8.75 4.17252C10.6493 3.07342 12.8056 2.4964 15 2.50002C21.9037 2.50002 27.5 8.09627 27.5 15C27.5 21.9038 21.9037 27.5 15 27.5C8.09625 27.5 2.5 21.9038 2.5 15C2.5 12.7238 3.10875 10.5875 4.1725 8.75002" stroke="#3A9E1B" stroke-width="1.5" stroke-linecap="round"/>
</svg>
