<svg width="20" height="20" viewBox="0 0 20 20" fill="none" xmlns="http://www.w3.org/2000/svg">
<path d="M7.50016 10.0001C7.50016 10.5526 7.28067 11.0825 6.88997 11.4732C6.49927 11.8639 5.96936 12.0834 5.41683 12.0834C4.8643 12.0834 4.33439 11.8639 3.94369 11.4732C3.55299 11.0825 3.3335 10.5526 3.3335 10.0001C3.3335 9.44755 3.55299 8.91764 3.94369 8.52694C4.33439 8.13624 4.8643 7.91675 5.41683 7.91675C5.96936 7.91675 6.49927 8.13624 6.88997 8.52694C7.28067 8.91764 7.50016 9.44755 7.50016 10.0001Z" stroke="#030319" stroke-width="1.5"/>
<path d="M11.6667 5.41675L7.5 8.33341M11.6667 14.5834L7.5 11.6667" stroke="black" stroke-width="1.5" stroke-linecap="round"/>
<path d="M15.8337 15.4167C15.8337 15.9692 15.6142 16.4991 15.2235 16.8898C14.8328 17.2805 14.3029 17.5 13.7503 17.5C13.1978 17.5 12.6679 17.2805 12.2772 16.8898C11.8865 16.4991 11.667 15.9692 11.667 15.4167C11.667 14.8641 11.8865 14.3342 12.2772 13.9435C12.6679 13.5528 13.1978 13.3333 13.7503 13.3333C14.3029 13.3333 14.8328 13.5528 15.2235 13.9435C15.6142 14.3342 15.8337 14.8641 15.8337 15.4167ZM15.8337 4.58333C15.8337 5.13587 15.6142 5.66577 15.2235 6.05647C14.8328 6.44717 14.3029 6.66667 13.7503 6.66667C13.1978 6.66667 12.6679 6.44717 12.2772 6.05647C11.8865 5.66577 11.667 5.13587 11.667 4.58333C11.667 4.0308 11.8865 3.50089 12.2772 3.11019C12.6679 2.71949 13.1978 2.5 13.7503 2.5C14.3029 2.5 14.8328 2.71949 15.2235 3.11019C15.6142 3.50089 15.8337 4.0308 15.8337 4.58333Z" stroke="black" stroke-width="1.5"/>
</svg>
