<svg width="30" height="30" viewBox="0 0 30 30" fill="none" xmlns="http://www.w3.org/2000/svg">
<path d="M14.5 26.9844C14.1594 26.9649 13.9015 26.9273 13.6709 26.8682C13.3323 26.7813 13.0319 26.6502 12.5742 26.4502C9.30323 25.0225 4.25 21.7272 4.25 14.9883V13.0215C4.25 11.0171 4.25046 9.53439 4.30859 8.46777C4.33764 7.93493 4.38027 7.52286 4.44043 7.21094C4.50218 6.89077 4.57424 6.72163 4.63184 6.63965C4.68781 6.56001 4.82002 6.43815 5.09863 6.27637C5.3702 6.11869 5.74182 5.94451 6.23242 5.74512C7.21435 5.34606 8.60669 4.86817 10.4912 4.22266L10.4922 4.22363L11.209 3.97949H11.21C12.8389 3.42125 13.7304 3.12284 14.5 3.03223V26.9844Z" fill="#3A9E1B" stroke="#3A9E1B"/>
<path opacity="0.5" d="M15.5 3.03223C16.2701 3.12278 17.1607 3.42113 18.79 3.97949H18.791L19.5068 4.22461C21.3923 4.86982 22.7854 5.34707 23.7676 5.74609C24.2581 5.94539 24.6298 6.11872 24.9014 6.27637C25.18 6.43812 25.3122 6.56001 25.3682 6.63965C25.4258 6.72166 25.4978 6.89089 25.5596 7.21094C25.6197 7.52265 25.6624 7.93432 25.6914 8.4668C25.7495 9.53326 25.75 11.0164 25.75 13.0215V14.9883C25.75 21.7283 20.697 25.0212 17.4258 26.4502C16.9678 26.6503 16.6677 26.7814 16.3291 26.8682C16.0986 26.9273 15.841 26.965 15.5 26.9844V3.03223Z" stroke="#3A9E1B"/>
</svg>
