<svg width="24" height="24" viewBox="0 0 24 24" fill="none" xmlns="http://www.w3.org/2000/svg">
<path d="M11.5 21.4795C11.2845 21.4624 11.1148 21.4366 10.9619 21.3975C10.7001 21.3304 10.4672 21.229 10.0996 21.0684H10.0986C7.49267 19.9308 3.50011 17.3201 3.5 11.9912V11.3604L11.5 8.69336V21.4795Z" fill="#030319" stroke="#030319"/>
<path opacity="0.5" d="M14.101 21.527C16.761 20.365 21 17.63 21 11.991V11L12 8V22C13.02 22 13.38 21.842 14.101 21.527ZM8.838 2.805L8.265 3C5.258 4.03 3.755 4.545 3.378 5.082C3 5.62 3 7.22 3 10.417V11L12 8V2C11.189 2 10.405 2.268 8.838 2.805Z" fill="#030319"/>
<path d="M15.735 3L15.162 2.805C13.595 2.268 12.812 2 12 2V8L21 11V10.417C21 7.219 21 5.62 20.622 5.082C20.245 4.545 18.742 4.029 15.735 3Z" fill="#030319"/>
</svg>
