<svg width="24" height="24" viewBox="0 0 24 24" fill="none" xmlns="http://www.w3.org/2000/svg">
<path d="M2 20.75H22C22.0663 20.75 22.1299 20.7764 22.1768 20.8232C22.2236 20.8701 22.25 20.9337 22.25 21C22.25 21.0663 22.2236 21.1299 22.1768 21.1768C22.1299 21.2236 22.0663 21.25 22 21.25H2C1.9337 21.25 1.87013 21.2236 1.82324 21.1768C1.77636 21.1299 1.75 21.0663 1.75 21C1.75 20.9337 1.77636 20.8701 1.82324 20.8232C1.87013 20.7764 1.9337 20.75 2 20.75ZM2 2.75H22C22.0663 2.75 22.1299 2.77636 22.1768 2.82324C22.2236 2.87013 22.25 2.9337 22.25 3C22.25 3.0663 22.2236 3.12987 22.1768 3.17676C22.1299 3.22364 22.0663 3.25 22 3.25H2C1.9337 3.25 1.87013 3.22364 1.82324 3.17676C1.77636 3.12987 1.75 3.0663 1.75 3C1.75 2.9337 1.77636 2.87013 1.82324 2.82324C1.87013 2.77636 1.9337 2.75 2 2.75Z" fill="black" stroke="#030319"/>
<path d="M4 12C4 13.886 4 14.828 4.586 15.414C5.172 16 6.114 16 8 16H16C17.886 16 18.828 16 19.414 15.414C20 14.828 20 13.886 20 12C20 10.114 20 9.172 19.414 8.586C18.828 8 17.886 8 16 8H8C6.114 8 5.172 8 4.586 8.586C4 9.172 4 10.114 4 12Z" fill="black"/>
</svg>
