<svg width="15" height="15" viewBox="0 0 15 15" fill="none" xmlns="http://www.w3.org/2000/svg">
<path d="M4.37445 7.5H3.74945C2.5707 7.5 1.98195 7.5 1.6157 7.86625C1.3207 8.16063 1.2632 8.6 1.25195 9.375M7.49945 10.625V11.25C7.49945 12.4288 7.49945 13.0175 7.1332 13.3837C6.7682 13.75 6.1782 13.75 4.99945 13.75H3.74945C2.5707 13.75 1.98195 13.75 1.6157 13.3837C1.3207 13.0894 1.2632 12.65 1.25195 11.875" fill="#CBF5BD"/>
<path d="M4.37445 7.5H3.74945C2.5707 7.5 1.98195 7.5 1.6157 7.86625C1.3207 8.16063 1.2632 8.6 1.25195 9.375M7.49945 10.625V11.25C7.49945 12.4288 7.49945 13.0175 7.1332 13.3837C6.7682 13.75 6.1782 13.75 4.99945 13.75H3.74945C2.5707 13.75 1.98195 13.75 1.6157 13.3837C1.3207 13.0894 1.2632 12.65 1.25195 11.875" stroke="#CBF5BD" stroke-width="1.5" stroke-linecap="round"/>
<path d="M7.5 4.375H6.875C5.69625 4.375 5.1075 4.375 4.74125 4.74125C4.375 5.1075 4.375 5.69625 4.375 6.875V8.125C4.375 9.30375 4.375 9.8925 4.74125 10.2587C5.1075 10.625 5.69625 10.625 6.875 10.625H8.125C9.30375 10.625 9.8925 10.625 10.2587 10.2587C10.625 9.8925 10.625 9.30375 10.625 8.125V7.5" stroke="#CBF5BD" stroke-width="1.5"/>
<path d="M9.375 1.25244C8.6 1.26369 8.16063 1.32119 7.86625 1.61619C7.5 1.98244 7.5 2.57119 7.5 3.74994V4.99994C7.5 6.17869 7.5 6.76807 7.86625 7.13369C8.2325 7.49994 8.82125 7.49994 10 7.49994H11.25C12.4288 7.49994 13.0175 7.49994 13.3837 7.13369C13.75 6.76869 13.75 6.17869 13.75 4.99994V3.74994C13.75 2.57119 13.75 1.98244 13.3837 1.61619C13.0894 1.32119 12.65 1.26369 11.875 1.25244" stroke="#CBF5BD" stroke-width="1.5" stroke-linecap="round"/>
</svg>
