<svg width="24" height="24" viewBox="0 0 24 24" fill="none" xmlns="http://www.w3.org/2000/svg">
<path d="M6.99991 12H5.99991C4.11391 12 3.17191 12 2.58591 12.586C2.11391 13.057 2.02191 13.76 2.00391 15M11.9999 17V18C11.9999 19.886 11.9999 20.828 11.4139 21.414C10.8299 22 9.88591 22 7.99991 22H5.99991C4.11391 22 3.17191 22 2.58591 21.414C2.11391 20.943 2.02191 20.24 2.00391 19" fill="#030319"/>
<path d="M6.99991 12H5.99991C4.11391 12 3.17191 12 2.58591 12.586C2.11391 13.057 2.02191 13.76 2.00391 15M11.9999 17V18C11.9999 19.886 11.9999 20.828 11.4139 21.414C10.8299 22 9.88591 22 7.99991 22H5.99991C4.11391 22 3.17191 22 2.58591 21.414C2.11391 20.943 2.02191 20.24 2.00391 19" stroke="#030319" stroke-width="1.5" stroke-linecap="round"/>
<path d="M12 7H11C9.114 7 8.172 7 7.586 7.586C7 8.172 7 9.114 7 11V13C7 14.886 7 15.828 7.586 16.414C8.172 17 9.114 17 11 17H13C14.886 17 15.828 17 16.414 16.414C17 15.828 17 14.886 17 13V12" stroke="#030319" stroke-width="1.5"/>
<path d="M15 2.00403C13.76 2.02203 13.057 2.11403 12.586 2.58603C12 3.17203 12 4.11403 12 6.00003V8.00003C12 9.88603 12 10.829 12.586 11.414C13.172 12 14.114 12 16 12H18C19.886 12 20.828 12 21.414 11.414C22 10.83 22 9.88603 22 8.00003V6.00003C22 4.11403 22 3.17203 21.414 2.58603C20.943 2.11403 20.24 2.02203 19 2.00403" stroke="#030319" stroke-width="1.5" stroke-linecap="round"/>
</svg>
