<svg width="30" height="30" viewBox="0 0 30 30" fill="none" xmlns="http://www.w3.org/2000/svg">
<path opacity="0.5" d="M15 3C21.6276 3 27 8.37239 27 15C27 21.6276 21.6276 27 15 27C8.37239 27 3 21.6276 3 15C3 8.37239 8.37239 3 15 3Z" fill="#3A9E1B" stroke="#3A9E1B"/>
<path d="M14.9998 23.3123C15.1157 23.3123 15.2273 23.3583 15.3093 23.4402C15.3913 23.5222 15.4372 23.6338 15.4373 23.7498V26.9919C15.1457 27.0026 14.8538 27.0026 14.5623 26.9919V23.7498C14.5623 23.6338 14.6082 23.5222 14.6902 23.4402C14.7722 23.3582 14.8838 23.3123 14.9998 23.3123ZM14.9998 12.0623C15.1157 12.0623 15.2273 12.1083 15.3093 12.1902C15.3913 12.2722 15.4372 12.3838 15.4373 12.4998V14.5623H17.4998C17.6157 14.5623 17.7273 14.6083 17.8093 14.6902C17.8913 14.7722 17.9372 14.8838 17.9373 14.9998C17.9373 15.1158 17.8914 15.2273 17.8093 15.3093C17.7273 15.3914 17.6158 15.4373 17.4998 15.4373H15.4373V17.4998C15.4373 17.6158 15.3914 17.7273 15.3093 17.8093C15.2273 17.8914 15.1158 17.9373 14.9998 17.9373C14.8838 17.9372 14.7722 17.8913 14.6902 17.8093C14.6083 17.7273 14.5623 17.6157 14.5623 17.4998V15.4373H12.4998C12.3838 15.4372 12.2722 15.3913 12.1902 15.3093C12.1083 15.2273 12.0623 15.1157 12.0623 14.9998C12.0623 14.8838 12.1082 14.7722 12.1902 14.6902C12.2722 14.6082 12.3838 14.5623 12.4998 14.5623H14.5623V12.4998C14.5623 12.3838 14.6082 12.2722 14.6902 12.1902C14.7722 12.1082 14.8838 12.0623 14.9998 12.0623ZM23.7498 14.5623H26.9919C27.0026 14.8538 27.0026 15.1457 26.9919 15.4373H23.7498C23.6338 15.4372 23.5222 15.3913 23.4402 15.3093C23.3583 15.2273 23.3123 15.1157 23.3123 14.9998C23.3123 14.8838 23.3582 14.7722 23.4402 14.6902C23.5222 14.6082 23.6338 14.5623 23.7498 14.5623ZM6.24976 14.5623C6.36569 14.5623 6.4773 14.6083 6.55933 14.6902C6.64132 14.7722 6.6872 14.8838 6.68726 14.9998C6.68726 15.1158 6.64137 15.2273 6.55933 15.3093C6.47728 15.3914 6.36579 15.4373 6.24976 15.4373H3.00854C2.99791 15.1457 2.9979 14.8538 3.00854 14.5623H6.24976ZM15.4373 3.00757V6.24976C15.4373 6.36579 15.3914 6.47728 15.3093 6.55933C15.2273 6.64137 15.1158 6.68726 14.9998 6.68726C14.8838 6.6872 14.7722 6.64132 14.6902 6.55933C14.6083 6.4773 14.5623 6.36569 14.5623 6.24976V3.00757C14.8538 2.99693 15.1457 2.99694 15.4373 3.00757Z" fill="#3A9E1B" stroke="#3A9E1B"/>
</svg>
