<svg width="49" height="49" viewBox="0 0 49 49" fill="none" xmlns="http://www.w3.org/2000/svg">
<path d="M44.9166 25.9251C44.9125 28.9263 44.8901 31.4743 44.7206 33.567C44.5226 35.9966 44.1163 38.026 43.2098 39.7104C42.8137 40.4486 42.3115 41.1248 41.7194 41.7174C40.0187 43.4181 37.8545 44.1878 35.1105 44.5553C32.4298 44.9167 28.9916 44.9167 24.6082 44.9167H24.3917C20.0062 44.9167 16.5721 44.9167 13.8894 44.5553C11.1474 44.1878 8.98123 43.4181 7.28257 41.7174C5.77582 40.2106 4.9959 38.3364 4.58348 36.0109C4.17515 33.7243 4.10165 30.8823 4.08736 27.3522C4.08327 26.4539 4.08191 25.5031 4.08327 24.5V24.3898C4.08327 20.0043 4.08327 16.5702 4.44465 13.8874C4.81215 11.1455 5.58186 8.97926 7.28257 7.28059C8.98327 5.58192 11.1474 4.81017 13.8894 4.44267C16.2741 4.12213 19.3406 4.08538 23.0749 4.0813C23.4528 4.0813 23.8153 4.23144 24.0825 4.4987C24.3498 4.76595 24.4999 5.12843 24.4999 5.50638C24.4999 5.88434 24.3498 6.24681 24.0825 6.51407C23.8153 6.78132 23.4528 6.93147 23.0749 6.93147C19.2876 6.93555 16.4721 6.96822 14.2691 7.26426C11.8416 7.59092 10.3777 8.21159 9.29565 9.29367C8.21357 10.3758 7.59494 11.8417 7.26827 14.2713C6.93548 16.7417 6.9314 19.9838 6.9314 24.5V26.1007L8.83423 24.4388C9.66831 23.709 10.7485 23.3235 11.8562 23.3602C12.9639 23.397 14.0161 23.8533 14.8 24.6368L22.9462 32.783C23.5783 33.4154 24.4132 33.8046 25.3039 33.8819C26.1946 33.9592 27.0841 33.7197 27.8156 33.2057L28.3832 32.8075C29.4383 32.066 30.7138 31.7043 32.0011 31.7819C33.2884 31.8594 34.5113 32.3714 35.4698 33.2343L40.8455 38.073C41.3866 36.9358 41.7092 35.4433 41.8807 33.3363C42.0419 31.3518 42.0644 28.9427 42.0664 25.9251C42.0664 25.5471 42.2166 25.1847 42.4838 24.9174C42.7511 24.6501 43.1136 24.5 43.4915 24.5C43.8695 24.5 44.232 24.6501 44.4992 24.9174C44.7665 25.1847 44.9166 25.5471 44.9166 25.9251Z" fill="black"/>
<path fill-rule="evenodd" clip-rule="evenodd" d="M35.7292 22.4583C31.3989 22.4583 29.2327 22.4583 27.8872 21.1129C26.5417 19.7674 26.5417 17.6012 26.5417 13.2708C26.5417 8.94044 26.5417 6.77423 27.8872 5.42877C29.2327 4.08331 31.3989 4.08331 35.7292 4.08331C40.0596 4.08331 42.2258 4.08331 43.5713 5.42877C44.9167 6.77423 44.9167 8.94044 44.9167 13.2708C44.9167 17.6012 44.9167 19.7674 43.5713 21.1129C42.2258 22.4583 40.0596 22.4583 35.7292 22.4583ZM37.2605 9.18748C37.2605 8.78137 37.0992 8.39189 36.812 8.10472C36.5248 7.81756 36.1354 7.65623 35.7292 7.65623C35.3231 7.65623 34.9337 7.81756 34.6465 8.10472C34.3593 8.39189 34.198 8.78137 34.198 9.18748V11.7396H31.6459C31.2398 11.7396 30.8503 11.9009 30.5632 12.1881C30.276 12.4752 30.1147 12.8647 30.1147 13.2708C30.1147 13.6769 30.276 14.0664 30.5632 14.3536C30.8503 14.6407 31.2398 14.8021 31.6459 14.8021H34.198V17.3541C34.198 17.7603 34.3593 18.1497 34.6465 18.4369C34.9337 18.7241 35.3231 18.8854 35.7292 18.8854C36.1354 18.8854 36.5248 18.7241 36.812 18.4369C37.0992 18.1497 37.2605 17.7603 37.2605 17.3541V14.8021H39.8126C40.2187 14.8021 40.6082 14.6407 40.8953 14.3536C41.1825 14.0664 41.3438 13.6769 41.3438 13.2708C41.3438 12.8647 41.1825 12.4752 40.8953 12.1881C40.6082 11.9009 40.2187 11.7396 39.8126 11.7396H37.2605V9.18748Z" fill="black"/>
</svg>
