<svg width="26" height="26" viewBox="0 0 26 26" fill="none" xmlns="http://www.w3.org/2000/svg">
<g clip-path="url(#clip0_7498_16880)">
<path d="M13 26C20.1797 26 26 20.1797 26 13C26 5.8203 20.1797 0 13 0C5.8203 0 0 5.8203 0 13C0 20.1797 5.8203 26 13 26Z" fill="#3A63A1"/>
<path d="M16.1692 14.2802C16.1692 12.6066 15.1606 12.033 13.1435 11.7935C11.7032 11.602 11.4156 11.2199 11.4156 10.5501C11.4156 9.88038 11.8962 9.45017 12.8559 9.45017C13.7203 9.45017 14.2009 9.73698 14.4404 10.4548C14.4654 10.5242 14.511 10.5843 14.5712 10.627C14.6313 10.6697 14.7031 10.6929 14.7769 10.6935H15.5451C15.5895 10.6947 15.6336 10.6869 15.6749 10.6705C15.7161 10.6541 15.7536 10.6295 15.7851 10.5982C15.8166 10.5669 15.8413 10.5295 15.8579 10.4883C15.8745 10.4471 15.8825 10.403 15.8816 10.3587V10.3114C15.7877 9.79205 15.5249 9.31828 15.1341 8.96364C14.7433 8.609 14.2463 8.39337 13.7203 8.35022V7.203C13.7203 7.01153 13.5761 6.86813 13.3366 6.82007H12.6156C12.4241 6.82007 12.28 6.96347 12.2319 7.203V8.30295C10.7908 8.49363 9.87913 9.45017 9.87913 10.6462C9.87913 12.2237 10.8388 12.8454 12.8559 13.0849C14.2009 13.3236 14.6327 13.6112 14.6327 14.3763C14.6327 15.1406 13.9606 15.6669 13.0482 15.6669C11.7993 15.6669 11.3675 15.1414 11.2233 14.4236C11.1761 14.2329 11.0311 14.1368 10.8869 14.1368H10.0706C10.0263 14.1357 9.98223 14.1436 9.94107 14.1601C9.89991 14.1765 9.86252 14.2011 9.83114 14.2324C9.79976 14.2637 9.77506 14.301 9.75853 14.3422C9.74199 14.3833 9.73397 14.4273 9.73494 14.4716V14.5189C9.92641 15.715 10.6954 16.5754 12.28 16.8149V17.963C12.28 18.1536 12.4241 18.2978 12.6637 18.3451H13.3846C13.5761 18.3451 13.7203 18.2017 13.7683 17.963V16.8142C15.2095 16.5754 16.1692 15.5708 16.1692 14.2794V14.2802Z" fill="white"/>
<path d="M10.551 19.3016C6.80523 17.9621 4.88426 13.8018 6.27732 10.1199C6.99748 8.11064 8.58201 6.58127 10.551 5.86347C10.7433 5.76813 10.8386 5.62473 10.8386 5.3852V4.71546C10.8386 4.52478 10.7433 4.38138 10.551 4.33331C10.503 4.33331 10.4068 4.33331 10.3588 4.38059C9.27808 4.71808 8.27482 5.26601 7.40675 5.99283C6.53868 6.71965 5.82296 7.611 5.30079 8.61557C4.77863 9.62013 4.46033 10.7181 4.36423 11.8462C4.26813 12.9742 4.39613 14.1102 4.74086 15.1886C5.60442 17.8676 7.66958 19.924 10.3588 20.7845C10.551 20.8798 10.7433 20.7845 10.7906 20.593C10.8386 20.5457 10.8386 20.4969 10.8386 20.4015V19.7318C10.8386 19.5884 10.6952 19.3977 10.551 19.3016ZM15.6411 4.38138C15.4488 4.28525 15.2565 4.38138 15.2093 4.57206C15.1612 4.62012 15.1612 4.66818 15.1612 4.76352V5.43326C15.1612 5.62473 15.3046 5.81541 15.4488 5.91153C19.1946 7.25101 21.1156 11.4113 19.7225 15.0933C19.0024 17.1025 17.4178 18.6318 15.4488 19.3497C15.2565 19.445 15.1612 19.5884 15.1612 19.8279V20.4977C15.1612 20.6883 15.2565 20.8317 15.4488 20.8798C15.4969 20.8798 15.593 20.8798 15.6411 20.8325C16.7218 20.495 17.725 19.9471 18.5931 19.2203C19.4612 18.4935 20.1769 17.6021 20.699 16.5976C21.2212 15.593 21.5395 14.4951 21.6356 13.367C21.7317 12.2389 21.6037 11.1029 21.259 10.0245C20.3954 7.29829 18.2822 5.24179 15.6411 4.38138Z" fill="white"/>
</g>
<defs>
<clipPath id="clip0_7498_16880">
<rect width="26" height="26" rx="13" fill="white"/>
</clipPath>
</defs>
</svg>
