<svg width="26" height="26" viewBox="0 0 26 26" fill="none" xmlns="http://www.w3.org/2000/svg">
<g clip-path="url(#clip0_7498_16885)">
<path d="M25.9998 12.9999C25.9998 20.1797 20.1797 26 13 26C5.82026 26 0 20.1797 0 12.9999C0 5.82026 5.82026 0 13 0C20.1796 0 25.9998 5.82026 25.9998 12.9999" fill="#00A478"/>
<path d="M11.2037 12.0645V8.52192H6.39889V5.41669H19.8255V8.56565H15.0207V12.0645H11.2037Z" fill="white"/>
<path fill-rule="evenodd" clip-rule="evenodd" d="M4.33325 12.4581C4.33325 11.2773 8.19508 10.3151 12.9999 10.3151C17.8048 10.3151 21.6666 11.2773 21.6666 12.4581C21.6666 13.639 17.8048 14.6012 12.9999 14.6012C8.19508 14.6012 4.33325 13.639 4.33325 12.4581ZM20.9481 12.4581C20.6338 12.0208 18.0293 10.665 12.9999 10.665C7.97055 10.665 5.36606 11.977 5.05172 12.4581C5.36606 12.8955 7.97055 13.5515 12.9999 13.5515C18.0742 13.5515 20.6338 12.8955 20.9481 12.4581Z" fill="white"/>
<path d="M15.0206 13.1579V10.7087C14.392 10.665 13.7184 10.6212 13.0448 10.6212C12.4162 10.6212 11.8324 10.6212 11.2486 10.665V13.1142C11.7875 13.1142 12.4162 13.1579 13.0448 13.1579C13.7184 13.2016 14.392 13.2016 15.0206 13.1579Z" fill="white"/>
<path d="M12.9999 14.6012C12.3712 14.6012 11.7875 14.6012 11.2037 14.5574V21.074H14.9757V14.5137C14.3471 14.5574 13.6735 14.6012 12.9999 14.6012Z" fill="white"/>
</g>
<defs>
<clipPath id="clip0_7498_16885">
<rect width="26" height="26" rx="13" fill="white"/>
</clipPath>
</defs>
</svg>
