<svg width="42" height="42" viewBox="0 0 42 42" fill="none" xmlns="http://www.w3.org/2000/svg">
<rect x="1" y="1" width="40" height="40" rx="20" fill="#F6E1B2"/>
<rect x="1" y="1" width="40" height="40" rx="20" stroke="#B1611D" stroke-width="2"/>
<path d="M19.9443 10.75H22.0557C23.9066 10.75 25.3238 10.751 26.4219 10.8984C27.4691 11.0396 28.261 11.3174 28.8838 11.8789L29.0059 11.9951C29.5653 12.5556 29.869 13.258 30.0371 14.1729L30.1016 14.5781C30.249 15.6772 30.25 17.0934 30.25 18.9443V23.0557C30.25 24.9066 30.249 26.3238 30.1016 27.4219C29.9511 28.5383 29.6451 29.3643 29.0059 30.0049C28.4452 30.5648 27.7424 30.869 26.8271 31.0371L26.4219 31.1016C25.3228 31.249 23.9066 31.25 22.0557 31.25H19.9443C18.0934 31.25 16.6762 31.249 15.5781 31.1016C14.4613 30.951 13.6348 30.6447 12.9941 30.0049C12.3549 29.3643 12.0489 28.5383 11.8984 27.4219C11.751 26.3228 11.75 24.9066 11.75 23.0557V18.9443C11.75 17.0934 11.751 15.6762 11.8984 14.5781C12.0489 13.4617 12.3549 12.6357 12.9941 11.9951C13.6348 11.3553 14.4613 11.049 15.5781 10.8984L15.5771 10.8975C16.6764 10.7499 18.0931 10.75 19.9443 10.75ZM19.999 11.25C18.1061 11.25 16.7135 11.251 15.6436 11.3945C14.5816 11.537 13.8787 11.8169 13.3467 12.3477L13.3457 12.3486C12.8159 12.8798 12.536 13.5827 12.3936 14.6445C12.2501 15.7135 12.249 17.1072 12.249 19V23C12.249 24.8928 12.2501 26.2874 12.3936 27.3564C12.5361 28.4173 12.8164 29.1202 13.3477 29.6514C13.8789 30.1826 14.5817 30.463 15.6436 30.6055C16.7126 30.749 18.1062 30.75 19.999 30.75H21.999C23.8918 30.75 25.2865 30.749 26.3555 30.6055C27.4163 30.463 28.1192 30.1826 28.6504 29.6514C29.1816 29.1201 29.462 28.4173 29.6045 27.3555C29.748 26.2874 29.749 24.8927 29.749 23V19C29.749 17.1071 29.748 15.7135 29.6045 14.6436C29.462 13.5827 29.1816 12.8798 28.6504 12.3486C28.1191 11.8174 27.4163 11.537 26.3545 11.3945C25.2865 11.251 23.8918 11.25 21.999 11.25H19.999ZM17 24.75H22C22.0663 24.75 22.1299 24.7764 22.1768 24.8232C22.2236 24.8701 22.25 24.9337 22.25 25C22.25 25.0663 22.2236 25.1299 22.1768 25.1768C22.1299 25.2236 22.0663 25.25 22 25.25H17C16.9337 25.25 16.8701 25.2236 16.8232 25.1768C16.7764 25.1299 16.75 25.0663 16.75 25C16.75 24.9337 16.7764 24.8701 16.8232 24.8232C16.8701 24.7764 16.9337 24.75 17 24.75ZM17 20.75H25C25.0663 20.75 25.1299 20.7764 25.1768 20.8232C25.2236 20.8701 25.25 20.9337 25.25 21C25.25 21.0663 25.2236 21.1299 25.1768 21.1768C25.1299 21.2236 25.0663 21.25 25 21.25H17C16.9337 21.25 16.8701 21.2236 16.8232 21.1768C16.7764 21.1299 16.75 21.0663 16.75 21C16.75 20.9337 16.7764 20.8701 16.8232 20.8232C16.8701 20.7764 16.9337 20.75 17 20.75ZM17 16.75H25C25.0663 16.75 25.1299 16.7764 25.1768 16.8232C25.2236 16.8701 25.25 16.9337 25.25 17C25.25 17.0663 25.2236 17.1299 25.1768 17.1768C25.1299 17.2236 25.0663 17.25 25 17.25H17C16.9337 17.25 16.8701 17.2236 16.8232 17.1768C16.7764 17.1299 16.75 17.0663 16.75 17C16.75 16.9337 16.7764 16.8701 16.8232 16.8232C16.8701 16.7764 16.9337 16.75 17 16.75Z" fill="#B1611D" stroke="#B1611D"/>
</svg>
