<svg width="30" height="30" viewBox="0 0 30 30" fill="none" xmlns="http://www.w3.org/2000/svg">
<path opacity="0.5" d="M15 3C17.9603 3 20.1302 3.0014 21.791 3.22461C23.4375 3.44591 24.5088 3.877 25.3154 4.68359C26.1226 5.49149 26.554 6.56292 26.7754 8.20898C26.9988 9.86978 27 12.0396 27 15C27 17.9603 26.9988 20.1302 26.7754 21.791C26.5677 23.3348 26.1755 24.3728 25.4619 25.1611L25.3154 25.3154C24.5096 26.1224 23.4384 26.5539 21.792 26.7754C20.131 26.9988 17.9604 27 15 27C12.0398 27 9.86991 26.9987 8.20898 26.7754C6.56253 26.554 5.49085 26.1226 4.68359 25.3154C3.87719 24.5096 3.44593 23.4385 3.22461 21.792C3.00138 20.131 3 17.9604 3 15C3 12.0398 3.00142 9.86993 3.22461 8.20898C3.4321 6.66515 3.82409 5.6268 4.53711 4.83789L4.68359 4.68359C5.49148 3.87694 6.56284 3.44589 8.20898 3.22461C9.86981 3.00138 12.0396 3 15 3Z" fill="#3A9E1B" stroke="#3A9E1B"/>
<path d="M6.4502 16.75C7.62825 16.75 8.06172 16.7603 8.43652 16.9326C8.81102 17.1049 9.10017 17.4278 9.86621 18.3213L9.86719 18.3223L10.624 19.2041C11.3301 20.0276 11.7761 20.5653 12.3965 20.8506C13.0165 21.1356 13.7146 21.125 14.7998 21.125H15.2012C16.2866 21.125 16.9834 21.1356 17.6035 20.8506C18.0687 20.6367 18.4359 20.2805 18.8887 19.7686L19.377 19.2041L20.1338 18.3213C20.8038 17.5398 21.1105 17.1953 21.4277 17.0059L21.5654 16.9326C21.9387 16.7605 22.3727 16.75 23.5498 16.75H26.9971C26.9885 19.0429 26.9457 20.7804 26.7246 22.1455C26.5048 23.5028 26.1169 24.4437 25.4531 25.1719L25.3164 25.3154C24.5099 26.1225 23.4386 26.5539 21.792 26.7754C20.1309 26.9988 17.9604 27 15 27C12.0397 27 9.86979 26.9986 8.20898 26.7754C6.66516 26.5679 5.62721 26.1759 4.83887 25.4629L4.68457 25.3164C3.93601 24.569 3.51105 23.5939 3.27637 22.1455C3.05517 20.78 3.0115 19.0424 3.00293 16.75H6.4502ZM15.4375 3V12.4443L16.291 11.5908L18.8164 9.06641L18.8223 9.05957L18.8281 9.05371C18.8682 9.01073 18.917 8.97606 18.9707 8.95215C19.0243 8.92832 19.082 8.9151 19.1406 8.91406C19.1994 8.91303 19.258 8.92429 19.3125 8.94629C19.3668 8.96829 19.4165 9.00053 19.458 9.04199C19.4995 9.08345 19.5317 9.13316 19.5537 9.1875C19.5757 9.24198 19.587 9.30064 19.5859 9.35938C19.5849 9.41801 19.5717 9.47571 19.5479 9.5293C19.5239 9.58296 19.4893 9.63182 19.4463 9.67188L19.4404 9.67773L19.4336 9.68359L15.3086 13.8086C15.2266 13.8904 15.1158 13.9365 15 13.9365C14.8842 13.9365 14.7734 13.8904 14.6914 13.8086L10.5664 9.68359L10.5596 9.67773L10.5537 9.67188L10.4951 9.60547C10.4783 9.58179 10.464 9.55598 10.4521 9.5293C10.4283 9.47571 10.4151 9.41801 10.4141 9.35938C10.413 9.30063 10.4243 9.24198 10.4463 9.1875C10.4683 9.13316 10.5005 9.08345 10.542 9.04199C10.5835 9.00053 10.6332 8.96829 10.6875 8.94629C10.742 8.92429 10.8006 8.91303 10.8594 8.91406C10.918 8.9151 10.9757 8.92832 11.0293 8.95215C11.083 8.97606 11.1318 9.01073 11.1719 9.05371L11.1777 9.05957L11.1836 9.06641L13.709 11.5908L14.5625 12.4443V3H15.4375Z" fill="#3A9E1B" stroke="#3A9E1B"/>
</svg>
