<svg width="20" height="20" viewBox="0 0 20 20" fill="none" xmlns="http://www.w3.org/2000/svg">
<path d="M15.1914 9.04153H17.3799C17.4246 9.04109 17.4657 9.04148 17.5029 9.04349V9.04446C17.9777 9.0734 18.3698 9.40678 18.4453 9.8472L18.4561 9.93704C18.458 9.96706 18.458 10.004 18.458 10.0562V13.2779C18.458 13.3297 18.4579 13.3661 18.4561 13.396C18.422 13.8774 18.0141 14.2545 17.5098 14.2896C17.4706 14.2913 17.4269 14.292 17.3789 14.2915H15.1924C13.6434 14.2915 12.375 13.1225 12.375 11.6665C12.3751 10.2106 13.6435 9.04167 15.1914 9.04153ZM18.207 9.96732L18.2061 9.94681C18.1788 9.62033 17.8967 9.31765 17.4854 9.29349L17.4775 9.29251H17.458L17.4473 9.29153H15.1914C13.7608 9.29166 12.6241 10.367 12.624 11.6665C12.624 12.9659 13.7605 14.0413 15.1904 14.0415H17.4717L17.4873 14.0406C17.8969 14.0147 18.1788 13.7129 18.2061 13.3863L18.207 13.3658V9.96732Z" fill="black" stroke="#030319"/>
<path d="M15.8327 11.6667C15.8327 11.8877 15.7449 12.0997 15.5886 12.2559C15.4323 12.4122 15.2204 12.5 14.9993 12.5C14.7783 12.5 14.5664 12.4122 14.4101 12.2559C14.2538 12.0997 14.166 11.8877 14.166 11.6667C14.166 11.4457 14.2538 11.2337 14.4101 11.0774C14.5664 10.9211 14.7783 10.8333 14.9993 10.8333C15.2204 10.8333 15.4323 10.9211 15.5886 11.0774C15.7449 11.2337 15.8327 11.4457 15.8327 11.6667" fill="black"/>
<path fill-rule="evenodd" clip-rule="evenodd" d="M17.3744 8.54168C17.4299 8.54112 17.4827 8.54223 17.5327 8.54501C17.7202 8.55584 17.9018 8.60084 18.0702 8.67501C17.981 7.33668 17.7352 6.30501 16.9652 5.53418C16.341 4.91084 15.5502 4.63418 14.5735 4.50251L14.5385 4.49834L14.5119 4.47918L11.3985 2.41501C10.8584 2.06288 10.2275 1.8754 9.58268 1.8754C8.93789 1.8754 8.307 2.06288 7.76685 2.41501L4.65435 4.47918L4.62685 4.49834L4.59185 4.50251C3.61518 4.63418 2.82435 4.91084 2.20018 5.53418C1.57685 6.15834 1.30018 6.94918 1.16852 7.92584C1.04102 8.87584 1.04102 10.0883 1.04102 11.62V11.7133C1.04102 13.245 1.04102 14.4583 1.16852 15.4075C1.30018 16.3842 1.57685 17.175 2.20018 17.7992C2.82435 18.4225 3.61518 18.6992 4.59185 18.8308C5.54185 18.9583 6.75435 18.9583 8.28602 18.9583H10.8793C12.411 18.9583 13.6243 18.9583 14.5735 18.8308C15.5502 18.6992 16.341 18.4225 16.9652 17.7992C17.7352 17.0283 17.981 15.9967 18.0702 14.6575C17.9007 14.7331 17.7213 14.777 17.5318 14.7892C17.4824 14.7914 17.4296 14.7922 17.3735 14.7917H16.806C16.711 15.91 16.4968 16.5 16.081 16.915C15.7285 17.2675 15.2452 17.4792 14.4068 17.5917C13.551 17.7067 12.4218 17.7083 10.8327 17.7083H8.33268C6.74352 17.7083 5.61518 17.7067 4.75768 17.5917C3.92018 17.4792 3.43685 17.2675 3.08435 16.915C2.73185 16.5625 2.52018 16.0792 2.40768 15.2408C2.29268 14.385 2.29102 13.2558 2.29102 11.6667C2.29102 10.0775 2.29268 8.94918 2.40768 8.09168C2.52018 7.25418 2.73185 6.77084 3.08435 6.41834C3.43685 6.06584 3.92018 5.85418 4.75852 5.74168C5.61518 5.62668 6.74352 5.62501 8.33268 5.62501H10.8327C12.4218 5.62501 13.551 5.62668 14.4077 5.74168C15.2452 5.85418 15.7285 6.06584 16.081 6.41834C16.4968 6.83334 16.711 7.42418 16.806 8.54168H17.3744ZM8.28602 4.37501H10.8793C11.3099 4.37501 11.7155 4.37584 12.096 4.37751L10.7077 3.45668C10.041 3.01501 9.12435 3.01501 8.45768 3.45668L7.06852 4.37751C7.44963 4.37529 7.85518 4.37446 8.28518 4.37501" fill="black"/>
<path d="M5 7.70834C4.83424 7.70834 4.67527 7.77419 4.55806 7.8914C4.44085 8.00861 4.375 8.16758 4.375 8.33334C4.375 8.4991 4.44085 8.65807 4.55806 8.77528C4.67527 8.8925 4.83424 8.95834 5 8.95834H8.33333C8.49909 8.95834 8.65806 8.8925 8.77527 8.77528C8.89249 8.65807 8.95833 8.4991 8.95833 8.33334C8.95833 8.16758 8.89249 8.00861 8.77527 7.8914C8.65806 7.77419 8.49909 7.70834 8.33333 7.70834H5Z" fill="black"/>
<path d="M15.8327 11.6667C15.8327 11.8877 15.7449 12.0997 15.5886 12.2559C15.4323 12.4122 15.2204 12.5 14.9993 12.5C14.7783 12.5 14.5664 12.4122 14.4101 12.2559C14.2538 12.0997 14.166 11.8877 14.166 11.6667C14.166 11.4457 14.2538 11.2337 14.4101 11.0774C14.5664 10.9211 14.7783 10.8333 14.9993 10.8333C15.2204 10.8333 15.4323 10.9211 15.5886 11.0774C15.7449 11.2337 15.8327 11.4457 15.8327 11.6667" fill="black"/>
</svg>
