<svg width="20" height="20" viewBox="0 0 20 20" fill="none" xmlns="http://www.w3.org/2000/svg">
<path d="M18.3335 10C18.3335 11.0944 18.118 12.1781 17.6991 13.1892C17.2803 14.2003 16.6665 15.119 15.8926 15.8929C15.1188 16.6667 14.2001 17.2806 13.189 17.6994C12.1779 18.1182 11.0942 18.3338 9.99977 18.3338C8.90536 18.3338 7.82167 18.1182 6.81058 17.6994C5.79948 17.2806 4.88077 16.6667 4.10691 15.8929C3.33305 15.119 2.71919 14.2003 2.30038 13.1892C1.88157 12.1781 1.66602 11.0944 1.66602 10C1.66602 7.78976 2.54403 5.67004 4.10691 4.10716C5.6698 2.54428 7.78952 1.66626 9.99977 1.66626C12.21 1.66626 14.3297 2.54428 15.8926 4.10716C17.4555 5.67004 18.3335 7.78976 18.3335 10Z" stroke="#030319" stroke-width="1.5"/>
<path d="M13.3337 10.0001C13.3337 11.0942 13.247 12.1784 13.0795 13.1892C12.9129 14.2001 12.667 15.1184 12.357 15.8926C12.0479 16.6667 11.6804 17.2801 11.2762 17.6992C10.8712 18.1176 10.4379 18.3334 10.0004 18.3334C9.56287 18.3334 9.12954 18.1176 8.72537 17.6992C8.32037 17.2801 7.95287 16.6659 7.6437 15.8926C7.3337 15.1184 7.08787 14.2009 6.92037 13.1892C6.74946 12.1348 6.66473 11.0683 6.66704 10.0001C6.66704 8.90591 6.75287 7.82175 6.92037 6.81091C7.08787 5.80008 7.3337 4.88175 7.6437 4.10758C7.95287 3.33341 8.32037 2.72008 8.72454 2.30091C9.12954 1.88341 9.56287 1.66675 10.0004 1.66675C10.4379 1.66675 10.8712 1.88258 11.2754 2.30091C11.6804 2.72008 12.0479 3.33425 12.357 4.10758C12.667 4.88175 12.9129 5.79925 13.0795 6.81091C13.2479 7.82175 13.3337 8.90591 13.3337 10.0001Z" stroke="black" stroke-width="1.5"/>
<path d="M1.66699 10H18.3337" stroke="black" stroke-width="1.5" stroke-linecap="round"/>
</svg>
