<svg width="42" height="42" viewBox="0 0 42 42" fill="none" xmlns="http://www.w3.org/2000/svg">
<rect x="1" y="1" width="40" height="40" rx="20" fill="#FEE4E2"/>
<rect x="1" y="1" width="40" height="40" rx="20" stroke="#B42318" stroke-width="2"/>
<path d="M21 10.75C26.6609 10.75 31.25 15.3391 31.25 21C31.25 26.6609 26.6609 31.25 21 31.25C15.3391 31.25 10.75 26.6609 10.75 21C10.75 15.3391 15.3391 10.75 21 10.75ZM21 11.25C18.4141 11.25 15.9339 12.277 14.1055 14.1055C12.277 15.9339 11.25 18.4141 11.25 21C11.25 23.5859 12.277 26.0661 14.1055 27.8945C15.9339 29.723 18.4141 30.75 21 30.75C23.5859 30.75 26.0661 29.723 27.8945 27.8945C29.723 26.0661 30.75 23.5859 30.75 21C30.75 18.4141 29.723 15.9339 27.8945 14.1055C26.0661 12.277 23.5859 11.25 21 11.25ZM20.75 26.2646L20.3379 26.1904C18.8707 25.9275 17.75 24.8543 17.75 23.5C17.75 23.4337 17.7764 23.3701 17.8232 23.3232C17.8701 23.2764 17.9337 23.25 18 23.25C18.0663 23.25 18.1299 23.2764 18.1768 23.3232C18.2236 23.3701 18.25 23.4337 18.25 23.5C18.25 24.6932 19.427 25.75 21 25.75C22.5741 25.75 23.75 24.693 23.75 23.5C23.75 22.307 22.5741 21.25 21 21.25C19.2441 21.25 17.75 20.0546 17.75 18.5C17.75 17.1457 18.8707 16.0725 20.3379 15.8096L20.75 15.7354V15C20.75 14.9337 20.7764 14.8701 20.8232 14.8232C20.8701 14.7764 20.9337 14.75 21 14.75C21.0663 14.75 21.1299 14.7764 21.1768 14.8232C21.2236 14.8701 21.25 14.9337 21.25 15V15.7354L21.6621 15.8096C23.1293 16.0725 24.25 17.1457 24.25 18.5C24.25 18.5663 24.2236 18.6299 24.1768 18.6768C24.1299 18.7236 24.0663 18.75 24 18.75C23.9337 18.75 23.8701 18.7236 23.8232 18.6768C23.7764 18.6299 23.75 18.5663 23.75 18.5C23.75 17.307 22.5741 16.25 21 16.25C19.427 16.25 18.25 17.3068 18.25 18.5C18.25 19.6932 19.427 20.75 21 20.75C22.7559 20.75 24.25 21.9454 24.25 23.5C24.25 24.8543 23.1293 25.9275 21.6621 26.1904L21.25 26.2646V27C21.25 27.0663 21.2236 27.1299 21.1768 27.1768C21.1299 27.2236 21.0663 27.25 21 27.25C20.9337 27.25 20.8701 27.2236 20.8232 27.1768C20.7764 27.1299 20.75 27.0663 20.75 27V26.2646Z" fill="black" stroke="#B42318"/>
</svg>
